{"glyphs":{"0":{"ha":709,"x_min":163,"x_max":771,"o":"m 661 228 q 588 103 629 156 q 505 22 547 50 q 424 -18 463 -5 q 349 -31 386 -31 q 280 -19 311 -31 q 231 8 250 -8 q 198 49 212 24 q 177 94 184 74 q 167 140 171 114 q 163 178 163 167 q 163 205 163 190 q 201 453 163 300 q 290 701 240 606 q 428 870 350 814 q 585 925 505 925 q 651 915 621 925 q 700 888 681 904 q 733 849 719 872 q 754 805 747 826 q 765 760 761 785 q 770 720 770 734 q 771 689 771 705 q 738 465 771 605 q 661 228 704 325 m 528 136 q 629 460 572 235 q 685 764 685 686 q 654 861 685 827 q 578 895 623 895 q 487 863 535 895 q 404 760 439 831 q 309 451 366 683 q 252 136 252 220 q 283 32 252 63 q 355 0 314 0 q 454 41 406 0 q 528 136 503 83 z "},"1":{"ha":709,"x_min":163,"x_max":640,"o":"m 579 26 q 551 0 579 0 q 458 2 521 0 q 366 4 396 4 q 274 2 336 4 q 183 0 213 0 q 163 17 163 0 q 168 36 163 30 q 180 42 174 41 q 201 43 186 43 l 212 43 q 293 49 267 43 q 328 66 319 55 q 343 102 337 77 l 507 760 q 422 715 465 728 q 353 703 378 703 q 330 720 330 703 q 335 737 330 730 q 343 744 340 743 q 353 746 346 745 q 384 750 371 748 q 425 762 396 752 q 477 787 453 772 q 534 832 501 802 q 597 903 567 862 q 614 922 610 918 q 624 925 618 925 q 635 920 631 925 q 640 908 640 916 q 636 890 637 895 l 437 97 q 433 71 433 81 q 440 53 433 57 q 472 46 447 50 q 532 43 517 43 l 543 43 q 564 42 558 43 q 574 38 569 42 q 579 26 579 35 z "},"2":{"ha":709,"x_min":117,"x_max":765,"o":"m 715 227 q 710 202 715 221 q 693 153 704 182 q 663 92 682 123 q 621 33 644 60 q 564 -13 597 5 q 492 -31 530 -31 q 439 -21 466 -31 q 397 -2 412 -11 q 357 25 382 7 q 319 50 332 43 q 283 67 307 58 q 239 77 260 77 q 191 50 211 77 q 161 -12 172 23 q 154 -27 158 -24 q 138 -31 150 -31 q 117 -17 117 -31 q 124 14 119 -6 q 157 90 129 33 q 229 199 186 147 q 271 245 250 224 q 319 284 292 266 q 360 313 345 303 q 408 342 376 322 q 508 411 465 375 q 588 496 551 448 q 646 607 626 545 q 667 742 667 669 q 630 858 667 821 q 545 895 594 895 q 466 875 504 895 q 398 823 427 855 q 344 753 369 791 q 304 674 319 714 q 279 601 288 635 q 271 543 271 566 q 279 507 271 517 q 301 497 287 497 q 358 520 331 497 q 401 576 385 544 q 428 638 418 608 q 437 685 437 669 q 424 736 437 707 l 422 745 q 427 755 422 751 q 437 760 431 760 q 459 734 450 760 q 468 686 468 709 q 457 629 468 665 q 426 557 446 594 q 372 493 406 519 q 300 467 338 467 q 263 476 278 467 q 241 500 248 485 q 232 528 234 515 q 229 554 229 541 q 242 627 229 583 q 283 724 256 672 q 347 821 311 776 q 437 895 384 865 q 549 925 490 925 q 629 910 591 925 q 697 868 667 896 q 747 794 728 840 q 765 690 765 748 q 755 609 765 646 q 724 537 746 571 q 676 476 702 504 q 608 418 650 448 q 525 363 565 387 q 425 304 486 338 q 392 285 402 291 q 352 258 382 279 q 303 218 323 237 q 257 168 283 199 q 211 103 231 137 q 241 107 219 107 q 389 83 279 107 q 504 66 458 66 q 566 81 536 66 q 615 120 595 96 q 649 168 635 144 q 671 216 663 192 q 678 237 675 233 q 694 240 682 240 q 715 227 715 240 z "},"3":{"ha":709,"x_min":132,"x_max":781,"o":"m 667 282 q 616 128 667 201 q 484 12 565 55 q 317 -31 403 -31 q 182 21 232 -31 q 132 147 132 73 q 134 176 132 162 q 142 210 136 189 q 165 243 149 231 q 205 256 181 256 q 240 242 228 256 q 253 211 253 229 q 234 164 253 188 q 175 144 214 141 q 218 36 177 73 q 317 0 259 0 q 408 23 363 0 q 482 82 452 45 q 535 177 515 119 q 562 271 556 235 q 567 328 567 307 q 460 443 567 443 l 421 443 q 393 445 401 443 q 386 457 386 448 q 391 478 386 471 q 401 485 395 484 q 422 486 408 486 l 454 486 q 540 501 501 486 q 603 538 578 516 q 646 591 627 561 q 674 648 665 621 q 689 704 684 675 q 696 747 694 732 q 697 770 697 761 q 686 831 697 805 q 657 870 675 857 q 620 889 639 883 q 579 895 600 895 q 453 858 514 895 q 355 765 391 821 q 318 654 318 709 q 354 603 318 603 q 412 629 385 603 q 439 689 439 654 q 436 708 439 699 q 431 724 433 718 l 428 729 q 422 745 422 740 q 427 755 422 751 q 437 760 431 760 q 459 736 450 760 q 469 690 469 712 q 432 607 469 641 q 354 572 395 572 q 297 597 317 572 q 277 661 277 623 q 301 752 277 705 q 367 837 326 799 q 465 900 408 876 q 582 925 522 925 q 724 875 667 925 q 781 739 781 825 q 720 574 781 655 q 555 458 659 494 q 617 415 592 441 q 651 361 642 389 q 664 315 661 332 q 667 282 667 298 z "},"4":{"ha":709,"x_min":61,"x_max":659,"o":"m 659 20 q 611 -8 659 4 q 529 -21 564 -21 q 501 -20 509 -21 l 450 -222 q 397 -269 438 -269 q 372 -261 384 -269 q 359 -233 359 -253 q 366 -204 359 -228 l 416 3 l 335 35 q 233 50 286 50 q 172 47 195 50 q 141 40 149 43 q 126 29 134 36 q 114 20 122 26 q 101 11 106 14 q 91 4 96 7 q 82 1 85 1 q 68 11 75 1 q 61 25 61 20 q 81 54 61 39 q 115 75 100 69 q 132 89 121 79 q 170 124 143 98 q 224 180 197 150 q 288 257 252 210 q 354 354 323 304 q 559 856 482 564 q 567 883 564 873 q 577 904 570 892 q 593 920 583 915 q 618 925 604 925 q 644 917 631 925 q 656 889 656 909 q 650 863 654 880 q 631 792 647 846 q 595 684 615 739 q 537 551 574 629 q 454 401 499 473 q 343 245 410 328 q 200 92 277 162 q 237 93 218 93 q 343 78 294 93 q 363 70 357 73 q 428 46 370 66 l 486 277 q 492 297 489 289 q 500 315 494 304 q 517 331 507 326 q 542 336 527 336 q 554 335 547 336 q 570 324 561 333 q 579 298 579 315 q 574 271 579 292 l 513 24 q 534 22 519 22 q 618 37 578 22 l 637 43 q 652 34 646 43 q 659 20 659 26 z "},"5":{"ha":709,"x_min":149,"x_max":787,"o":"m 692 368 q 660 217 692 292 q 576 89 627 143 q 459 2 526 35 q 328 -31 393 -31 q 195 25 242 -31 q 149 163 149 81 q 151 202 149 184 q 162 242 154 220 q 187 276 170 263 q 229 289 204 289 q 266 276 253 289 q 279 241 279 262 q 259 192 279 215 q 205 170 239 170 q 192 171 196 170 q 202 102 193 132 q 226 55 212 73 q 259 27 240 38 q 294 12 277 16 q 328 8 311 8 q 388 20 357 8 q 456 65 418 31 q 522 151 494 98 q 568 285 545 195 q 591 429 591 374 q 570 520 591 488 q 507 553 549 553 q 319 457 400 553 q 316 454 319 456 q 313 450 313 451 q 310 448 312 450 q 307 445 308 446 q 304 444 306 445 q 301 443 302 444 q 297 443 299 443 q 279 460 279 443 q 282 478 281 474 l 387 900 q 404 924 393 924 q 424 917 410 924 q 579 880 490 880 q 758 920 670 880 q 775 924 768 924 q 783 920 779 924 q 787 911 787 917 q 774 889 787 904 q 734 854 760 873 q 675 817 708 835 q 600 787 643 799 q 513 775 556 775 q 427 787 460 775 l 408 791 q 401 775 406 791 l 338 519 q 510 583 420 583 q 610 552 568 583 q 672 473 652 521 q 692 368 692 425 z "},"6":{"ha":709,"x_min":167,"x_max":789,"o":"m 704 375 q 673 224 704 299 q 594 94 643 149 q 481 4 545 39 q 353 -31 417 -31 q 284 -18 315 -31 q 235 12 254 -5 q 202 57 216 30 q 181 105 188 83 q 171 154 175 127 q 167 194 168 182 q 167 220 167 205 q 174 314 167 261 q 196 434 181 368 q 243 573 212 501 q 315 704 274 645 q 479 867 389 810 q 654 925 568 925 q 753 896 718 925 q 789 815 789 867 q 770 749 789 774 q 717 724 751 724 q 681 737 692 724 q 669 768 669 751 q 672 783 669 774 q 681 805 674 792 q 704 826 688 817 q 743 835 720 835 q 653 890 728 890 q 543 855 595 890 q 452 770 490 819 q 377 641 406 711 q 322 471 348 571 q 510 591 404 591 q 590 575 555 591 q 646 535 625 559 q 681 481 667 511 q 699 424 694 450 q 704 375 704 398 m 528 134 q 577 284 549 175 q 604 440 604 393 q 579 528 604 493 q 553 551 568 543 q 529 560 538 559 q 505 561 519 561 q 409 527 453 561 q 338 443 365 493 q 292 332 311 393 q 265 222 273 272 q 257 135 257 172 q 261 98 257 117 q 275 57 265 79 q 306 22 285 35 q 355 8 326 8 q 453 43 410 8 q 528 134 497 79 z "},"7":{"ha":709,"x_min":200,"x_max":868,"o":"m 868 911 q 856 888 868 906 q 681 576 747 721 q 498 61 570 339 q 489 26 494 39 q 476 -2 485 13 q 454 -24 468 -17 q 421 -31 441 -31 q 387 -18 401 -31 q 372 16 372 -6 q 382 65 372 24 q 431 208 393 106 q 525 422 469 310 q 584 534 560 492 q 713 747 608 576 q 650 732 680 732 q 613 742 629 732 q 582 779 597 751 q 553 819 563 810 q 525 828 544 828 q 473 820 501 828 q 406 789 445 811 q 323 718 366 767 q 243 597 279 668 q 238 590 239 592 q 233 587 237 588 q 221 586 229 586 q 200 600 200 586 q 208 621 200 604 l 342 904 q 353 922 349 919 q 368 925 357 925 q 389 911 389 925 q 357 838 389 907 q 543 925 449 925 q 571 920 559 925 q 590 908 583 915 q 601 886 597 901 q 607 861 606 872 q 611 831 609 850 q 621 777 614 791 q 650 762 628 762 q 728 796 690 762 q 810 893 767 830 l 831 921 q 848 925 836 925 q 868 911 868 925 z "},"8":{"ha":709,"x_min":135,"x_max":770,"o":"m 686 289 q 639 136 686 210 q 514 16 592 62 q 350 -31 435 -31 q 197 22 259 -31 q 135 160 135 75 q 139 205 135 182 q 160 263 144 229 q 202 330 176 298 q 280 399 229 362 q 397 468 330 437 q 325 536 334 525 q 292 643 292 581 q 332 777 292 711 q 441 884 373 842 q 583 925 509 925 q 715 881 661 925 q 770 761 770 837 q 713 617 770 684 q 551 500 656 550 q 646 415 637 425 q 686 289 686 361 m 707 764 q 671 857 707 823 q 579 890 636 890 q 434 833 499 890 q 368 707 368 776 q 407 623 368 655 l 513 533 l 525 524 q 547 534 528 524 q 592 566 566 545 q 645 616 619 588 q 689 683 671 644 q 707 764 707 723 m 604 231 q 593 283 604 260 q 572 318 583 307 q 538 350 562 329 l 424 446 q 264 317 323 398 q 204 157 204 235 q 246 49 204 90 q 354 8 288 8 q 475 40 416 8 q 569 124 533 73 q 604 231 604 176 z "},"9":{"ha":709,"x_min":144,"x_max":768,"o":"m 768 677 q 763 598 768 646 q 742 479 757 551 q 692 326 727 408 q 610 175 658 243 q 551 103 583 137 q 478 38 519 69 q 390 -12 438 7 q 294 -31 342 -31 q 186 -2 227 -31 q 144 81 144 27 q 163 145 144 120 q 216 171 182 171 q 252 157 241 171 q 264 126 264 144 q 262 113 264 121 q 254 92 260 105 q 232 70 248 79 q 193 58 216 60 q 297 8 216 8 q 479 117 391 8 q 554 244 525 174 q 611 425 584 314 q 424 304 532 304 q 342 321 378 304 q 286 363 307 338 q 252 419 265 388 q 234 475 239 450 q 229 522 229 500 q 280 716 229 623 q 415 868 332 810 q 587 925 498 925 q 654 913 625 925 q 702 883 684 901 q 734 839 721 865 q 754 791 748 812 q 764 743 760 770 q 768 703 768 715 q 768 677 768 691 m 677 764 q 669 823 677 796 q 640 870 661 850 q 585 890 618 890 q 519 876 550 890 q 466 838 488 861 q 431 799 444 815 q 410 765 419 782 q 356 608 382 717 q 329 456 329 500 q 330 435 329 445 q 336 405 330 425 q 351 371 341 385 q 380 346 360 357 q 428 335 400 335 q 527 370 482 335 q 598 457 572 406 q 644 570 625 509 q 670 681 663 631 q 677 764 677 730 z "}," ":{"ha":497,"x_min":0,"x_max":0,"o":""},"!":{"ha":426,"x_min":157,"x_max":521,"o":"m 514 908 l 307 283 q 297 263 301 267 q 282 260 294 260 q 261 277 261 260 q 264 293 261 281 l 368 911 q 383 951 372 934 q 405 976 393 968 q 429 988 416 984 q 449 994 443 993 q 458 994 454 994 q 504 977 488 994 q 521 937 521 960 q 514 908 521 928 m 309 87 q 281 27 309 55 q 218 0 254 0 q 174 17 192 0 q 157 60 157 34 q 184 121 157 94 q 245 147 212 147 q 292 129 275 147 q 309 87 309 111 z "},"\"":{"ha":557,"x_min":339,"x_max":627,"o":"m 492 935 l 380 587 l 339 587 l 403 935 q 422 966 406 953 q 458 979 439 979 q 487 966 477 979 q 492 935 496 954 m 623 935 l 511 587 l 469 587 l 533 935 q 553 966 536 953 q 589 979 570 979 q 617 966 608 979 q 623 935 627 954 z "},"#":{"ha":1136,"x_min":160,"x_max":1150,"o":"m 1146 498 q 1148 495 1146 498 q 1150 482 1150 492 q 1146 466 1150 473 q 1134 458 1142 460 q 1119 455 1125 456 q 1103 454 1113 454 l 885 454 l 779 240 l 1036 240 q 1058 239 1050 240 q 1074 232 1066 238 q 1082 212 1082 225 q 1074 193 1082 199 q 1058 185 1066 186 q 1036 184 1050 184 l 750 184 l 529 -261 q 509 -269 521 -269 q 488 -261 495 -269 q 481 -241 481 -252 q 488 -218 481 -235 l 688 184 l 458 184 l 237 -261 q 216 -269 229 -269 q 196 -261 203 -269 q 189 -241 189 -252 q 196 -218 189 -235 l 396 184 l 207 184 q 191 185 197 184 q 177 188 185 186 q 164 196 168 190 q 160 212 160 202 q 169 232 160 225 q 185 239 177 238 q 207 240 193 240 l 425 240 l 530 454 l 273 454 q 251 455 259 454 q 236 463 243 456 q 228 482 228 469 q 236 502 228 495 q 251 509 243 508 q 273 510 259 510 l 559 510 l 781 956 q 802 964 789 964 q 822 955 815 964 q 829 936 829 947 q 822 913 829 931 l 623 510 l 851 510 l 1072 956 q 1093 964 1080 964 q 1114 955 1107 964 q 1121 936 1121 947 q 1114 913 1121 931 l 914 510 l 1103 510 q 1119 509 1113 510 q 1134 507 1125 509 q 1146 498 1142 505 m 822 454 l 593 454 l 488 240 l 717 240 l 822 454 z "},"$":{"ha":694,"x_min":127,"x_max":814,"o":"m 807 778 q 775 688 800 713 q 721 665 753 665 q 682 679 698 665 q 668 720 666 693 q 694 772 671 751 q 747 793 718 793 q 771 789 761 793 q 723 896 771 860 q 602 936 675 932 l 507 558 q 563 543 547 548 q 603 523 579 538 q 648 482 627 507 l 651 479 q 656 472 654 475 q 662 462 658 469 q 668 450 665 456 q 674 435 671 444 q 681 417 678 426 q 686 397 683 409 q 690 373 689 385 q 691 347 690 362 q 690 318 692 332 q 637 162 684 236 q 517 40 590 87 q 364 -14 444 -7 l 349 -78 l 306 -78 l 321 -14 q 244 2 279 -12 q 182 40 210 16 q 141 106 155 65 q 132 200 127 147 q 135 219 134 213 q 139 242 136 225 q 148 270 142 260 q 162 293 153 281 q 186 312 172 306 q 218 318 200 318 q 255 305 238 318 q 271 262 273 292 q 247 213 269 235 q 191 191 225 191 q 167 195 175 191 q 209 74 163 117 q 332 28 256 32 l 436 443 q 351 472 380 458 q 296 515 323 486 q 249 671 242 575 q 265 743 252 706 q 304 819 278 780 q 365 889 330 857 q 451 945 400 921 q 562 978 503 969 q 571 985 570 980 q 573 994 572 987 q 575 1003 574 1001 l 585 1042 l 628 1042 l 614 978 q 762 920 710 974 q 807 778 814 865 m 558 935 q 404 862 470 924 q 332 725 338 800 q 467 570 322 602 l 558 935 m 608 265 q 575 380 614 340 q 476 432 537 420 l 376 29 q 536 114 469 43 q 608 265 602 184 z "},"%":{"ha":1136,"x_min":201,"x_max":1175,"o":"m 1175 1014 q 1160 985 1175 1005 l 258 -60 q 229 -78 243 -78 q 210 -70 218 -78 q 201 -50 201 -62 q 216 -22 201 -39 l 1013 901 l 1013 903 q 843 863 926 863 q 738 880 785 863 q 661 921 690 898 q 665 867 665 901 q 629 689 665 779 q 534 541 593 599 q 416 482 475 482 q 321 532 358 482 q 285 667 285 583 q 324 843 285 755 q 425 986 363 930 q 549 1042 487 1042 q 632 997 601 1042 q 844 893 709 893 q 994 928 921 893 q 1114 1017 1067 962 q 1133 1037 1126 1031 q 1149 1042 1139 1042 q 1167 1034 1159 1042 q 1175 1014 1175 1025 m 1095 307 q 1073 176 1095 245 q 1018 51 1052 107 q 938 -41 984 -5 q 844 -78 891 -78 q 749 -26 785 -78 q 713 107 713 26 q 751 281 713 194 q 852 426 790 369 q 978 482 914 482 q 1035 465 1010 482 q 1071 419 1059 447 q 1089 363 1083 391 q 1095 307 1095 335 m 624 873 q 617 938 624 908 q 593 989 610 968 q 549 1011 575 1011 q 469 965 507 1011 q 407 855 431 920 q 369 728 383 791 q 355 624 355 665 q 358 590 355 606 q 366 554 360 573 q 386 524 372 536 q 419 513 399 513 q 511 567 463 513 q 591 706 559 621 q 624 873 624 791 m 1051 314 q 1032 413 1051 375 q 978 452 1013 452 q 896 405 935 452 q 834 292 857 357 q 797 164 810 227 q 783 64 783 102 q 785 36 783 50 q 792 1 787 22 q 812 -34 798 -20 q 847 -47 826 -47 q 916 -15 879 -47 q 982 68 952 18 q 1031 184 1012 118 q 1051 314 1051 251 z "},"&":{"ha":1065,"x_min":175,"x_max":1117,"o":"m 1019 432 q 1013 362 1019 400 q 990 280 1006 325 q 948 192 973 235 q 884 108 924 149 q 796 37 845 67 q 679 -12 747 6 q 530 -31 610 -31 q 378 -8 447 -31 q 266 53 310 14 q 199 140 222 91 q 175 244 175 189 q 207 377 175 295 q 304 532 238 459 l 309 541 q 306 550 309 543 q 293 633 293 591 q 318 764 293 698 q 385 880 344 829 q 480 962 426 930 q 589 994 534 994 q 696 948 657 994 q 736 835 736 902 q 734 806 736 821 q 725 771 732 792 q 703 738 719 751 q 663 725 687 725 q 626 739 638 725 q 614 770 614 753 q 614 777 614 772 q 619 793 614 782 q 631 814 623 805 q 654 830 638 823 q 693 838 671 838 q 682 900 692 873 q 655 939 672 926 q 623 958 639 952 q 589 964 606 964 q 502 926 543 964 q 434 831 460 888 q 391 711 408 774 q 374 593 375 648 q 510 640 446 640 q 573 618 549 640 q 597 557 597 595 q 557 469 597 508 q 464 431 517 431 q 407 442 435 431 q 368 461 378 453 q 351 475 357 469 q 303 350 326 429 q 281 216 281 272 q 296 130 281 168 q 337 67 312 91 q 396 28 362 43 q 463 6 430 12 q 532 0 496 0 q 671 18 607 0 q 779 65 734 36 q 859 134 823 94 q 916 213 895 173 q 951 295 937 253 q 970 369 965 336 q 975 428 975 401 q 903 623 975 529 q 852 591 867 601 q 812 564 836 581 q 778 539 788 548 q 755 515 768 530 q 736 490 741 501 q 727 463 731 478 q 724 431 724 448 q 728 400 724 411 q 752 432 735 420 q 790 444 769 444 q 822 434 808 444 q 835 401 835 423 q 816 356 835 376 q 768 336 798 336 q 706 363 731 336 q 681 435 681 390 q 695 499 681 469 q 737 555 709 530 q 786 596 765 581 q 842 632 808 611 q 897 669 875 653 q 952 713 920 685 q 1010 777 985 741 q 1053 856 1036 813 q 1006 899 1006 858 q 1026 946 1006 928 q 1071 964 1046 964 q 1103 952 1089 964 q 1117 921 1117 941 q 1107 881 1117 909 q 1079 812 1098 852 q 1023 727 1061 772 q 940 648 986 682 q 1019 432 1019 545 m 555 564 q 542 598 555 587 q 510 610 529 610 q 468 600 489 610 q 429 574 446 590 q 401 548 412 559 q 383 526 391 536 q 415 479 394 497 q 467 461 437 461 q 530 493 504 461 q 555 564 555 524 z "},"'":{"ha":426,"x_min":339,"x_max":496,"o":"m 492 935 l 380 587 l 339 587 l 403 935 q 422 966 406 953 q 458 979 439 979 q 487 966 477 979 q 492 935 496 954 z "},"(":{"ha":568,"x_min":211,"x_max":717,"o":"m 376 -334 q 363 -347 376 -347 q 310 -293 347 -347 q 249 -174 273 -239 q 211 65 211 -69 q 220 198 211 126 q 251 358 230 271 q 312 544 272 446 q 407 732 353 642 q 482 839 441 787 q 559 926 524 891 q 626 989 594 962 q 677 1029 658 1016 q 703 1042 697 1042 q 717 1028 717 1042 q 696 1003 717 1024 q 525 809 601 922 q 405 587 449 696 q 331 363 361 478 q 291 164 302 248 q 281 16 281 80 q 298 -156 281 -75 q 367 -314 316 -237 q 373 -325 371 -320 q 376 -332 376 -330 l 376 -334 z "},")":{"ha":568,"x_min":25,"x_max":530,"o":"m 530 629 q 521 496 530 568 q 490 336 511 424 q 429 151 469 249 q 335 -37 389 52 q 260 -145 301 -93 q 183 -232 218 -197 q 115 -294 147 -267 q 64 -334 83 -321 q 39 -347 44 -347 q 25 -334 25 -347 q 46 -309 25 -330 q 217 -115 141 -228 q 337 107 293 -2 q 411 331 381 216 q 451 530 440 446 q 461 679 461 614 q 444 850 461 769 q 375 1008 426 931 q 369 1019 371 1015 q 366 1026 366 1024 l 366 1028 q 379 1042 366 1042 q 432 988 395 1042 q 493 868 469 934 q 530 629 530 765 z "},"*":{"ha":709,"x_min":271,"x_max":810,"o":"m 746 621 q 732 590 746 604 q 701 576 718 576 q 673 591 688 576 l 549 714 l 511 490 q 507 473 510 481 q 494 453 505 464 q 467 443 483 443 q 445 450 453 443 q 437 468 437 457 q 443 490 437 469 l 518 714 l 322 585 q 298 576 309 576 q 278 584 286 576 q 271 604 271 591 q 304 646 271 630 l 513 743 l 355 839 q 340 851 343 846 q 336 864 336 855 q 350 894 336 880 q 380 908 363 908 q 393 905 389 908 q 407 893 397 903 l 532 771 l 570 994 q 615 1042 576 1042 q 634 1035 626 1042 q 643 1017 643 1027 q 637 994 643 1016 l 564 771 l 758 900 q 782 908 770 908 q 801 901 794 908 q 809 889 808 895 q 810 880 810 884 q 777 839 810 852 l 568 742 l 725 647 q 746 621 746 634 z "},"+":{"ha":1065,"x_min":195,"x_max":1044,"o":"m 1044 347 q 1036 328 1044 334 q 1020 320 1028 321 q 999 319 1013 319 l 642 319 l 551 -45 q 546 -61 549 -55 q 537 -73 544 -67 q 521 -79 530 -79 q 502 -72 510 -79 q 493 -50 493 -64 l 498 -24 l 585 319 l 240 319 q 228 320 232 319 q 216 321 223 320 q 205 326 209 323 q 198 334 201 328 q 195 347 195 339 q 203 367 195 360 q 219 374 211 373 q 240 375 227 375 l 599 375 l 689 739 q 720 774 696 774 q 740 766 732 774 q 747 746 747 758 q 742 720 747 739 l 656 375 l 999 375 q 1011 375 1007 375 q 1023 373 1016 374 q 1034 369 1030 372 q 1041 361 1038 366 q 1044 347 1044 355 z "},",":{"ha":426,"x_min":102,"x_max":311,"o":"m 311 65 q 293 -33 311 18 q 249 -124 275 -83 q 195 -198 223 -164 q 145 -250 167 -231 q 115 -268 123 -268 q 105 -263 109 -268 q 102 -254 102 -258 q 119 -231 102 -248 q 217 -119 174 -184 q 275 21 260 -54 q 218 0 249 0 q 175 14 193 0 q 157 58 157 28 q 182 119 157 91 q 248 147 208 147 q 295 124 279 147 q 311 65 311 102 z "},"-":{"ha":497,"x_min":119,"x_max":471,"o":"m 460 277 q 451 262 457 264 q 422 260 444 260 l 155 260 q 126 262 134 260 q 119 278 119 265 q 129 319 119 291 q 138 335 133 333 q 165 338 144 338 l 436 338 q 455 337 450 338 q 466 333 461 336 q 471 321 471 329 q 460 277 471 309 z "},".":{"ha":426,"x_min":157,"x_max":309,"o":"m 309 87 q 281 28 309 56 q 218 0 253 0 q 174 17 191 0 q 157 60 157 33 q 185 120 157 94 q 248 147 214 147 q 292 130 275 147 q 309 87 309 112 z "},"/":{"ha":709,"x_min":28,"x_max":856,"o":"m 856 1014 q 846 987 855 1006 l 86 -322 q 54 -347 72 -347 q 36 -339 44 -347 q 28 -319 28 -331 q 37 -293 28 -311 l 798 1017 q 829 1042 812 1042 q 848 1034 840 1042 q 856 1014 856 1025 z "},":":{"ha":426,"x_min":157,"x_max":421,"o":"m 309 87 q 281 28 309 56 q 218 0 253 0 q 174 17 191 0 q 157 60 157 33 q 185 120 157 94 q 248 147 214 147 q 292 130 275 147 q 309 87 309 112 m 421 539 q 393 479 421 507 q 330 452 366 452 q 286 469 302 452 q 269 511 269 486 q 297 571 269 544 q 359 599 324 599 q 404 582 387 599 q 421 539 421 564 z "},";":{"ha":426,"x_min":102,"x_max":421,"o":"m 302 74 q 277 -49 302 16 q 218 -160 252 -114 q 155 -237 185 -206 q 115 -268 125 -268 q 105 -263 109 -268 q 102 -253 102 -259 q 111 -239 102 -244 q 264 12 231 -123 q 218 0 239 0 q 175 14 193 0 q 157 58 157 28 q 182 119 157 91 q 248 147 208 147 q 302 74 302 147 m 421 539 q 393 479 421 507 q 330 452 366 452 q 286 469 302 452 q 269 511 269 486 q 297 571 269 544 q 359 599 324 599 q 404 582 387 599 q 421 539 421 564 z "},"<":{"ha":1080,"x_min":198,"x_max":1147,"o":"m 957 -28 q 944 -47 954 -39 q 922 -56 934 -56 q 900 -46 916 -56 l 221 317 q 203 347 198 328 q 213 365 205 359 q 236 378 221 372 l 1096 741 q 1124 750 1117 750 q 1141 742 1135 750 q 1145 722 1147 734 q 1134 705 1142 711 q 1111 692 1126 699 l 296 347 l 939 3 q 955 -11 951 -5 q 957 -28 960 -17 z "},"=":{"ha":1065,"x_min":160,"x_max":1079,"o":"m 1007 229 q 1009 225 1007 229 q 1011 212 1011 222 q 1007 196 1011 202 q 996 188 1004 190 q 982 185 987 186 q 965 184 976 184 l 207 184 q 191 185 197 184 q 177 188 185 186 q 164 196 168 190 q 160 212 160 202 q 169 232 160 225 q 185 239 177 238 q 207 240 193 240 l 965 240 q 982 239 976 240 q 996 237 987 239 q 1007 229 1004 235 m 1079 482 q 1070 463 1079 469 q 1054 455 1062 456 q 1032 454 1046 454 l 273 454 q 251 455 259 454 q 236 463 243 456 q 228 482 228 469 q 236 502 228 495 q 251 509 243 508 q 273 510 259 510 l 1032 510 q 1048 509 1042 510 q 1062 507 1054 509 q 1075 498 1071 505 q 1079 482 1079 492 z "},">":{"ha":1080,"x_min":105,"x_max":1056,"o":"m 1051 347 q 1040 329 1048 336 q 1017 317 1031 323 l 157 -46 q 129 -56 136 -56 q 111 -47 117 -56 q 109 -28 105 -39 q 143 3 113 -10 l 958 347 l 315 692 q 296 722 292 704 q 309 742 299 734 q 330 750 319 750 q 353 741 337 750 l 1032 378 q 1051 347 1056 366 z "},"?":{"ha":709,"x_min":269,"x_max":765,"o":"m 765 822 q 758 761 765 790 q 738 706 751 731 q 711 663 724 682 q 677 624 698 644 q 644 594 656 604 q 612 568 632 584 l 504 481 q 457 444 471 455 q 426 417 444 433 q 404 391 409 401 q 394 367 398 380 q 390 338 390 354 q 399 304 390 319 q 425 290 408 290 q 490 317 458 290 q 536 385 522 343 q 544 402 541 399 q 559 406 547 406 q 581 392 581 406 q 534 309 581 359 q 425 260 487 260 q 363 289 385 260 q 342 357 342 318 q 349 405 342 382 q 365 443 357 429 q 390 476 372 458 q 413 500 407 495 q 437 521 420 506 l 606 653 q 641 684 629 672 q 675 721 654 696 q 706 777 696 747 q 717 842 717 807 q 683 932 717 900 q 599 964 649 964 q 444 892 516 964 q 332 711 371 820 q 372 698 359 711 q 385 667 385 684 q 364 619 385 640 q 317 599 344 599 q 284 609 298 599 q 269 643 269 619 q 279 690 269 659 q 307 761 289 721 q 355 841 326 800 q 419 916 384 882 q 501 972 454 951 q 599 994 549 994 q 720 946 674 994 q 765 822 765 897 m 450 87 q 422 27 450 55 q 359 0 395 0 q 316 17 334 0 q 298 60 298 34 q 326 121 298 94 q 387 147 354 147 q 433 129 416 147 q 450 87 450 111 z "},"@":{"ha":1065,"x_min":210,"x_max":1096,"o":"m 981 94 q 902 53 981 80 q 775 16 823 26 q 539 -16 652 -16 q 395 14 459 -16 q 292 95 332 44 q 231 209 252 145 q 210 345 210 273 q 259 579 210 463 q 387 783 308 696 q 568 925 465 871 q 774 979 671 979 q 899 955 840 979 q 1001 885 957 930 q 1070 771 1045 840 q 1096 618 1096 702 q 1036 335 1096 507 q 872 178 978 178 q 844 181 858 178 q 811 193 829 184 q 782 221 793 201 q 768 268 770 240 q 579 178 673 178 q 442 238 497 178 q 387 397 387 298 q 417 542 387 470 q 494 666 447 613 q 603 753 541 720 q 725 786 664 786 q 882 668 836 786 l 918 668 q 937 667 932 668 q 946 664 943 667 q 950 654 950 661 q 947 636 949 640 l 857 271 q 855 262 857 268 q 853 251 854 256 q 852 243 852 246 q 858 219 852 227 q 867 209 863 210 q 878 208 871 208 q 957 263 920 208 q 1013 392 993 317 q 1043 529 1032 466 q 1054 623 1054 592 q 977 856 1054 764 q 772 949 900 949 q 587 897 681 949 q 419 763 492 846 q 299 567 346 680 q 253 342 253 455 q 271 216 253 275 q 325 113 290 158 q 415 42 359 68 q 541 16 471 16 q 899 98 718 16 q 922 107 916 106 q 946 109 929 109 q 974 106 968 109 q 981 94 981 104 m 791 372 l 847 597 l 851 616 q 845 647 851 627 q 827 693 840 667 q 788 737 814 719 q 725 755 761 755 q 608 699 667 755 q 510 553 549 642 q 472 375 472 463 q 477 322 472 349 q 494 268 483 295 q 529 225 506 241 q 583 208 552 208 q 714 268 648 208 q 791 372 781 328 z "},"A":{"ha":1031,"x_min":82,"x_max":961,"o":"m 961 25 q 956 7 961 14 q 946 1 951 1 q 936 0 942 0 q 863 2 912 0 q 790 4 814 4 q 710 2 764 4 q 631 0 656 0 q 610 17 610 0 q 615 35 610 29 q 626 42 621 41 q 642 43 631 43 q 710 55 686 43 q 734 87 734 66 l 720 318 l 403 318 l 302 143 q 283 90 283 106 q 285 77 283 83 q 290 67 287 71 q 297 59 293 63 q 305 53 300 56 q 314 49 310 51 q 323 46 318 47 q 331 44 328 45 q 338 43 334 44 l 342 43 q 346 42 343 43 q 350 42 349 42 q 354 41 351 41 q 357 40 356 41 q 360 38 358 39 q 362 35 361 37 q 363 32 363 34 q 364 26 364 29 q 339 0 364 0 q 275 2 319 0 q 210 4 231 4 q 153 2 191 4 q 98 0 115 0 q 82 17 82 0 q 98 43 83 41 q 138 47 123 44 q 177 61 153 50 q 223 95 201 71 q 267 157 245 119 l 728 970 q 741 989 734 983 q 764 994 748 994 q 784 989 780 994 q 789 960 787 983 l 848 90 q 864 52 850 61 q 928 43 877 43 q 947 42 942 43 q 957 38 952 42 q 961 25 961 34 m 717 361 l 685 815 l 427 361 l 717 361 z "},"B":{"ha":977,"x_min":90,"x_max":1019,"o":"m 940 304 q 911 196 940 251 q 836 98 883 141 q 722 27 789 55 q 583 0 655 0 l 125 0 q 105 1 111 0 q 95 5 100 1 q 90 17 90 9 q 96 35 90 29 q 107 42 101 41 q 127 43 113 43 q 197 48 175 43 q 227 64 219 54 q 241 102 235 75 l 429 856 q 435 882 435 876 q 415 901 435 897 q 354 905 395 905 q 332 906 338 905 q 321 910 326 907 q 317 922 317 914 q 322 941 317 935 q 334 948 328 947 q 354 949 340 949 l 786 949 q 957 894 895 949 q 1019 760 1019 839 q 945 599 1019 675 q 747 496 870 523 q 884 436 828 486 q 940 304 940 386 m 897 768 q 895 799 897 784 q 884 835 892 814 q 863 870 876 855 q 825 895 850 884 q 766 905 800 905 l 603 905 q 579 905 585 905 q 563 903 572 905 q 550 895 553 901 q 543 880 547 889 q 534 856 538 871 l 449 509 l 632 509 q 770 549 707 509 q 865 649 832 590 q 897 768 897 708 m 817 322 q 815 353 817 337 q 805 392 813 368 q 783 434 797 416 q 743 465 770 452 q 679 478 715 478 l 440 478 l 343 87 q 340 74 343 87 q 338 57 338 62 q 339 48 338 51 q 351 44 341 46 q 380 43 360 43 l 553 43 q 688 84 626 43 q 783 190 749 126 q 817 322 817 254 z "},"C":{"ha":994,"x_min":208,"x_max":1128,"o":"m 1125 946 l 1040 608 q 1032 587 1036 591 q 1015 583 1027 583 q 994 597 994 583 q 996 612 994 598 q 1000 646 998 626 q 1002 682 1002 667 q 991 773 1002 730 q 959 854 981 817 q 897 913 937 891 q 804 936 857 936 q 632 886 720 936 q 475 745 543 837 q 365 509 401 643 q 329 288 329 374 q 350 162 329 216 q 405 75 370 107 q 481 28 440 43 q 568 12 523 12 q 643 23 604 12 q 724 59 682 34 q 804 121 766 84 q 874 213 842 157 q 928 336 907 269 q 950 347 932 347 q 971 334 971 347 q 954 270 971 312 q 900 177 937 229 q 815 79 863 125 q 696 1 766 33 q 549 -31 625 -31 q 305 71 401 -31 q 208 340 208 173 q 260 577 208 460 q 393 783 311 695 q 581 925 475 870 q 793 979 688 979 q 1003 861 929 979 l 1090 964 q 1101 975 1096 970 q 1109 979 1107 979 l 1112 979 q 1122 976 1118 979 q 1127 968 1126 972 l 1128 965 q 1125 946 1128 957 z "},"D":{"ha":1048,"x_min":87,"x_max":1076,"o":"m 1076 608 q 1047 426 1076 517 q 966 259 1017 334 q 848 124 914 183 q 704 33 782 66 q 549 0 626 0 l 122 0 q 103 1 109 0 q 92 5 97 1 q 87 17 87 9 q 93 35 87 29 q 104 42 98 41 q 125 43 111 43 q 194 48 172 43 q 224 64 216 54 q 239 102 233 75 l 427 856 q 432 882 432 876 q 412 901 432 897 q 351 905 393 905 q 329 906 336 905 q 318 910 323 907 q 314 922 314 914 q 319 941 314 935 q 331 948 325 947 q 351 949 337 949 l 785 949 q 997 854 918 949 q 1076 608 1076 759 m 961 661 q 949 756 961 714 q 916 826 937 798 q 866 871 895 853 q 806 898 837 890 q 739 905 774 905 l 604 905 q 556 898 568 905 q 536 856 545 891 l 345 87 q 342 74 345 87 q 339 57 339 62 q 341 48 339 51 q 352 44 342 46 q 382 43 361 43 l 525 43 q 677 80 605 43 q 803 180 749 118 q 877 301 844 229 q 927 444 909 374 q 952 570 944 513 q 961 661 961 626 z "},"E":{"ha":941,"x_min":86,"x_max":1034,"o":"m 954 343 q 949 326 950 329 l 825 22 q 812 3 818 7 q 786 0 807 0 l 121 0 q 101 1 107 0 q 91 5 96 1 q 86 17 86 9 q 92 35 86 29 q 103 42 97 41 q 123 43 109 43 q 193 48 171 43 q 223 64 215 54 q 237 102 231 75 l 424 846 l 429 878 q 427 890 429 886 q 405 898 424 894 q 349 901 387 901 q 318 904 326 901 q 311 920 311 907 q 316 937 311 932 q 328 944 321 943 q 349 945 334 945 l 997 945 q 1027 939 1021 945 q 1031 908 1034 933 l 999 663 q 993 637 997 643 q 975 632 989 632 q 954 648 954 632 q 957 672 954 659 q 964 761 964 728 q 926 870 964 838 q 779 901 888 901 l 606 901 q 558 895 569 901 q 539 854 547 888 l 454 513 l 567 513 q 680 539 649 513 q 732 642 711 565 q 744 672 739 669 q 758 675 748 675 q 781 659 781 675 q 777 640 778 644 l 700 335 q 691 312 696 317 q 675 307 687 307 q 653 323 653 307 l 656 339 q 668 410 668 384 q 662 442 668 431 q 632 461 656 454 q 564 469 609 469 l 443 469 l 347 87 q 345 74 347 87 q 342 57 342 62 q 343 48 342 51 q 355 44 345 46 q 385 43 364 43 l 554 43 q 629 46 595 43 q 691 60 663 50 q 741 81 719 70 q 782 112 762 92 q 816 151 802 132 q 846 200 830 169 q 874 257 863 231 q 904 325 886 283 q 917 353 913 349 q 933 358 922 358 q 954 343 954 358 z "},"F":{"ha":907,"x_min":86,"x_max":1017,"o":"m 982 663 q 976 637 980 643 q 958 632 972 632 q 937 648 937 632 l 939 671 q 947 762 947 740 q 934 842 947 813 q 881 886 920 870 q 768 901 842 901 l 606 901 q 558 895 569 901 q 539 854 547 888 l 450 494 l 558 494 q 629 501 602 494 q 673 525 656 507 q 701 565 691 543 q 721 628 711 587 q 730 652 726 648 q 747 657 734 657 q 768 642 768 657 q 765 623 768 636 l 689 317 q 680 293 684 298 q 663 289 675 289 q 642 306 642 289 q 646 325 642 311 q 657 393 657 372 q 637 438 657 425 q 554 452 617 452 l 439 452 l 351 102 q 346 72 346 81 q 349 56 346 60 q 375 47 353 51 q 447 43 398 43 l 461 43 q 481 42 475 43 q 491 38 486 42 q 496 26 496 35 q 490 8 496 14 q 480 1 485 1 q 467 0 475 0 q 371 2 435 0 q 275 4 307 4 q 191 2 248 4 q 106 0 134 0 q 86 17 86 0 q 92 35 86 29 q 103 42 97 41 q 123 43 109 43 q 193 48 171 43 q 223 64 215 54 q 237 102 231 75 l 424 846 l 429 878 q 427 890 429 886 q 405 898 424 894 q 349 901 387 901 q 318 904 326 901 q 311 920 311 907 q 316 937 311 932 q 328 944 321 943 q 349 945 334 945 l 981 945 q 1010 939 1004 945 q 1014 908 1017 934 l 982 663 z "},"G":{"ha":1075,"x_min":208,"x_max":1128,"o":"m 1067 361 q 1065 347 1067 352 q 1057 339 1063 341 q 1047 337 1050 337 q 1034 336 1043 336 q 980 327 991 336 q 961 290 968 318 l 895 25 q 878 1 888 1 q 848 30 867 1 q 819 85 829 58 q 711 5 785 40 q 550 -31 638 -31 q 304 72 400 -31 q 208 340 208 174 q 260 577 208 460 q 393 783 311 695 q 581 925 475 870 q 793 979 688 979 q 1003 861 929 979 l 1090 964 q 1101 975 1096 970 q 1109 979 1107 979 l 1112 979 q 1122 976 1118 979 q 1127 968 1126 972 l 1128 965 q 1125 946 1128 957 l 1040 608 q 1032 587 1036 591 q 1015 583 1027 583 q 994 597 994 583 q 996 612 994 598 q 1000 646 998 626 q 1002 682 1002 667 q 991 773 1002 730 q 959 854 981 817 q 897 913 937 891 q 804 936 857 936 q 632 886 720 936 q 475 745 543 837 q 388 576 423 674 q 341 408 353 479 q 329 289 329 338 q 399 84 329 157 q 575 12 470 12 q 672 29 621 12 q 764 83 722 46 q 804 138 793 111 q 839 261 815 164 q 850 309 850 300 q 842 326 850 322 q 810 334 834 330 q 750 336 773 336 l 739 336 q 724 337 728 336 q 714 338 720 337 q 705 342 707 339 q 703 351 703 346 q 705 367 703 361 q 713 376 708 374 q 722 378 719 378 q 732 379 726 379 q 823 377 762 379 q 914 375 884 375 q 982 377 937 375 q 1048 379 1027 379 q 1067 361 1067 379 z "},"H":{"ha":1031,"x_min":86,"x_max":1183,"o":"m 957 25 q 930 0 957 0 q 847 2 903 0 q 764 4 791 4 q 682 2 736 4 q 600 0 627 0 q 581 17 581 0 q 586 35 581 29 q 597 42 591 41 q 618 43 604 43 q 687 48 665 43 q 718 64 709 54 q 732 102 726 75 l 823 472 l 443 472 l 350 94 q 345 66 345 75 q 347 54 345 58 q 369 46 350 50 q 425 43 387 43 q 428 43 426 43 q 449 42 444 43 q 459 38 455 41 q 463 25 463 34 q 436 0 463 0 q 353 2 409 0 q 269 4 297 4 q 187 2 242 4 q 106 0 132 0 q 86 17 86 0 q 92 35 86 29 q 103 42 97 41 q 123 43 109 43 q 193 48 171 43 q 223 64 215 54 q 237 102 231 75 l 425 856 q 431 882 431 876 q 411 901 431 897 q 350 905 391 905 q 328 906 334 905 q 317 910 321 907 q 313 922 313 914 q 318 941 313 935 q 328 948 323 947 q 339 949 332 949 q 422 947 366 949 q 505 945 477 945 q 588 947 532 945 q 669 949 643 949 q 689 930 689 949 q 681 909 689 913 q 647 905 672 905 q 565 895 583 905 q 538 850 546 885 l 454 515 l 835 515 l 920 856 q 925 882 925 876 q 905 901 925 897 q 844 905 886 905 q 822 906 829 905 q 811 910 816 907 q 807 922 807 914 q 812 941 807 935 q 822 948 818 947 q 833 949 827 949 q 917 947 861 949 q 1000 945 972 945 q 1082 947 1027 945 q 1164 949 1137 949 q 1183 930 1183 949 q 1175 909 1183 913 q 1141 905 1166 905 q 1059 895 1078 905 q 1032 850 1040 885 l 844 98 l 839 66 q 842 54 839 58 q 863 46 844 50 q 920 43 882 43 q 922 43 920 43 q 944 42 938 43 q 953 38 949 41 q 957 25 957 34 z "},"I":{"ha":536,"x_min":79,"x_max":696,"o":"m 469 26 q 441 0 469 0 q 356 2 414 0 q 269 4 298 4 q 183 2 241 4 q 98 0 126 0 q 79 18 79 0 q 87 39 79 36 q 121 43 96 43 q 209 53 189 43 q 237 100 229 64 l 427 856 q 431 882 431 868 q 428 892 431 888 q 418 898 425 896 q 405 902 411 901 q 387 905 399 904 q 367 905 374 905 q 343 905 359 905 q 313 908 320 905 q 306 924 306 911 q 332 949 306 949 q 418 947 360 949 q 505 945 477 945 q 591 947 534 945 q 676 949 648 949 q 696 932 696 949 q 690 913 696 919 q 678 906 685 907 q 653 905 671 905 q 583 900 605 905 q 552 884 560 895 q 538 848 544 873 l 350 98 l 345 68 q 348 54 345 58 q 370 46 351 50 q 431 43 389 43 q 449 42 444 43 q 460 41 454 42 q 468 36 466 39 q 469 26 469 33 z "},"J":{"ha":729,"x_min":131,"x_max":864,"o":"m 864 932 q 862 917 864 922 q 853 908 859 911 q 843 906 848 906 q 828 905 838 905 q 768 896 783 905 q 746 856 753 886 l 583 200 q 476 37 560 105 q 294 -31 392 -31 q 178 10 225 -31 q 131 119 131 51 q 140 171 131 149 q 159 203 149 193 q 185 219 170 214 q 205 226 199 225 q 216 227 212 227 q 257 212 240 227 q 273 172 273 198 q 250 117 273 143 q 191 90 227 90 q 175 92 178 90 q 216 25 183 50 q 292 0 248 0 q 400 60 348 0 q 473 201 453 121 l 635 848 q 640 876 640 868 q 632 895 640 891 q 599 903 625 899 q 534 905 574 905 l 518 905 q 499 906 505 905 q 488 910 493 907 q 484 922 484 914 q 489 941 484 935 q 499 948 494 947 q 513 949 504 949 q 607 947 543 949 q 701 945 670 945 q 773 947 725 945 q 844 949 821 949 q 864 932 864 949 z "},"K":{"ha":1067,"x_min":86,"x_max":1193,"o":"m 985 26 q 961 0 985 0 q 899 2 941 0 q 835 4 856 4 q 756 2 809 4 q 679 0 704 0 q 660 18 660 0 q 665 36 660 30 q 675 42 671 41 q 686 43 679 43 q 757 89 757 43 q 749 117 757 96 l 604 504 l 411 345 l 363 144 q 345 66 345 77 q 347 54 345 58 q 369 46 350 50 q 425 43 387 43 q 428 43 426 43 q 449 42 444 43 q 459 38 455 41 q 463 25 463 34 q 436 0 463 0 q 353 2 409 0 q 269 4 297 4 q 187 2 242 4 q 106 0 132 0 q 86 17 86 0 q 92 35 86 29 q 103 42 97 41 q 123 43 109 43 q 193 48 171 43 q 223 64 215 54 q 237 102 231 75 l 425 856 q 431 882 431 876 q 411 901 431 897 q 350 905 391 905 q 328 906 334 905 q 317 910 321 907 q 313 922 313 914 q 318 941 313 935 q 328 948 323 947 q 339 949 332 949 q 422 947 366 949 q 505 945 477 945 q 588 947 532 945 q 669 949 643 949 q 689 930 689 949 q 681 909 689 913 q 647 905 672 905 q 565 895 583 905 q 538 850 546 885 l 428 407 l 917 814 q 950 846 939 831 q 962 878 962 861 q 926 905 962 903 q 907 922 907 905 q 912 941 907 935 q 922 948 918 947 q 933 949 926 949 q 1007 947 957 949 q 1082 945 1057 945 q 1131 947 1098 945 q 1178 949 1164 949 q 1193 932 1193 949 q 1191 918 1193 924 q 1184 910 1189 913 q 1177 907 1179 907 q 1168 905 1174 906 q 950 791 1078 897 l 694 579 l 876 97 q 905 55 889 65 q 960 43 922 44 q 972 42 968 43 q 980 38 976 42 q 985 26 985 35 z "},"L":{"ha":871,"x_min":86,"x_max":867,"o":"m 867 342 l 861 323 l 755 25 q 744 4 749 7 q 715 0 738 0 l 121 0 q 101 1 107 0 q 91 5 96 1 q 86 17 86 9 q 92 35 86 29 q 103 42 97 41 q 123 43 109 43 q 193 48 171 43 q 223 64 215 54 q 237 102 231 75 l 425 856 q 431 882 431 876 q 411 901 431 897 q 350 905 391 905 q 328 906 334 905 q 317 910 321 907 q 313 922 313 914 q 318 941 313 935 q 328 948 323 947 q 339 949 332 949 q 424 947 367 949 q 510 945 481 945 q 606 947 542 945 q 701 949 670 949 q 722 932 722 949 q 717 913 722 919 q 705 906 711 907 q 684 905 699 905 l 669 905 q 587 899 613 905 q 552 882 561 893 q 536 843 543 871 l 347 87 q 345 74 347 87 q 342 57 342 62 q 343 48 342 51 q 355 44 345 46 q 385 43 364 43 l 497 43 q 581 53 542 43 q 647 77 620 63 q 700 117 675 91 q 741 163 726 142 q 773 218 756 183 q 797 272 789 252 q 818 328 805 292 q 829 353 825 349 q 846 358 833 358 q 867 342 867 358 z "},"M":{"ha":1246,"x_min":92,"x_max":1392,"o":"m 1165 25 q 1139 0 1165 0 q 1059 2 1113 0 q 978 4 1004 4 q 898 2 951 4 q 819 0 845 0 q 800 17 800 0 q 806 35 800 29 q 817 42 811 41 q 838 43 823 43 q 907 48 885 43 q 937 64 929 54 q 951 102 945 75 l 1147 888 l 1146 888 l 628 25 q 614 6 621 12 q 595 0 608 0 q 580 4 585 0 q 574 13 575 8 q 571 33 573 18 l 486 875 l 485 875 l 300 138 q 294 103 294 115 q 296 85 294 92 q 306 67 298 77 q 331 50 313 56 q 376 43 349 43 q 391 42 387 43 q 399 37 396 41 q 403 25 403 33 q 398 7 403 14 q 388 1 393 1 q 378 0 384 0 q 310 2 357 0 q 241 4 264 4 q 175 2 220 4 q 110 0 130 0 q 92 17 92 0 q 96 35 92 28 q 106 42 101 41 q 118 43 111 43 q 177 52 153 44 q 222 81 201 59 q 253 140 243 103 l 431 856 q 436 882 436 876 q 416 901 436 897 q 355 905 397 905 q 333 906 340 905 q 322 910 327 907 q 318 922 318 914 q 323 941 318 935 q 335 948 329 947 q 355 949 341 949 l 541 949 q 572 945 566 949 q 579 918 577 941 l 657 139 l 1129 924 q 1148 945 1141 942 q 1179 949 1156 949 l 1357 949 q 1384 946 1377 949 q 1392 930 1392 943 q 1383 909 1392 913 q 1350 905 1375 905 q 1267 895 1286 905 q 1240 850 1249 884 l 1053 98 l 1047 66 q 1050 54 1047 58 q 1071 46 1053 50 q 1128 43 1090 43 q 1131 43 1128 43 q 1152 42 1146 43 q 1161 38 1158 41 q 1165 25 1165 34 z "},"N":{"ha":1031,"x_min":86,"x_max":1183,"o":"m 1183 930 q 1179 913 1183 920 q 1170 906 1174 907 q 1162 905 1166 905 q 1125 902 1141 905 q 1087 891 1110 900 q 1047 863 1063 883 q 1022 811 1030 842 l 828 28 q 818 4 823 9 q 800 0 813 0 q 782 4 786 0 q 772 24 778 7 l 473 852 l 294 138 q 289 103 289 115 q 291 85 289 92 q 300 67 293 77 q 325 50 307 56 q 371 43 343 43 q 386 42 381 43 q 394 37 391 41 q 397 25 397 33 q 392 7 397 14 q 383 1 387 1 q 372 0 378 0 q 305 2 351 0 q 236 4 258 4 q 170 2 214 4 q 104 0 125 0 q 86 17 86 0 q 91 35 86 28 q 100 42 96 41 q 113 43 105 43 q 200 66 166 45 q 248 140 234 87 l 431 876 l 435 895 q 350 905 435 905 q 328 906 334 905 q 317 910 321 907 q 313 922 313 914 q 318 941 313 935 q 330 948 323 947 q 350 949 336 949 l 524 949 q 551 945 545 949 q 562 925 556 942 l 822 203 l 975 812 q 981 846 981 834 q 963 888 981 872 q 897 905 946 903 q 872 922 872 905 q 897 949 872 949 q 964 947 918 949 q 1032 945 1010 945 q 1099 947 1055 945 q 1165 949 1144 949 q 1183 930 1183 949 z "},"O":{"ha":1065,"x_min":205,"x_max":1095,"o":"m 1095 616 q 1062 421 1095 519 q 974 243 1030 323 q 846 101 918 163 q 691 4 774 39 q 525 -31 607 -31 q 294 70 383 -31 q 205 328 205 170 q 255 565 205 446 q 385 775 305 684 q 569 922 464 865 q 778 979 673 979 q 901 954 844 979 q 1002 884 959 929 q 1070 769 1045 838 q 1095 616 1095 700 m 977 675 q 917 876 977 806 q 768 945 857 945 q 592 879 680 945 q 447 713 504 814 q 388 585 413 653 q 352 458 363 517 q 335 356 340 399 q 330 285 330 314 q 386 82 330 159 q 534 5 441 5 q 701 67 615 5 q 852 241 787 129 q 942 458 907 334 q 977 675 977 581 z "},"P":{"ha":941,"x_min":87,"x_max":1014,"o":"m 1014 743 q 960 593 1014 665 q 822 480 906 522 q 652 439 739 439 l 436 439 l 351 94 q 346 66 346 75 q 349 54 346 58 q 370 46 351 50 q 427 43 389 43 q 429 43 427 43 q 451 42 445 43 q 460 38 456 41 q 464 25 464 34 q 437 0 464 0 q 354 2 410 0 q 271 4 298 4 q 189 2 243 4 q 107 0 134 0 q 87 17 87 0 q 93 35 87 29 q 104 42 98 41 q 125 43 111 43 q 194 48 172 43 q 224 64 216 54 q 239 102 233 75 l 427 856 q 432 882 432 876 q 412 901 432 897 q 351 905 393 905 q 329 906 336 905 q 318 910 323 907 q 314 922 314 914 q 319 941 314 935 q 331 948 325 947 q 351 949 337 949 l 768 949 q 947 891 880 949 q 1014 743 1014 833 m 892 781 q 846 875 892 844 q 724 905 801 905 l 604 905 q 556 899 567 905 q 536 856 545 892 l 441 475 l 616 475 q 818 555 745 475 q 872 670 852 595 q 892 781 892 746 z "},"Q":{"ha":1065,"x_min":205,"x_max":1095,"o":"m 965 -1 q 961 -17 964 -7 q 950 -54 959 -26 q 930 -107 941 -82 q 901 -163 920 -132 q 861 -217 882 -195 q 810 -254 840 -239 q 747 -269 781 -269 q 637 -142 637 -269 q 652 -9 637 -104 q 525 -31 587 -31 q 294 70 383 -31 q 205 328 205 170 q 255 565 205 446 q 385 775 305 684 q 569 922 464 865 q 778 979 673 979 q 901 954 844 979 q 1002 884 959 929 q 1070 769 1045 838 q 1095 616 1095 700 q 1043 372 1095 494 q 901 153 992 250 q 697 8 810 57 q 704 -68 698 -38 q 723 -113 711 -98 q 748 -134 734 -128 q 781 -139 761 -139 q 867 -105 824 -139 q 933 -3 911 -71 q 950 16 939 16 q 961 11 956 16 q 965 -1 965 5 m 978 667 q 921 868 978 791 q 768 945 863 945 q 608 890 690 945 q 463 739 526 835 q 358 499 393 632 q 323 281 323 366 q 335 179 323 227 q 377 87 347 131 q 454 21 408 43 q 447 60 447 39 q 487 159 447 113 q 582 205 527 205 q 693 58 684 205 q 808 164 757 98 q 890 298 860 230 q 942 441 921 367 q 970 570 962 515 q 978 667 978 625 m 657 36 q 659 75 659 47 q 658 100 659 91 q 654 125 658 109 q 642 151 650 142 q 620 168 635 160 q 583 175 605 175 q 509 138 540 175 q 478 60 478 100 q 534 4 478 4 q 657 36 595 4 z "},"R":{"ha":1012,"x_min":87,"x_max":1004,"o":"m 1004 127 q 996 98 1004 121 q 969 45 987 75 q 919 -8 952 15 q 846 -31 886 -31 q 724 7 774 -31 q 673 117 673 44 q 694 228 673 140 q 701 254 697 239 q 706 275 705 269 q 710 291 708 282 q 714 305 713 300 q 716 315 715 309 q 717 323 717 320 q 718 330 718 327 q 718 338 718 334 q 706 398 718 373 q 674 436 694 424 q 633 454 654 449 q 587 460 612 460 l 437 460 l 347 94 q 342 66 342 75 q 345 54 342 58 q 366 46 347 50 q 422 43 385 43 q 425 43 423 43 q 447 42 441 43 q 456 38 452 41 q 460 25 460 34 q 433 0 460 0 q 351 2 406 0 q 268 4 295 4 q 188 2 241 4 q 107 0 134 0 q 87 17 87 0 q 93 35 87 29 q 104 42 98 41 q 125 43 111 43 q 194 48 172 43 q 224 64 216 54 q 239 102 233 75 l 427 856 q 432 882 432 876 q 412 901 432 897 q 351 905 393 905 q 329 906 336 905 q 318 910 323 907 q 314 922 314 914 q 319 941 314 935 q 331 948 325 947 q 351 949 337 949 l 718 949 q 921 889 844 949 q 997 743 997 829 q 979 664 997 704 q 925 588 960 625 q 833 520 890 551 q 705 471 777 489 q 792 409 760 451 q 825 310 825 367 q 814 187 825 277 q 806 82 806 115 q 808 40 806 56 q 821 12 810 24 q 851 0 831 0 q 913 32 884 0 q 960 122 942 64 q 967 141 963 136 q 983 146 970 146 q 1004 127 1004 146 m 872 775 q 864 824 872 802 q 844 858 855 845 q 811 881 832 871 q 773 896 789 891 q 730 902 758 900 q 688 905 702 905 q 647 905 674 905 q 567 903 576 905 q 556 899 560 901 q 547 886 553 897 q 536 856 541 875 l 446 490 l 586 490 q 791 562 717 490 q 828 613 812 583 q 852 667 844 642 q 865 719 861 692 q 871 757 870 745 q 872 775 872 769 z "},"S":{"ha":780,"x_min":103,"x_max":878,"o":"m 747 330 q 720 200 747 266 q 649 84 693 135 q 543 1 604 33 q 418 -31 481 -31 q 205 65 271 -31 q 140 -14 176 24 q 128 -28 132 -25 q 118 -31 125 -31 q 107 -27 112 -31 q 103 -17 103 -23 q 107 1 103 -13 l 179 292 q 187 311 183 307 q 204 315 191 315 q 225 300 225 315 l 224 292 q 212 207 212 248 q 230 116 212 155 q 278 55 248 77 q 344 23 309 33 q 421 12 380 12 q 535 52 481 12 q 621 154 589 92 q 653 278 653 216 q 623 378 653 339 q 588 404 605 396 q 515 428 571 412 l 447 447 q 387 465 399 459 q 303 541 330 492 q 277 648 277 589 q 321 804 277 728 q 441 930 366 881 q 599 979 516 979 q 779 885 724 979 l 842 962 q 854 977 850 974 q 863 979 857 979 q 872 976 869 979 q 877 968 876 972 l 878 965 q 875 946 878 957 l 803 659 q 794 637 799 642 q 778 633 790 633 q 757 647 757 633 l 758 667 q 765 743 765 705 q 757 818 765 785 q 730 880 749 851 q 677 924 711 908 q 596 940 644 940 q 486 904 539 940 q 402 814 433 869 q 371 703 371 759 q 441 581 371 612 q 518 558 460 573 q 649 515 621 528 q 701 472 676 503 q 747 330 747 414 z "},"T":{"ha":994,"x_min":243,"x_max":1120,"o":"m 1076 657 q 1069 633 1073 638 q 1051 628 1065 628 q 1031 646 1031 628 q 1034 667 1031 651 q 1047 791 1047 749 q 1033 858 1047 836 q 982 888 1018 880 q 871 897 945 897 q 799 895 810 897 q 788 891 792 894 q 777 878 783 889 q 766 848 771 867 l 581 102 q 575 75 575 82 q 584 55 575 60 q 621 46 592 49 q 635 45 622 46 q 664 44 648 45 q 690 43 680 43 l 711 43 q 726 42 722 43 q 736 41 730 42 q 744 37 742 40 q 746 28 746 33 q 741 8 746 15 q 730 1 735 2 q 717 0 726 0 q 608 2 682 0 q 498 4 534 4 q 391 2 463 4 q 283 0 319 0 q 260 17 260 0 q 265 36 260 30 q 277 42 271 41 q 298 43 283 43 l 321 43 q 411 49 382 43 q 451 67 441 55 q 468 106 461 79 l 654 851 q 660 882 660 867 q 659 890 660 888 q 650 895 658 892 q 628 897 643 897 l 581 897 q 502 895 533 897 q 442 882 471 892 q 396 859 414 873 q 360 817 378 844 q 328 757 342 790 q 297 672 314 724 q 279 632 283 636 q 264 628 275 628 q 243 643 243 628 q 250 667 243 648 l 332 916 q 344 937 338 933 q 372 940 350 940 l 1084 940 q 1104 940 1099 940 q 1115 936 1109 939 q 1120 924 1120 932 q 1118 905 1120 911 l 1076 657 z "},"U":{"ha":1031,"x_min":281,"x_max":1183,"o":"m 1183 930 q 1179 913 1183 920 q 1170 906 1174 907 q 1162 905 1166 905 q 1125 902 1141 905 q 1087 891 1110 900 q 1047 863 1063 883 q 1022 811 1030 842 l 896 302 q 847 186 882 245 q 765 79 812 127 q 654 0 717 31 q 528 -31 591 -31 q 353 40 425 -31 q 281 231 281 111 q 292 319 281 275 l 425 856 q 431 882 431 876 q 411 901 431 897 q 350 905 391 905 q 328 906 334 905 q 317 910 321 907 q 313 922 313 914 q 318 941 313 935 q 328 948 323 947 q 339 949 332 949 q 422 947 366 949 q 505 945 477 945 q 588 947 532 945 q 669 949 643 949 q 689 930 689 949 q 681 909 689 913 q 647 905 672 905 q 565 895 583 905 q 538 850 546 885 l 399 292 q 385 186 385 227 q 428 55 385 98 q 533 12 472 12 q 664 51 598 12 q 782 160 730 90 q 856 318 834 231 l 979 812 q 985 846 985 834 q 967 888 985 872 q 901 905 950 903 q 876 922 876 905 q 901 949 876 949 q 967 947 922 949 q 1035 945 1013 945 q 1101 947 1057 945 q 1165 949 1145 949 q 1183 930 1183 949 z "},"V":{"ha":1031,"x_min":290,"x_max":1206,"o":"m 1206 933 q 1201 915 1206 921 q 1192 907 1196 908 q 1179 905 1188 907 q 1098 879 1134 902 q 1023 793 1061 857 l 547 -4 q 529 -26 536 -22 q 509 -31 522 -31 q 488 -24 492 -31 q 482 3 484 -18 l 399 859 q 385 896 397 887 q 323 905 372 905 q 306 906 311 905 q 295 910 300 907 q 290 922 290 914 q 315 949 290 949 q 386 947 338 949 q 457 945 433 945 q 537 947 484 945 q 616 949 591 949 q 636 932 636 949 q 631 913 636 920 q 620 906 626 907 q 602 905 614 905 q 582 904 592 905 q 553 900 571 903 q 525 886 536 896 q 514 863 514 877 l 585 135 l 986 806 q 1007 861 1007 842 q 990 894 1007 884 q 951 905 973 904 q 948 906 951 905 q 945 906 946 906 q 942 907 944 906 q 939 908 940 907 q 936 909 938 908 q 934 910 935 909 q 932 912 933 911 q 930 915 930 913 q 929 918 930 916 q 929 922 929 920 q 934 941 929 935 q 944 948 939 947 q 954 949 948 949 q 1017 947 974 949 q 1082 945 1061 945 q 1135 947 1099 945 q 1187 949 1171 949 q 1199 945 1194 949 q 1204 937 1204 941 l 1206 933 z "},"W":{"ha":1387,"x_min":289,"x_max":1561,"o":"m 1561 933 q 1541 905 1561 907 q 1460 878 1491 901 q 1394 791 1430 855 l 960 -5 q 946 -23 954 -17 q 935 -30 939 -29 q 924 -31 931 -31 q 910 -29 915 -31 q 903 -23 905 -28 q 900 -13 901 -18 q 899 4 899 -8 l 868 696 l 486 -3 q 471 -25 477 -20 q 450 -31 465 -31 q 431 -24 435 -31 q 425 4 427 -18 l 386 861 q 382 888 385 881 q 366 901 380 896 q 322 905 353 905 q 304 906 310 905 q 294 910 298 907 q 289 922 289 914 q 314 949 289 949 q 381 947 335 949 q 450 945 428 945 q 529 947 476 945 q 607 949 581 949 q 627 932 627 949 q 624 917 627 922 q 616 908 622 911 q 606 906 610 906 q 591 905 601 905 q 538 899 558 905 q 511 883 518 894 q 502 863 503 871 q 501 840 500 855 l 532 161 l 856 755 q 864 783 864 769 q 859 876 860 871 q 845 899 857 893 q 791 905 833 905 q 777 906 782 905 q 767 910 772 907 q 762 922 762 914 q 787 949 762 949 q 855 947 808 949 q 924 945 901 945 q 1002 947 949 945 q 1080 949 1055 949 q 1100 933 1100 949 q 1098 917 1100 924 q 1090 909 1095 911 q 1082 906 1085 907 q 1072 905 1078 905 q 1019 900 1040 905 q 989 888 998 896 q 977 873 980 880 q 974 854 974 865 l 975 844 l 1006 161 l 1357 808 q 1372 852 1372 837 q 1350 892 1372 880 q 1301 905 1328 904 q 1279 922 1279 905 q 1284 941 1279 935 q 1294 948 1290 947 q 1305 949 1299 949 q 1374 947 1328 949 q 1443 945 1421 945 q 1494 947 1460 945 q 1544 949 1529 949 q 1556 945 1552 949 q 1561 937 1560 941 l 1561 933 z "},"X":{"ha":1031,"x_min":71,"x_max":1146,"o":"m 972 25 q 967 7 972 14 q 958 1 962 1 q 947 0 954 0 q 876 2 924 0 q 804 4 828 4 q 724 2 778 4 q 643 0 669 0 q 623 17 623 0 q 644 43 623 39 q 701 59 679 45 q 724 85 724 73 q 720 102 724 85 l 597 433 l 330 129 l 329 126 q 323 118 326 121 q 313 85 313 102 q 314 73 313 79 q 321 60 316 67 q 336 49 326 54 q 361 43 346 44 q 379 28 379 41 q 353 0 379 0 q 281 2 330 0 q 210 4 233 4 q 148 2 189 4 q 87 0 106 0 q 75 5 79 0 q 71 17 71 11 q 87 43 72 41 q 119 45 107 44 q 156 53 132 47 q 199 69 180 59 q 244 98 218 79 q 293 144 269 117 l 582 473 l 439 861 q 427 887 432 880 q 402 900 421 895 q 347 905 384 905 q 329 906 335 905 q 319 910 323 907 q 314 922 314 914 q 319 941 314 935 q 329 948 325 947 q 340 949 334 949 q 411 947 363 949 q 482 945 458 945 q 564 947 509 945 q 644 949 618 949 q 664 930 664 949 q 642 905 664 905 q 598 895 618 903 q 571 879 579 887 q 562 865 562 871 l 568 848 l 669 572 l 875 808 q 904 864 904 842 q 854 905 904 899 q 838 922 838 905 q 843 941 838 935 q 852 948 848 947 q 863 949 857 949 q 935 947 886 949 q 1007 945 983 945 q 1068 947 1027 945 q 1128 949 1109 949 q 1140 944 1135 949 q 1146 932 1146 940 q 1141 914 1146 920 q 1132 907 1137 908 q 1117 905 1128 906 q 1048 893 1080 903 q 993 865 1017 883 q 957 837 968 848 q 926 806 945 825 l 909 791 l 684 532 l 848 85 q 860 61 854 68 q 884 48 865 54 q 939 43 903 43 q 958 42 953 43 q 968 38 963 42 q 972 25 972 34 z "},"Y":{"ha":1031,"x_min":281,"x_max":1214,"o":"m 1214 933 q 1209 915 1214 921 q 1201 907 1204 908 q 1187 905 1197 907 q 1094 876 1137 901 q 1003 791 1050 850 l 675 393 q 672 390 673 391 q 670 387 671 389 q 668 384 669 385 q 666 381 667 383 q 665 377 665 378 q 664 373 665 376 q 662 369 663 370 q 661 362 662 367 q 659 355 659 358 l 615 184 q 589 66 589 73 q 608 47 589 51 q 669 43 628 43 q 687 42 683 43 q 697 41 691 42 q 705 36 703 39 q 707 26 707 33 q 701 8 707 14 q 692 1 696 1 q 681 0 688 0 q 598 2 654 0 q 515 4 543 4 q 435 2 489 4 q 354 0 380 0 q 335 17 335 0 q 337 32 335 26 q 345 40 339 38 q 355 42 351 42 q 370 43 359 43 q 413 44 399 43 q 443 48 428 44 q 463 55 457 52 q 475 70 468 58 q 484 92 481 82 q 492 125 486 101 q 555 379 555 374 q 550 400 555 387 l 403 864 q 378 897 395 888 q 314 905 361 905 q 296 906 302 905 q 286 910 290 907 q 281 922 281 914 q 286 941 281 935 q 296 948 292 947 q 307 949 300 949 q 379 947 330 949 q 452 945 428 945 q 533 947 479 945 q 614 949 587 949 q 633 932 633 949 q 631 917 633 922 q 624 908 629 911 q 614 906 618 906 q 603 905 610 905 q 525 872 525 905 q 530 854 525 868 l 663 437 l 966 808 q 971 814 966 809 q 980 826 975 820 q 990 841 985 833 q 998 858 995 850 q 1002 873 1002 867 q 958 905 1002 903 q 937 922 937 905 q 942 941 937 935 q 952 948 947 947 q 962 949 956 949 q 1026 947 983 949 q 1092 945 1070 945 q 1145 947 1109 945 q 1197 949 1181 949 q 1209 945 1204 949 q 1214 937 1213 941 l 1214 933 z "},"Z":{"ha":851,"x_min":111,"x_max":978,"o":"m 840 354 q 833 332 835 334 l 739 25 q 727 3 733 7 q 699 0 722 0 l 143 0 q 129 0 133 0 q 119 2 124 1 q 113 5 114 3 q 111 12 111 7 q 126 47 111 30 l 844 905 l 650 905 q 536 891 586 905 q 456 857 487 878 q 400 801 425 836 q 362 736 375 766 q 335 661 349 705 q 326 641 330 645 q 310 636 322 636 q 289 652 289 636 q 293 669 292 667 l 368 921 q 380 945 374 941 q 408 949 385 949 l 946 949 q 972 947 966 949 q 978 936 978 945 q 961 900 978 920 l 245 47 l 450 47 q 524 53 490 47 q 585 65 558 58 q 634 87 611 73 q 674 115 658 102 q 707 151 691 128 q 732 190 722 173 q 754 236 743 208 q 772 284 766 264 q 790 336 779 304 q 802 366 798 361 q 818 371 806 371 q 840 354 840 371 z "},"[":{"ha":426,"x_min":102,"x_max":619,"o":"m 286 -309 q 277 -340 281 -334 q 244 -347 270 -347 l 138 -347 q 118 -347 123 -347 q 107 -342 112 -346 q 102 -330 102 -338 q 106 -313 104 -317 l 437 1015 q 448 1038 442 1035 q 476 1042 453 1042 l 583 1042 q 603 1041 597 1042 q 614 1037 609 1040 q 619 1025 619 1033 q 610 993 614 1000 q 601 987 606 989 q 578 986 595 986 l 488 986 l 168 -292 l 250 -292 q 270 -292 264 -292 q 281 -297 276 -293 q 286 -309 286 -300 z "},"\\":{"ha":694,"x_min":330,"x_max":536,"o":"m 536 -319 q 523 -339 534 -331 q 501 -347 513 -347 q 487 -342 492 -347 q 480 -332 481 -338 q 478 -317 479 -327 l 332 989 q 330 1003 330 997 q 331 1012 330 1009 l 332 1014 q 344 1034 334 1025 q 367 1042 355 1042 q 381 1037 376 1042 q 387 1027 386 1031 q 389 1011 388 1022 l 534 -294 l 536 -319 z "},"]":{"ha":426,"x_min":-20,"x_max":498,"o":"m 163 -321 q 152 -344 158 -340 q 123 -347 146 -347 l 17 -347 q -3 -347 3 -347 q -15 -342 -9 -346 q -20 -330 -20 -338 q -9 -298 -14 -305 q 0 -293 -5 -294 q 22 -292 5 -292 l 113 -292 l 432 986 l 350 986 q 330 987 336 986 q 319 991 324 987 q 314 1003 314 995 q 323 1035 319 1028 q 329 1039 327 1038 q 337 1041 331 1040 q 355 1042 342 1042 l 463 1042 q 483 1041 477 1042 q 493 1037 488 1040 q 498 1025 498 1033 q 494 1007 496 1011 l 163 -321 z "},"^":{"ha":772,"x_min":196,"x_max":982,"o":"m 982 811 l 958 781 l 623 951 l 204 781 l 196 811 l 644 1034 l 982 811 z "},"_":{"ha":1031,"x_min":-66,"x_max":1012,"o":"m 1007 -159 q 1009 -162 1007 -159 q 1010 -174 1012 -165 q 1000 -188 1008 -182 q 983 -195 992 -195 l -49 -195 q -61 -188 -57 -195 q -64 -174 -66 -182 q -54 -159 -62 -165 q -37 -153 -46 -153 l 994 -153 q 1007 -159 1002 -153 z "},"`":{"ha":709,"x_min":413,"x_max":621,"o":"m 616 725 q 602 709 612 717 q 583 701 591 701 q 570 713 577 701 l 431 884 q 425 928 413 901 q 452 956 434 945 q 484 966 469 966 q 499 963 493 966 q 508 955 506 959 q 515 943 511 951 l 614 746 q 616 725 621 732 z "},"a":{"ha":709,"x_min":150,"x_max":743,"o":"m 743 199 q 701 62 726 115 q 660 5 683 26 q 600 -16 636 -16 q 528 9 561 -16 q 485 82 496 34 q 401 9 445 33 q 318 -16 357 -16 q 196 46 242 -16 q 150 200 150 109 q 197 396 150 299 q 318 553 244 492 q 468 614 393 614 q 583 532 547 614 q 587 544 585 538 q 594 561 589 549 q 612 579 600 572 q 639 586 623 586 q 664 578 652 586 q 676 550 676 570 q 671 521 676 541 l 576 143 q 567 72 567 104 q 568 54 567 61 q 571 37 568 47 q 582 21 574 26 q 603 16 590 16 q 634 30 620 16 q 660 70 649 43 q 679 121 671 96 q 696 180 687 145 q 706 208 702 203 q 722 212 709 212 q 743 199 743 212 m 494 172 l 559 435 l 564 453 q 537 542 564 501 q 468 583 511 583 q 383 539 427 583 q 313 429 339 494 q 268 284 292 381 q 244 139 244 188 q 247 102 244 121 q 258 62 250 83 q 281 28 265 41 q 321 16 298 16 q 396 46 356 16 q 463 112 437 76 q 494 172 488 148 z "},"b":{"ha":639,"x_min":160,"x_max":637,"o":"m 637 397 q 591 201 637 298 q 470 44 544 104 q 319 -16 395 -16 q 203 45 245 -16 q 160 196 160 105 q 164 248 160 220 q 171 291 168 276 q 175 310 174 306 l 313 859 q 317 882 317 878 q 314 894 317 890 q 295 902 311 899 q 248 905 279 905 q 230 906 235 905 q 219 910 224 907 q 214 921 214 913 q 219 940 214 933 q 229 948 224 947 q 245 950 235 949 l 383 961 q 406 964 391 964 q 425 947 425 964 q 421 929 422 933 l 323 541 q 471 614 401 614 q 588 558 539 614 q 637 397 637 502 m 467 147 q 520 312 496 211 q 545 460 545 414 q 541 498 545 479 q 530 538 538 517 q 506 571 522 558 q 468 583 490 583 q 322 481 396 583 q 303 452 307 461 q 292 416 299 444 q 248 237 258 283 q 239 149 239 191 q 263 47 239 78 q 319 16 288 16 q 369 31 344 16 q 414 69 394 46 q 446 112 433 92 q 467 147 458 131 z "},"c":{"ha":639,"x_min":153,"x_max":653,"o":"m 650 144 q 637 120 650 138 q 597 79 624 102 q 537 35 571 56 q 455 -1 503 14 q 357 -16 407 -16 q 209 47 265 -16 q 153 214 153 111 q 183 361 153 288 q 263 490 214 435 q 377 579 313 545 q 504 614 441 614 q 611 580 570 614 q 653 494 653 546 q 632 434 653 456 q 582 411 611 411 q 547 424 559 411 q 534 456 534 437 q 535 463 534 458 q 539 477 535 467 q 550 496 543 488 q 570 513 556 505 q 604 524 585 522 q 583 556 597 543 q 552 575 569 570 q 525 582 535 580 q 505 583 515 583 q 409 547 458 583 q 323 444 360 511 q 273 304 296 395 q 250 158 250 214 q 278 55 250 94 q 359 16 305 16 q 385 17 371 16 q 428 26 399 18 q 484 46 457 33 q 546 87 511 60 q 610 151 581 115 q 628 167 622 167 q 643 159 635 167 q 650 144 650 151 z "},"d":{"ha":709,"x_min":150,"x_max":778,"o":"m 743 199 q 701 62 726 115 q 660 5 683 26 q 600 -16 636 -16 q 528 9 561 -16 q 485 82 496 34 q 401 9 445 33 q 318 -16 357 -16 q 196 46 242 -16 q 150 200 150 109 q 197 396 150 299 q 318 553 244 492 q 468 614 393 614 q 585 533 545 614 l 665 859 q 669 882 669 878 q 666 894 669 890 q 647 902 663 899 q 600 905 631 905 q 582 906 588 905 q 572 910 576 907 q 567 921 567 913 q 572 940 567 933 q 583 948 577 947 q 599 950 588 949 l 736 961 q 758 964 744 964 q 778 947 778 964 q 774 929 775 933 l 575 136 q 567 72 567 103 q 568 54 567 61 q 571 37 568 47 q 582 21 574 26 q 603 16 590 16 q 634 30 620 16 q 660 70 649 43 q 679 121 671 96 q 696 180 687 145 q 706 208 702 203 q 722 212 709 212 q 743 199 743 212 m 493 170 l 559 436 q 564 454 564 448 q 555 499 564 473 q 536 543 547 526 q 468 583 511 583 q 383 539 427 583 q 313 429 339 494 q 268 284 292 381 q 244 139 244 188 q 247 102 244 121 q 258 62 250 83 q 281 28 265 41 q 321 16 298 16 q 428 73 372 16 q 493 170 483 130 z "},"e":{"ha":639,"x_min":158,"x_max":650,"o":"m 650 144 q 637 120 650 138 q 597 79 624 102 q 537 35 571 56 q 455 -1 503 14 q 357 -16 407 -16 q 247 20 294 -16 q 179 109 201 55 q 158 228 158 163 q 180 362 158 298 q 237 470 201 425 q 318 548 273 515 q 411 597 363 581 q 503 614 458 614 q 605 579 567 614 q 643 496 643 545 q 642 481 643 489 q 636 454 642 473 q 620 418 630 435 q 587 383 609 402 q 533 351 564 364 q 332 321 456 321 l 278 321 q 254 168 254 227 q 258 121 254 144 q 273 72 262 98 q 305 31 283 47 q 359 16 328 16 q 385 17 371 16 q 428 26 399 18 q 484 46 457 33 q 546 87 511 60 q 610 151 581 115 q 628 167 622 167 q 643 159 635 167 q 650 144 650 151 m 590 498 q 567 559 590 535 q 503 583 543 583 q 489 583 496 583 q 464 577 481 582 q 430 564 447 572 q 392 538 414 555 q 353 497 371 521 q 316 436 334 473 q 286 351 298 398 l 315 351 q 346 352 332 351 q 389 355 359 352 q 443 362 420 357 q 496 379 467 368 q 544 405 525 390 q 577 444 564 420 q 590 498 590 468 z "},"f":{"ha":426,"x_min":-35,"x_max":628,"o":"m 628 888 q 607 832 628 853 q 558 811 586 811 q 526 823 540 811 q 511 856 511 834 q 527 899 511 879 q 572 924 543 919 q 514 949 552 949 q 483 938 496 949 q 460 904 469 926 q 447 866 452 882 q 437 823 443 850 l 393 599 l 501 599 q 529 596 522 599 q 536 581 536 593 q 531 563 536 568 q 519 556 526 557 q 498 555 513 555 l 385 555 l 288 57 q 280 22 284 39 q 267 -32 277 5 q 246 -99 257 -69 q 217 -165 235 -130 q 180 -226 199 -201 q 133 -268 160 -251 q 77 -285 106 -285 q -1 -261 33 -285 q -35 -193 -35 -237 q -14 -138 -35 -159 q 35 -117 7 -117 q 68 -129 54 -117 q 82 -161 82 -140 q 66 -204 82 -184 q 21 -229 50 -224 q 77 -254 39 -254 q 103 -246 91 -254 q 123 -227 115 -237 q 137 -197 130 -216 q 148 -166 144 -178 q 155 -135 151 -154 q 195 37 174 -69 l 296 555 l 210 555 q 191 556 197 555 q 180 560 185 557 q 175 571 175 564 q 183 594 175 590 q 212 599 192 599 l 304 599 l 334 751 q 514 979 379 979 q 594 955 560 979 q 628 888 628 930 z "},"g":{"ha":639,"x_min":74,"x_max":676,"o":"m 519 -87 q 422 -228 498 -170 q 241 -285 347 -285 q 114 -266 154 -285 q 74 -204 74 -246 q 96 -149 74 -168 q 142 -131 118 -131 q 178 -145 166 -131 q 191 -175 191 -159 q 178 -212 191 -194 q 146 -239 166 -231 q 244 -254 183 -254 q 376 -189 321 -254 q 415 -129 404 -156 q 440 -43 426 -101 l 469 74 q 322 0 395 0 q 199 61 245 0 q 153 212 153 121 q 199 402 153 308 q 318 555 245 496 q 468 614 392 614 q 585 534 545 614 q 605 573 588 561 q 639 586 622 586 q 664 578 652 586 q 676 550 676 570 q 671 521 676 542 l 519 -87 m 497 183 l 559 436 l 564 456 q 560 481 564 464 q 547 523 556 498 q 517 566 538 548 q 468 583 496 583 q 387 544 429 583 q 318 446 345 504 q 272 297 296 395 q 248 151 248 199 q 248 132 248 142 q 253 102 249 122 q 265 68 258 83 q 288 42 273 54 q 325 31 304 31 q 432 86 377 31 q 497 183 487 142 z "},"h":{"ha":709,"x_min":104,"x_max":743,"o":"m 743 199 q 738 174 743 195 q 718 121 732 153 q 685 58 704 88 q 634 6 666 28 q 567 -16 603 -16 q 490 16 519 -16 q 461 96 461 48 q 465 132 461 117 q 484 184 469 147 q 564 492 564 411 q 500 583 564 583 q 315 452 397 583 q 291 405 296 418 q 277 354 286 391 q 266 309 273 338 q 254 264 258 279 l 195 24 q 177 -3 191 9 q 143 -16 163 -16 q 115 -4 125 -16 q 104 21 104 7 q 107 39 106 36 l 313 859 q 317 882 317 878 q 314 894 317 890 q 295 902 311 899 q 248 905 279 905 q 230 906 235 905 q 219 910 224 907 q 214 921 214 913 q 219 940 214 933 q 229 948 224 947 q 245 950 235 949 l 383 961 q 406 964 391 964 q 425 947 425 964 q 421 929 422 933 l 319 524 q 354 556 342 545 q 391 583 367 567 q 443 607 416 600 q 504 614 471 614 q 555 607 532 614 q 601 585 579 600 q 636 539 623 569 q 648 469 648 510 q 564 160 648 385 q 539 56 539 85 q 541 36 539 43 q 549 22 542 28 q 570 16 556 16 q 699 189 648 16 q 706 209 703 205 q 722 212 709 212 q 743 199 743 212 z "},"i":{"ha":426,"x_min":115,"x_max":497,"o":"m 460 199 q 454 174 460 195 q 435 121 449 154 q 402 58 421 88 q 352 6 383 28 q 283 -16 320 -16 q 205 18 233 -16 q 178 96 178 51 q 182 132 178 115 q 203 192 187 149 l 254 329 l 296 444 q 321 545 321 514 q 290 583 321 583 q 161 408 208 583 q 154 390 157 393 q 136 386 150 386 q 115 400 115 386 q 121 425 115 404 q 141 478 127 446 q 174 541 155 511 q 224 592 193 570 q 293 614 256 614 q 367 585 336 614 q 397 503 397 556 q 380 425 397 475 l 292 187 q 285 169 290 184 q 278 149 279 153 q 272 132 277 145 q 267 114 268 119 q 262 99 265 109 q 259 83 260 89 q 257 69 258 77 q 256 54 256 61 q 259 33 256 41 q 267 21 262 24 q 277 17 273 18 q 286 16 281 16 q 415 189 368 16 q 422 209 419 205 q 439 212 425 212 q 460 199 460 212 m 497 848 q 470 788 497 815 q 408 761 442 761 q 363 779 380 761 q 346 821 346 796 q 373 881 346 854 q 435 908 401 908 q 480 890 464 908 q 497 848 497 872 z "},"j":{"ha":426,"x_min":-49,"x_max":497,"o":"m 310 -77 q 222 -222 289 -159 q 72 -285 155 -285 q -12 -265 26 -285 q -49 -203 -49 -245 q -27 -150 -49 -170 q 20 -131 -5 -131 q 56 -144 44 -131 q 68 -175 68 -158 q 66 -189 68 -180 q 53 -216 65 -198 q 18 -240 40 -233 q 74 -254 45 -254 q 128 -237 102 -254 q 169 -195 153 -219 q 197 -143 184 -171 q 214 -100 209 -116 q 220 -78 219 -83 l 353 457 q 363 528 363 499 q 325 583 363 583 q 234 534 275 583 q 163 410 193 485 q 153 389 157 392 q 136 386 150 386 q 115 400 115 386 q 124 426 115 404 q 150 479 132 448 q 192 541 168 511 q 252 592 216 571 q 326 614 288 614 q 414 577 382 614 q 446 489 446 541 q 439 443 446 463 l 310 -77 m 497 848 q 470 788 497 815 q 408 761 442 761 q 363 779 380 761 q 346 821 346 796 q 373 881 346 854 q 435 908 401 908 q 480 890 464 908 q 497 848 497 872 z "},"k":{"ha":639,"x_min":104,"x_max":697,"o":"m 672 199 q 666 173 672 195 q 648 116 661 151 q 623 57 636 81 q 515 -16 580 -16 q 434 18 470 -16 q 399 119 399 51 q 404 167 399 143 q 408 201 408 186 q 394 252 408 230 q 357 288 380 275 q 312 308 334 301 q 268 318 290 315 l 197 36 q 143 -16 186 -16 q 115 -4 125 -16 q 104 21 104 7 q 107 39 106 36 l 313 859 q 317 882 317 878 q 314 894 317 890 q 295 902 311 899 q 248 905 279 905 q 230 906 235 905 q 219 910 224 907 q 214 921 214 913 q 219 940 214 933 q 229 948 224 947 q 245 950 235 949 l 383 961 q 406 964 391 964 q 425 947 425 964 q 421 929 422 933 l 279 363 q 342 405 315 380 q 429 500 368 429 q 516 583 473 552 q 610 614 559 614 q 675 588 652 614 q 697 530 697 562 q 675 473 697 494 q 628 453 654 453 q 591 467 604 453 q 579 497 579 481 q 583 518 579 507 q 602 547 586 530 q 644 567 618 563 q 607 583 633 583 q 566 575 587 583 q 530 556 545 566 q 490 523 514 547 q 453 485 467 500 q 411 437 440 471 q 313 346 353 370 q 379 331 349 341 q 437 305 410 321 q 481 262 465 288 q 497 201 497 235 q 490 153 497 182 q 479 75 479 98 q 480 54 479 62 q 485 36 481 45 q 497 21 489 26 q 519 16 506 16 q 552 27 537 16 q 578 53 568 38 q 598 93 588 67 q 613 136 608 118 q 625 180 618 153 q 635 208 631 203 q 652 212 639 212 q 672 199 672 212 z "},"l":{"ha":355,"x_min":131,"x_max":425,"o":"m 389 199 q 383 172 389 195 q 367 114 378 149 q 346 57 357 79 q 306 4 329 24 q 248 -16 283 -16 q 164 20 197 -16 q 131 110 131 55 q 139 164 131 132 l 313 859 q 317 882 317 878 q 314 894 317 890 q 295 902 311 899 q 248 905 279 905 q 230 906 235 905 q 219 910 224 907 q 214 921 214 913 q 219 940 214 933 q 229 948 224 947 q 245 950 235 949 l 383 961 q 406 964 391 964 q 425 947 425 964 q 421 929 422 933 l 222 136 q 214 72 214 100 q 250 16 214 16 q 299 55 278 16 q 339 171 320 94 l 349 205 q 368 212 353 212 q 389 199 389 212 z "},"m":{"ha":1136,"x_min":115,"x_max":1169,"o":"m 1169 199 q 1163 174 1169 195 q 1144 121 1158 153 q 1111 58 1130 88 q 1060 6 1092 28 q 993 -16 1029 -16 q 916 16 945 -16 q 888 96 888 48 q 891 133 888 117 q 909 184 895 149 q 990 492 990 412 q 926 583 990 583 q 862 570 892 583 q 807 534 831 557 q 765 487 783 510 q 730 433 748 463 q 725 423 727 427 q 721 415 722 419 q 717 407 719 412 q 714 398 715 401 q 710 387 713 395 q 707 374 708 379 q 702 356 705 369 q 696 334 699 342 q 685 288 692 318 q 673 243 677 258 l 618 21 q 597 -6 611 3 q 568 -16 583 -16 q 539 -4 549 -16 q 529 21 529 7 q 533 40 529 28 l 624 401 q 636 492 636 456 q 572 583 636 583 q 508 570 538 583 q 453 534 477 557 q 411 487 429 510 q 376 433 394 463 q 371 423 373 427 q 367 415 368 419 q 363 407 365 412 q 360 398 361 401 q 356 387 359 395 q 353 374 354 379 q 348 356 351 369 q 342 334 345 342 q 331 289 338 319 q 319 243 323 258 l 264 21 q 243 -6 257 3 q 214 -16 229 -16 q 185 -4 195 -16 q 175 21 175 7 q 179 40 175 28 l 283 457 q 293 528 293 496 q 257 583 293 583 q 205 541 227 583 q 163 418 184 499 q 154 390 158 395 q 136 386 150 386 q 115 400 115 386 q 160 541 134 485 q 202 595 179 576 q 260 614 225 614 q 337 584 305 614 q 376 504 370 554 q 575 614 458 614 q 623 608 600 614 q 667 589 646 602 q 703 551 688 576 q 721 492 717 526 q 809 579 757 545 q 929 614 862 614 q 980 607 956 614 q 1026 586 1004 601 q 1062 541 1048 570 q 1075 469 1075 511 q 990 160 1075 385 q 985 144 989 156 q 979 125 981 132 q 974 109 977 119 q 969 90 970 98 q 966 73 968 83 q 965 56 965 64 q 966 36 965 43 q 975 22 968 28 q 996 16 982 16 q 1125 189 1075 16 q 1132 209 1129 205 q 1149 212 1135 212 q 1169 199 1169 212 z "},"n":{"ha":780,"x_min":115,"x_max":814,"o":"m 814 199 q 808 174 814 195 q 788 121 802 153 q 755 58 774 88 q 705 6 736 28 q 637 -16 673 -16 q 561 16 589 -16 q 532 96 532 48 q 536 132 532 117 q 554 184 540 147 q 635 492 635 412 q 571 583 635 583 q 383 446 465 583 q 361 403 366 417 q 342 334 356 389 q 331 289 338 319 q 319 243 323 258 l 264 21 q 243 -6 257 3 q 214 -16 229 -16 q 185 -4 195 -16 q 175 21 175 7 q 179 40 175 28 l 283 457 q 293 528 293 496 q 257 583 293 583 q 205 541 227 583 q 163 418 184 499 q 154 390 158 395 q 136 386 150 386 q 115 400 115 386 q 160 541 134 485 q 202 595 179 576 q 260 614 225 614 q 337 584 305 614 q 376 504 370 554 q 393 526 384 515 q 421 554 402 537 q 461 583 440 570 q 512 605 482 595 q 575 614 543 614 q 627 607 603 614 q 672 585 650 600 q 707 539 694 569 q 720 469 720 510 q 635 160 720 385 q 629 144 633 156 q 623 125 625 132 q 618 109 621 119 q 614 90 615 98 q 611 73 612 83 q 610 56 610 64 q 611 36 610 43 q 620 22 612 28 q 640 16 627 16 q 770 189 720 16 q 777 209 774 206 q 793 212 780 212 q 814 199 814 212 z "},"o":{"ha":709,"x_min":153,"x_max":707,"o":"m 650 550 q 679 518 650 550 q 707 386 707 486 q 655 193 707 286 q 522 42 604 99 q 355 -16 440 -16 q 210 46 267 -16 q 153 214 153 109 q 183 361 153 288 q 263 490 214 435 q 377 579 313 545 q 504 614 441 614 q 650 550 594 614 m 610 440 q 581 543 610 503 q 503 583 552 583 q 414 551 460 583 q 330 457 368 518 q 274 309 298 404 q 250 158 250 214 q 281 52 250 87 q 355 16 311 16 q 454 55 405 16 q 534 154 503 94 q 588 301 566 212 q 610 440 610 391 z "},"p":{"ha":709,"x_min":20,"x_max":708,"o":"m 708 397 q 680 246 708 322 q 607 113 651 170 q 505 20 562 56 q 392 -16 448 -16 q 316 11 345 -16 q 275 65 286 37 l 225 -138 q 210 -204 210 -202 q 212 -216 210 -212 q 231 -223 215 -220 q 281 -227 248 -227 q 299 -227 294 -227 q 309 -231 304 -227 q 314 -243 314 -235 q 309 -261 314 -255 q 299 -269 303 -268 q 288 -269 294 -269 q 221 -267 267 -269 q 153 -265 175 -265 q 94 -267 133 -265 q 36 -269 54 -269 q 24 -265 28 -269 q 20 -253 20 -260 q 25 -234 20 -241 q 35 -227 31 -228 q 49 -227 40 -227 q 103 -217 90 -225 q 125 -178 117 -209 l 283 458 q 293 528 293 497 q 257 583 293 583 q 205 541 227 583 q 163 418 184 499 q 154 390 158 395 q 136 386 150 386 q 115 400 115 386 q 160 541 134 485 q 202 595 179 576 q 260 614 225 614 q 329 592 295 614 q 374 517 362 570 q 542 614 456 614 q 659 558 610 614 q 708 397 708 502 m 538 147 q 591 312 566 211 q 615 460 615 414 q 612 498 615 479 q 601 538 608 517 q 577 571 593 558 q 539 583 561 583 q 431 526 487 583 q 366 427 375 469 l 300 164 q 296 144 296 148 q 298 127 296 139 q 306 95 300 115 q 322 58 312 75 q 350 28 332 41 q 390 16 368 16 q 440 31 414 16 q 485 69 465 46 q 517 112 504 92 q 538 147 530 131 z "},"q":{"ha":639,"x_min":150,"x_max":690,"o":"m 596 -243 q 591 -261 596 -255 q 581 -269 585 -268 q 570 -269 576 -269 q 500 -267 547 -269 q 429 -265 452 -265 q 359 -267 406 -265 q 290 -269 313 -269 q 272 -253 272 -269 q 274 -238 272 -243 q 282 -230 277 -232 q 293 -227 288 -227 q 306 -227 297 -227 q 343 -225 330 -226 q 369 -221 357 -225 q 386 -215 381 -218 q 396 -203 391 -213 q 404 -186 402 -193 q 411 -160 406 -179 q 437 -54 424 -109 q 465 58 450 1 q 318 -16 389 -16 q 196 46 242 -16 q 150 200 150 109 q 197 396 150 299 q 318 553 244 492 q 468 614 393 614 q 587 525 549 614 q 634 583 604 553 q 675 612 663 612 q 685 609 680 612 q 690 597 690 606 q 686 579 688 583 l 496 -179 q 492 -204 492 -203 q 492 -212 492 -210 q 496 -218 493 -214 q 507 -223 500 -221 q 528 -225 514 -224 q 562 -227 542 -227 q 576 -227 572 -227 q 586 -229 580 -227 q 594 -233 592 -230 q 596 -243 596 -237 m 493 170 l 559 436 q 564 454 564 448 q 555 499 564 473 q 536 543 547 526 q 468 583 511 583 q 383 539 427 583 q 313 429 339 494 q 268 284 292 381 q 244 139 244 188 q 247 102 244 121 q 258 62 250 83 q 281 28 265 41 q 321 16 298 16 q 428 73 372 16 q 493 170 483 130 z "},"r":{"ha":586,"x_min":115,"x_max":679,"o":"m 679 526 q 657 471 679 490 q 611 453 635 453 q 574 467 587 453 q 562 497 562 481 q 565 514 562 505 q 580 541 567 524 q 615 564 593 557 q 542 583 587 583 q 477 564 509 583 q 426 520 446 545 q 389 466 406 496 q 366 421 372 435 q 358 400 361 408 l 268 36 q 214 -16 255 -16 q 185 -4 195 -16 q 175 21 175 7 q 179 40 175 28 l 283 457 q 293 528 293 496 q 257 583 293 583 q 205 541 227 583 q 163 418 184 499 q 154 390 158 395 q 136 386 150 386 q 115 400 115 386 q 160 541 134 485 q 202 595 179 576 q 260 614 225 614 q 332 590 299 614 q 375 514 364 566 q 398 544 388 532 q 431 574 409 555 q 481 604 452 593 q 543 614 510 614 q 585 610 564 614 q 628 597 606 606 q 665 570 650 589 q 679 526 679 551 z "},"s":{"ha":568,"x_min":106,"x_max":582,"o":"m 546 218 q 541 179 546 201 q 525 130 536 157 q 493 77 514 102 q 445 31 473 52 q 376 -3 418 10 q 285 -16 334 -16 q 157 21 208 -16 q 106 119 106 58 q 127 184 106 162 q 176 205 149 205 q 211 193 198 205 q 224 161 224 181 q 223 155 224 159 q 219 139 223 151 q 208 120 215 128 q 187 103 201 111 q 153 93 172 95 q 178 52 161 68 q 217 27 195 35 q 255 18 239 20 q 286 16 271 16 q 374 33 336 16 q 431 77 412 51 q 458 127 450 103 q 467 171 467 151 q 459 209 467 193 q 441 235 451 226 q 412 253 432 245 q 380 264 393 261 q 343 273 368 268 q 314 280 326 277 q 281 294 302 283 q 248 317 260 304 q 224 354 235 330 q 214 408 214 378 q 225 471 214 438 q 262 537 237 505 q 331 592 286 570 q 433 614 376 614 q 541 579 500 614 q 582 496 582 545 q 563 437 582 456 q 522 419 545 419 q 490 431 500 419 q 481 458 481 444 q 494 493 481 474 q 536 515 507 512 q 496 568 526 552 q 432 583 467 583 q 364 568 393 583 q 320 531 334 553 q 298 490 305 509 q 292 456 292 471 q 298 426 292 439 q 312 405 304 412 q 333 391 319 397 q 356 382 347 385 q 380 376 365 380 q 420 367 404 371 q 463 350 436 362 q 505 322 489 338 q 533 280 521 307 q 546 218 546 253 z "},"t":{"ha":460,"x_min":126,"x_max":518,"o":"m 494 199 q 486 174 494 195 q 460 120 478 153 q 419 58 442 88 q 359 6 395 28 q 283 -16 323 -16 q 198 21 231 -16 q 165 110 165 57 q 172 157 165 130 l 272 555 l 161 555 q 142 556 148 555 q 131 561 136 557 q 126 572 126 564 q 132 591 126 585 q 144 598 138 597 q 165 599 151 599 l 283 599 l 338 819 q 392 869 351 869 q 417 861 406 869 q 429 833 429 853 q 424 804 429 824 l 372 599 l 484 599 q 503 598 497 599 q 513 594 509 597 q 518 582 518 590 q 513 563 518 569 q 501 556 507 557 q 479 555 494 555 l 361 555 l 258 143 q 249 72 249 104 q 250 53 249 60 q 253 36 250 46 q 265 21 256 26 q 286 16 273 16 q 340 32 314 16 q 387 76 367 49 q 421 131 407 104 q 446 186 435 157 q 457 209 454 205 q 473 212 461 212 q 494 199 494 212 z "},"u":{"ha":745,"x_min":115,"x_max":779,"o":"m 779 199 q 737 62 762 115 q 695 5 719 26 q 636 -16 672 -16 q 610 -13 623 -16 q 581 -2 597 -10 q 549 23 564 5 q 525 68 534 41 q 371 -16 458 -16 q 261 23 307 -16 q 215 146 215 62 q 234 259 215 194 q 288 418 253 324 q 321 543 321 509 q 313 575 321 568 q 290 583 304 583 q 247 569 267 583 q 213 535 227 554 q 188 488 200 515 q 171 444 176 460 q 161 408 166 427 q 154 390 157 393 q 136 386 150 386 q 115 400 115 386 q 121 426 115 405 q 141 479 127 446 q 175 541 155 511 q 225 592 194 571 q 293 614 257 614 q 369 583 338 614 q 399 501 399 552 q 380 427 399 476 q 343 321 356 360 q 315 221 330 281 q 300 122 300 161 q 303 85 300 102 q 314 52 306 68 q 337 25 321 35 q 375 16 353 16 q 503 96 448 16 q 522 142 515 114 l 624 547 q 677 599 637 599 q 707 587 696 599 q 717 562 717 576 q 713 543 717 555 l 612 143 q 603 72 603 104 q 604 54 603 61 q 607 37 604 47 q 618 21 610 26 q 639 16 626 16 q 670 30 656 16 q 696 70 685 43 q 715 121 707 96 q 732 180 723 145 q 742 208 738 203 q 758 212 745 212 q 779 199 779 212 z "},"v":{"ha":639,"x_min":115,"x_max":685,"o":"m 685 522 q 677 452 685 505 q 647 318 669 399 q 593 163 625 236 q 507 37 562 90 q 387 -16 453 -16 q 326 -7 355 -16 q 271 20 296 2 q 231 72 246 39 q 216 151 216 106 q 233 255 216 196 q 288 418 250 314 q 321 543 321 509 q 313 575 321 568 q 290 583 304 583 q 247 569 267 583 q 213 535 227 554 q 188 488 200 515 q 171 444 176 460 q 161 408 166 427 q 154 390 157 393 q 136 386 150 386 q 115 400 115 386 q 121 426 115 405 q 141 479 127 446 q 175 541 155 511 q 225 592 194 571 q 293 614 257 614 q 369 583 338 614 q 399 501 399 552 q 397 481 399 492 q 394 466 395 471 q 388 448 392 460 q 383 432 385 435 q 344 324 358 365 q 315 226 330 283 q 301 131 301 168 q 305 93 301 111 q 318 56 309 75 q 347 27 328 38 q 392 16 366 16 q 476 52 437 16 q 541 141 516 89 q 583 250 565 193 q 609 348 602 307 q 616 403 616 388 q 579 513 616 473 q 575 517 578 513 q 572 521 572 520 q 569 526 571 522 q 565 531 566 529 q 563 536 564 533 q 561 543 562 539 q 561 550 561 546 q 582 594 561 574 q 628 614 604 614 q 671 588 656 614 q 685 522 685 562 z "},"w":{"ha":922,"x_min":115,"x_max":968,"o":"m 968 522 q 936 339 968 467 q 872 140 903 212 q 689 -16 806 -16 q 588 9 629 -16 q 530 74 547 34 q 396 -16 478 -16 q 265 28 315 -16 q 218 155 218 71 q 221 198 218 180 q 239 273 223 217 q 288 418 255 330 q 321 543 321 509 q 313 575 321 568 q 290 583 304 583 q 247 569 267 583 q 213 535 227 554 q 188 488 200 515 q 171 444 176 460 q 161 408 166 427 q 154 390 157 393 q 136 386 150 386 q 115 400 115 386 q 121 426 115 405 q 141 479 127 446 q 175 541 155 511 q 225 592 194 571 q 293 614 257 614 q 369 583 338 614 q 399 501 399 552 q 382 428 399 475 q 322 255 342 322 q 302 136 302 187 q 303 116 302 126 q 309 86 304 106 q 324 52 315 66 q 353 27 333 38 q 400 16 373 16 q 449 34 426 16 q 487 75 473 52 q 509 119 500 99 q 517 146 517 138 q 528 233 517 189 l 607 550 q 660 599 619 599 q 689 587 679 599 q 699 562 699 576 q 676 471 699 555 l 618 237 q 602 131 602 174 q 623 48 602 81 q 693 16 645 16 q 832 144 777 16 q 876 279 852 194 q 900 403 900 364 q 863 513 900 473 q 859 517 862 513 q 855 521 856 520 q 852 526 854 522 q 849 531 850 529 q 846 536 848 533 q 845 543 845 539 q 844 550 844 546 q 865 594 844 574 q 911 614 886 614 q 954 588 939 614 q 968 522 968 562 z "},"x":{"ha":644,"x_min":74,"x_max":720,"o":"m 677 199 q 669 166 677 189 q 643 111 661 142 q 601 52 625 80 q 541 4 577 24 q 464 -16 504 -16 q 419 -9 441 -16 q 371 20 397 -3 q 332 79 345 43 q 275 13 309 41 q 196 -16 241 -16 q 110 8 146 -16 q 74 71 74 31 q 95 125 74 104 q 143 146 116 146 q 176 136 161 146 q 191 102 191 125 q 177 62 191 82 q 136 35 164 42 q 197 16 159 16 q 230 22 215 16 q 257 39 245 29 q 278 66 268 49 q 296 99 289 84 q 310 138 302 114 q 321 176 317 161 q 332 216 326 191 l 364 343 q 393 496 393 467 q 375 560 393 537 q 326 583 357 583 q 234 538 281 583 q 161 410 188 494 q 153 389 156 393 q 136 386 150 386 q 115 400 115 386 q 124 435 115 411 q 151 489 132 458 q 193 548 169 520 q 254 595 218 576 q 329 614 290 614 q 361 610 345 614 q 396 598 376 607 q 434 569 416 589 q 463 519 452 549 q 479 546 469 532 q 507 576 490 559 q 548 603 524 593 q 599 614 572 614 q 635 610 616 614 q 674 597 654 606 q 707 570 694 588 q 720 526 720 551 q 697 471 720 490 q 652 453 675 453 q 615 467 627 453 q 603 497 603 481 q 603 503 603 499 q 607 516 604 507 q 615 534 610 526 q 631 551 620 543 q 659 564 643 559 q 597 583 636 583 q 523 541 553 583 q 475 435 492 498 l 428 244 q 401 104 401 128 q 421 36 401 56 q 467 16 441 16 q 560 60 514 16 q 632 189 606 104 q 641 209 637 205 q 657 212 644 212 q 677 199 677 212 z "},"y":{"ha":675,"x_min":115,"x_max":717,"o":"m 576 -4 q 515 -138 559 -74 q 405 -243 471 -201 q 271 -285 340 -285 q 175 -252 212 -285 q 138 -165 138 -219 q 143 -126 138 -143 q 157 -101 149 -110 q 176 -87 165 -93 q 194 -81 187 -82 q 208 -79 201 -79 q 242 -91 228 -79 q 256 -123 256 -102 q 240 -165 256 -144 q 196 -191 225 -186 l 184 -195 q 187 -203 184 -197 q 196 -218 189 -210 q 211 -235 202 -227 q 236 -249 220 -243 q 271 -254 252 -254 q 328 -240 299 -254 q 389 -196 357 -227 q 449 -105 420 -165 q 496 36 477 -45 q 371 -16 444 -16 q 261 23 307 -16 q 215 146 215 62 q 234 259 215 194 q 288 418 253 324 q 321 543 321 509 q 313 575 321 568 q 290 583 304 583 q 247 569 267 583 q 213 535 227 554 q 188 488 200 515 q 171 444 176 460 q 161 408 166 427 q 154 390 157 393 q 136 386 150 386 q 115 400 115 386 q 121 426 115 405 q 141 479 127 446 q 175 541 155 511 q 225 592 194 571 q 293 614 257 614 q 369 583 338 614 q 399 501 399 552 q 380 427 399 476 q 343 321 356 360 q 315 221 330 281 q 300 122 300 161 q 303 85 300 102 q 314 52 306 68 q 337 25 321 35 q 375 16 353 16 q 471 58 430 16 q 522 139 513 100 l 624 547 q 677 599 637 599 q 707 587 696 599 q 717 562 717 576 q 715 553 717 560 q 713 543 713 547 l 576 -4 z "},"z":{"ha":568,"x_min":86,"x_max":644,"o":"m 602 199 q 587 151 602 184 q 548 80 573 118 q 481 13 523 41 q 392 -16 439 -16 q 355 -7 372 -16 q 329 11 338 2 q 306 39 321 20 q 283 68 291 60 q 265 83 276 77 q 239 89 254 89 q 223 87 231 89 q 209 82 216 85 q 195 74 203 79 q 183 65 188 69 q 171 54 178 61 q 161 42 165 46 q 151 30 157 38 q 143 18 145 21 q 135 7 141 15 q 129 -3 130 -1 q 124 -11 125 -9 q 119 -14 123 -12 q 107 -16 115 -16 q 86 -1 86 -16 q 132 76 86 12 q 231 192 178 140 l 458 418 q 514 479 467 426 q 493 480 500 479 q 470 485 486 481 q 432 500 454 490 q 349 525 376 525 q 283 505 312 525 q 245 460 254 485 q 237 443 240 446 q 221 440 233 440 q 200 456 200 440 q 212 493 200 468 q 242 545 223 517 q 294 593 262 572 q 363 614 327 614 q 392 609 378 614 q 416 594 405 605 q 432 578 427 584 q 447 559 437 572 q 481 520 468 531 q 513 510 494 510 q 549 526 532 510 q 599 596 567 541 q 609 611 605 609 q 625 614 612 614 q 644 600 644 614 q 625 563 644 593 q 569 485 606 532 q 496 401 533 439 l 294 203 q 216 118 264 172 q 241 119 223 119 q 328 96 274 119 q 406 74 377 74 q 495 107 451 74 q 557 191 538 140 q 565 209 561 205 q 581 212 568 212 q 602 199 602 212 z "},"{":{"ha":694,"x_min":186,"x_max":852,"o":"m 850 1026 q 833 1011 846 1014 q 752 997 788 1008 q 700 975 715 985 q 664 947 685 965 q 622 894 634 923 q 589 782 610 865 l 526 532 q 518 502 522 514 q 498 464 513 489 q 463 421 484 439 q 405 381 443 402 q 317 347 366 361 q 441 204 446 307 q 412 78 439 180 l 361 -131 q 349 -197 347 -184 q 383 -277 349 -241 q 492 -317 417 -312 q 494 -317 492 -317 q 511 -324 510 -319 l 510 -332 q 502 -345 508 -342 q 479 -347 495 -347 q 385 -335 437 -347 q 298 -294 332 -322 q 271 -263 281 -279 q 257 -233 261 -246 q 255 -198 253 -220 q 260 -161 257 -175 q 271 -115 263 -147 l 340 160 q 347 221 347 195 q 334 266 346 247 q 308 296 321 284 q 274 316 294 309 q 238 327 254 324 q 205 332 222 330 q 196 333 199 332 q 190 335 194 333 q 186 339 186 336 q 187 347 187 342 q 210 363 191 363 q 286 378 250 366 q 337 400 322 391 q 371 425 352 410 q 417 483 404 453 q 454 616 429 513 l 518 871 q 629 993 538 944 q 827 1042 720 1042 q 842 1041 838 1042 q 849 1037 846 1040 q 850 1026 852 1034 z "},"|":{"ha":386,"x_min":77,"x_max":476,"o":"m 146 -301 q 127 -340 137 -332 q 107 -347 119 -347 q 90 -301 77 -347 l 414 996 q 421 1017 418 1009 q 433 1033 424 1025 q 454 1042 441 1042 q 474 1026 473 1042 q 469 996 476 1010 l 146 -301 z "},"}":{"ha":694,"x_min":16,"x_max":682,"o":"m 681 347 q 657 332 676 332 q 497 269 566 326 q 451 212 464 241 q 412 78 439 182 l 349 -176 q 238 -298 328 -250 q 41 -347 148 -347 q 28 -347 33 -347 q 20 -342 24 -346 q 17 -332 16 -339 q 33 -317 21 -319 q 115 -302 79 -314 q 166 -281 152 -290 q 204 -253 181 -271 q 245 -200 233 -229 q 278 -87 257 -171 l 340 163 q 349 193 345 180 q 368 230 353 205 q 404 274 383 255 q 463 313 424 292 q 551 347 501 334 q 425 490 420 387 q 431 518 426 496 q 443 571 435 539 q 454 616 451 602 l 507 825 q 519 892 519 880 q 485 971 519 936 q 375 1011 450 1006 q 356 1018 357 1013 q 357 1026 355 1021 q 389 1042 361 1042 q 483 1029 431 1042 q 568 989 534 1016 q 596 957 586 974 q 610 928 606 941 q 612 892 614 915 q 607 856 610 869 q 596 810 604 842 l 526 534 q 520 474 519 500 q 533 429 521 448 q 559 398 545 410 q 592 378 572 386 q 628 367 612 370 q 661 363 644 364 q 673 361 670 362 q 680 357 677 360 q 681 347 682 353 z "},"~":{"ha":772,"x_min":72,"x_max":871,"o":"m 871 403 l 781 342 q 690 293 747 318 q 582 268 627 268 q 516 280 545 268 q 456 315 488 293 q 414 342 429 334 q 375 359 399 351 q 323 367 350 367 q 86 268 229 367 l 72 292 l 163 353 q 254 401 198 376 q 363 427 318 427 q 413 419 389 427 q 452 403 438 411 q 489 379 467 395 q 530 352 516 361 q 570 336 545 344 q 621 328 595 328 q 859 427 713 328 l 871 403 z "},"":{"ha":709,"x_min":0,"x_max":0,"o":""},"":{"ha":426,"x_min":81,"x_max":444,"o":"m 444 635 q 416 574 444 600 q 355 547 389 547 q 310 566 326 547 q 293 607 293 584 q 320 667 293 640 q 383 694 348 694 q 427 677 409 694 q 444 635 444 661 m 233 -216 q 219 -256 229 -239 q 197 -281 208 -273 q 172 -294 186 -290 q 153 -299 159 -298 q 143 -300 147 -300 q 97 -282 114 -300 q 81 -243 81 -265 q 87 -214 81 -233 l 294 411 q 304 431 300 428 q 319 435 308 435 q 340 418 340 435 q 338 401 340 414 l 233 -216 z "},"":{"ha":639,"x_min":153,"x_max":653,"o":"m 650 144 q 637 120 650 138 q 600 80 625 103 q 542 37 574 58 q 464 1 510 16 q 368 -16 417 -14 l 363 -41 q 352 -56 359 -50 q 336 -62 345 -62 q 322 -56 328 -62 q 321 -41 317 -50 l 328 -14 q 200 58 248 -3 q 153 214 153 119 q 181 356 153 285 q 256 481 210 427 q 362 572 302 536 q 484 612 422 608 l 490 640 q 500 655 492 648 q 517 661 509 661 q 529 655 525 661 q 532 640 534 648 l 525 612 q 618 575 583 608 q 653 494 653 542 q 632 434 653 456 q 582 411 611 411 q 547 424 559 411 q 534 456 534 437 q 535 463 534 458 q 539 477 535 467 q 550 496 543 488 q 570 513 556 505 q 604 524 585 522 q 518 583 586 576 l 376 17 q 420 24 397 18 q 475 43 443 30 q 544 84 508 56 q 610 151 579 112 q 628 167 622 167 q 643 159 635 167 q 650 144 650 151 m 335 18 l 475 579 q 394 535 434 570 q 323 444 353 500 q 273 304 296 395 q 250 158 250 214 q 272 65 250 102 q 335 18 293 27 z "},"":{"ha":1067,"x_min":122,"x_max":970,"o":"m 859 205 q 879 192 879 205 q 868 154 879 178 q 836 100 858 130 q 786 45 814 71 q 715 2 757 19 q 628 -16 673 -16 q 539 4 578 -16 q 412 86 500 24 q 319 12 374 40 q 215 -16 264 -16 q 149 2 176 -16 q 122 53 122 19 q 176 148 122 102 q 304 193 231 193 q 386 176 347 193 q 425 317 396 205 l 461 461 l 389 461 q 370 461 375 461 q 360 465 364 462 q 355 475 355 468 q 361 495 355 489 q 372 503 366 502 q 393 504 378 504 l 472 504 l 526 726 q 634 905 551 829 q 808 981 717 981 q 928 928 887 981 q 970 796 970 875 q 893 667 970 667 q 860 679 874 667 q 846 711 846 690 q 871 764 846 742 q 893 775 882 773 q 926 778 905 778 l 926 802 q 895 911 926 872 q 810 950 863 950 q 705 901 757 950 q 623 749 652 851 l 561 504 l 668 504 q 687 504 682 504 q 697 500 692 503 q 701 490 701 497 q 696 470 701 476 q 685 462 691 463 q 664 461 679 461 l 550 461 l 494 235 q 453 139 484 190 q 575 59 540 77 q 653 41 610 41 q 762 82 711 41 q 833 182 813 123 q 842 202 839 199 q 859 205 846 205 m 358 118 q 279 136 316 136 q 205 109 237 136 q 174 52 174 81 q 183 27 174 39 q 215 16 193 16 q 289 42 249 16 q 358 118 329 68 z "},"":{"ha":1065,"x_min":221,"x_max":1018,"o":"m 852 52 q 806 47 829 33 l 791 65 l 736 139 q 553 79 647 79 q 399 139 456 79 l 306 64 q 291 53 295 56 q 277 45 287 50 q 259 41 267 40 q 244 47 252 42 q 264 94 221 62 l 368 178 q 351 347 327 254 q 453 517 374 440 l 386 604 q 387 644 367 627 q 433 648 413 662 q 447 631 438 645 l 504 557 q 686 615 592 615 q 840 555 783 615 l 933 631 q 975 653 962 652 q 994 647 985 654 q 975 600 1018 632 l 869 517 q 888 347 913 441 q 787 179 865 254 l 854 92 q 861 79 859 83 q 862 67 863 75 q 852 52 861 59 m 732 197 q 771 228 732 197 q 832 347 810 259 q 807 497 854 435 q 672 559 761 559 q 506 497 583 559 q 407 347 429 435 q 431 197 384 259 q 567 135 478 135 q 732 197 654 135 z "},"":{"ha":1031,"x_min":248,"x_max":1214,"o":"m 1214 933 q 1209 915 1214 921 q 1201 907 1204 908 q 1187 905 1197 907 q 1094 876 1137 901 q 1003 791 1050 850 l 732 463 l 942 463 q 955 456 950 463 q 958 441 960 450 q 948 427 956 433 q 932 421 940 421 l 697 421 l 675 393 q 672 390 673 391 q 670 387 671 389 q 668 384 669 385 q 666 381 667 383 q 665 377 665 378 q 664 373 665 376 q 662 369 663 370 q 661 362 662 367 q 659 355 659 358 l 637 273 l 895 273 q 908 267 903 273 q 911 253 913 261 q 901 238 909 245 q 885 232 893 232 l 628 232 l 615 184 q 589 66 589 73 q 608 47 589 51 q 669 43 628 43 q 687 42 683 43 q 697 41 691 42 q 705 36 703 39 q 707 26 707 33 q 701 8 707 14 q 692 1 696 1 q 681 0 688 0 q 598 2 654 0 q 515 4 543 4 q 435 2 489 4 q 354 0 380 0 q 335 17 335 0 q 337 32 335 26 q 345 40 339 38 q 355 42 351 42 q 370 43 359 43 q 413 44 399 43 q 443 48 428 44 q 463 55 457 52 q 475 70 468 58 q 484 92 481 82 q 492 125 486 101 l 519 232 l 265 232 q 252 238 256 232 q 250 253 248 245 q 259 267 252 261 q 275 273 267 273 l 529 273 q 541 322 534 294 q 552 365 549 351 q 555 379 555 378 q 550 400 555 387 l 543 421 l 313 421 q 299 427 304 421 q 297 441 295 433 q 306 456 299 450 q 322 463 313 463 l 530 463 l 403 864 q 378 897 395 888 q 314 905 361 905 q 296 906 302 905 q 286 910 290 907 q 281 922 281 914 q 286 941 281 935 q 296 948 292 947 q 307 949 300 949 q 379 947 330 949 q 452 945 428 945 q 533 947 479 945 q 614 949 587 949 q 633 932 633 949 q 631 917 633 922 q 624 908 629 911 q 614 906 618 906 q 603 905 610 905 q 525 872 525 905 q 530 854 525 868 l 654 463 l 684 463 l 966 808 q 971 814 966 809 q 980 826 975 820 q 990 841 985 833 q 998 858 995 850 q 1002 873 1002 867 q 958 905 1002 903 q 937 922 937 905 q 942 941 937 935 q 952 948 947 947 q 962 949 956 949 q 1026 947 983 949 q 1092 945 1070 945 q 1145 947 1109 945 q 1197 949 1181 949 q 1209 945 1204 949 q 1214 937 1213 941 l 1214 933 z "},"":{"ha":386,"x_min":77,"x_max":476,"o":"m 340 476 q 328 461 338 467 q 307 456 318 456 q 290 461 296 456 q 285 476 283 467 l 414 996 q 421 1017 418 1009 q 433 1033 424 1025 q 454 1042 441 1042 q 474 1026 473 1042 q 469 996 476 1010 l 340 476 m 146 -301 q 127 -340 137 -332 q 107 -347 119 -347 q 90 -301 77 -347 l 220 218 q 232 233 222 227 q 253 239 242 239 q 271 233 264 239 q 275 218 277 227 l 146 -301 z "},"":{"ha":680,"x_min":92,"x_max":762,"o":"m 704 269 q 646 173 690 216 q 542 103 603 130 q 557 -53 579 28 q 448 -224 533 -153 q 267 -296 363 -296 q 133 -220 174 -296 q 118 -40 92 -144 q 143 -1 123 -17 q 187 16 164 16 q 222 -1 210 16 q 229 -40 235 -17 q 203 -79 223 -63 q 160 -96 183 -96 l 153 -96 q 189 -193 154 -155 q 282 -232 223 -232 q 405 -179 348 -232 q 479 -53 461 -125 q 466 46 493 2 q 386 119 439 90 l 273 186 q 168 289 203 227 q 150 425 132 350 q 208 521 164 478 q 313 591 252 564 q 297 747 275 666 q 406 919 321 847 q 587 990 491 990 q 721 914 680 990 q 736 734 762 838 q 710 695 731 711 q 667 679 690 679 q 632 695 644 679 q 625 734 620 711 q 651 774 631 758 q 694 790 671 790 l 701 790 q 666 888 700 850 q 572 926 631 926 q 450 873 507 926 q 375 747 393 820 q 388 649 361 692 q 468 575 415 605 l 581 509 q 686 406 650 467 q 704 269 722 345 m 604 269 q 592 360 617 319 q 518 429 566 401 l 406 496 q 334 559 363 522 q 250 425 275 519 q 263 334 237 375 q 336 265 288 293 l 449 199 q 521 135 494 169 q 604 269 579 173 z "},"":{"ha":709,"x_min":372,"x_max":754,"o":"m 509 847 q 484 793 509 817 q 429 768 458 768 q 388 784 403 768 q 372 822 372 800 q 398 877 372 852 q 453 901 423 901 q 494 885 479 901 q 509 847 509 869 m 754 847 q 729 793 754 817 q 675 768 704 768 q 633 784 648 768 q 618 822 618 800 q 643 877 618 852 q 699 901 669 901 q 740 885 725 901 q 754 847 754 869 z "},"":{"ha":948,"x_min":0,"x_max":949,"o":"m 949 475 q 885 236 949 346 q 712 63 821 127 q 475 0 603 0 q 290 38 378 0 q 139 139 202 75 q 38 290 75 202 q 0 475 0 378 q 63 712 0 603 q 236 885 127 821 q 475 949 346 949 q 659 911 571 949 q 810 810 747 873 q 911 659 873 747 q 949 475 949 571 m 893 475 q 860 637 893 559 q 771 771 827 715 q 637 860 715 827 q 475 893 559 893 q 312 860 389 893 q 178 771 234 827 q 89 637 122 715 q 56 475 56 559 q 89 312 56 389 q 178 178 122 234 q 312 89 234 122 q 475 56 389 56 q 637 89 559 56 q 771 178 715 122 q 860 312 827 234 q 893 475 893 389 m 755 757 l 704 554 q 700 543 702 545 q 689 541 697 541 q 676 549 676 541 q 681 599 681 578 q 652 706 681 661 q 562 751 623 751 q 460 722 513 751 q 367 636 407 692 q 301 495 323 575 q 279 363 279 414 q 321 240 279 281 q 422 199 363 199 q 467 205 444 199 q 515 227 490 212 q 563 263 541 241 q 605 318 585 285 q 637 392 625 351 q 650 399 640 399 q 663 390 663 399 q 652 352 663 377 q 620 296 642 327 q 569 237 598 265 q 498 191 541 210 q 410 172 456 172 q 264 233 322 172 q 207 395 207 294 q 237 536 207 466 q 317 659 268 607 q 430 744 366 711 q 557 777 494 777 q 682 705 638 777 l 734 768 q 741 774 737 772 q 746 776 744 776 l 747 777 q 753 774 751 777 q 756 770 755 772 l 757 768 q 756 763 757 767 q 755 757 755 758 z "},"":{"ha":656,"x_min":213,"x_max":754,"o":"m 754 689 q 725 593 743 630 q 642 539 694 539 q 581 556 609 539 q 542 607 553 574 q 406 539 478 539 q 301 583 342 539 q 257 690 260 626 q 290 827 254 760 q 386 937 326 895 q 510 979 446 979 q 608 922 576 979 q 654 960 618 960 q 686 935 685 960 q 684 914 686 928 l 616 650 q 611 600 611 627 q 643 561 611 561 q 677 580 662 561 q 700 621 692 599 q 715 676 707 643 q 723 695 721 692 q 736 699 726 699 q 754 689 754 699 m 684 484 q 674 473 682 477 q 659 468 667 468 l 232 468 q 218 473 224 468 q 215 484 213 477 q 223 493 216 490 q 240 497 231 497 l 665 497 q 680 493 675 497 q 684 484 684 490 m 547 671 l 593 854 l 596 867 q 570 930 594 901 q 510 958 546 958 q 440 927 475 958 q 385 850 405 896 q 353 749 370 817 q 338 647 337 682 q 341 621 338 634 q 352 593 345 608 q 373 570 359 579 q 407 561 387 561 q 495 601 450 561 q 547 671 540 642 z "},"":{"ha":780,"x_min":262,"x_max":770,"o":"m 396 17 q 390 5 396 11 q 378 0 384 0 l 375 0 q 368 3 371 0 q 364 9 364 5 q 264 326 354 184 q 263 336 262 330 q 269 345 264 342 q 528 661 425 481 q 543 671 532 671 l 546 671 q 555 666 552 671 q 555 654 557 661 q 354 336 473 481 q 396 17 402 186 m 608 17 q 602 5 608 11 q 590 0 596 0 l 587 0 q 580 3 583 0 q 576 9 576 5 q 476 326 566 184 q 482 345 471 338 q 741 661 638 481 q 755 671 745 671 l 758 671 q 767 666 764 671 q 768 654 770 661 q 567 336 686 481 q 608 17 614 188 z "},"":{"ha":1065,"x_min":224,"x_max":1084,"o":"m 1080 482 l 1013 212 q 1000 193 1010 201 q 978 184 990 184 q 961 192 966 184 q 957 212 955 200 l 1018 454 l 248 454 q 230 463 236 454 q 227 482 224 471 q 240 502 230 494 q 261 510 250 510 l 1060 510 q 1078 502 1072 510 q 1080 482 1084 494 z "},"":{"ha":497,"x_min":119,"x_max":471,"o":"m 460 277 q 451 262 457 264 q 422 260 444 260 l 155 260 q 126 262 134 260 q 119 278 119 265 q 129 319 119 291 q 138 335 133 333 q 165 338 144 338 l 436 338 q 455 337 450 338 q 466 333 461 336 q 471 321 471 329 q 460 277 471 309 z "},"":{"ha":948,"x_min":0,"x_max":949,"o":"m 949 475 q 885 236 949 346 q 712 63 821 127 q 475 0 603 0 q 290 38 378 0 q 139 139 202 75 q 38 290 75 202 q 0 475 0 378 q 63 712 0 603 q 236 885 127 821 q 475 949 346 949 q 659 911 571 949 q 810 810 747 873 q 911 659 873 747 q 949 475 949 571 m 893 475 q 860 637 893 559 q 771 771 827 715 q 637 860 715 827 q 475 893 559 893 q 312 860 389 893 q 178 771 234 827 q 89 637 122 715 q 56 475 56 559 q 89 312 56 389 q 178 178 122 234 q 312 89 234 122 q 475 56 389 56 q 637 89 559 56 q 771 178 715 122 q 860 312 827 234 q 893 475 893 389 m 762 277 q 757 259 762 273 q 741 227 751 245 q 711 195 731 209 q 668 182 692 182 q 595 204 625 182 q 566 269 566 226 q 576 336 566 285 q 591 401 591 395 q 569 458 591 442 q 513 475 546 475 l 424 475 l 370 257 q 366 240 366 245 q 367 232 366 235 q 379 228 368 230 q 414 225 391 225 q 432 223 427 225 q 436 215 436 222 q 433 204 436 208 q 428 200 430 201 q 421 200 426 200 q 372 201 406 200 q 322 203 338 203 q 274 201 307 203 q 225 200 241 200 q 214 210 214 200 q 217 220 214 217 q 224 224 220 224 q 236 225 228 225 q 288 232 277 225 q 304 261 299 238 l 416 713 q 419 728 419 724 q 408 740 419 737 q 372 742 396 742 q 353 743 358 742 q 349 751 349 745 q 354 766 349 763 q 372 768 359 768 l 591 768 q 712 732 666 768 q 758 644 758 695 q 713 549 758 595 q 583 482 667 503 q 636 445 616 470 q 656 385 656 419 q 648 313 656 363 q 643 249 643 268 q 648 213 643 225 q 671 200 654 200 q 708 219 691 200 q 736 273 726 238 q 739 281 738 279 q 742 286 739 283 q 750 288 745 288 q 762 277 762 288 m 684 664 q 678 697 684 683 q 660 719 672 711 q 636 732 648 727 q 607 739 625 737 q 577 742 588 741 q 549 742 567 742 q 500 741 507 742 q 494 739 496 740 q 488 731 492 737 q 482 713 485 724 l 428 493 l 513 493 q 635 536 589 493 q 667 589 655 557 q 682 638 680 622 q 684 664 684 654 z "},"":{"ha":709,"x_min":334,"x_max":794,"o":"m 794 840 q 789 822 794 827 q 778 815 784 816 q 757 814 772 814 l 368 814 q 341 817 348 814 q 334 832 334 819 q 342 852 334 848 q 371 856 350 856 l 760 856 q 778 855 772 856 q 789 851 784 854 q 794 840 794 848 z "},"":{"ha":532,"x_min":263,"x_max":655,"o":"m 636 772 q 553 647 618 699 q 415 595 488 595 q 302 647 341 595 q 282 772 263 699 q 365 897 300 845 q 504 949 430 949 q 616 897 576 949 q 636 772 655 845 m 581 772 q 567 858 593 822 q 490 893 541 893 q 395 858 439 893 q 338 772 351 823 q 352 686 325 722 q 429 650 378 650 q 524 686 479 650 q 581 772 568 722 z "},"":{"ha":1065,"x_min":115,"x_max":1064,"o":"m 965 28 q 957 8 965 15 q 941 1 949 2 q 920 0 933 0 l 161 0 q 145 1 151 0 q 132 3 140 1 q 119 12 123 5 q 115 28 115 18 q 119 44 115 38 q 132 52 123 50 q 145 55 140 54 q 161 56 151 56 l 518 56 l 604 399 l 260 399 q 244 399 250 399 q 230 402 238 400 q 218 410 222 404 q 214 427 214 416 q 218 443 214 437 q 230 451 222 449 q 244 454 238 453 q 260 454 250 454 l 618 454 l 708 818 q 739 852 715 852 q 759 845 751 852 q 766 825 766 838 q 761 799 766 819 l 675 454 l 1018 454 q 1034 454 1028 454 q 1048 451 1040 453 q 1060 443 1056 449 q 1064 427 1064 437 q 1060 410 1064 416 q 1048 402 1056 404 q 1034 399 1040 400 q 1018 399 1028 399 l 661 399 l 576 56 l 920 56 q 932 55 928 56 q 944 54 937 55 q 955 50 951 52 q 962 41 959 47 q 965 28 965 36 z "},"":{"ha":536,"x_min":191,"x_max":638,"o":"m 614 561 q 610 541 614 557 q 593 503 605 526 q 565 458 582 479 q 521 422 549 437 q 461 407 494 407 q 363 440 419 407 q 350 447 361 441 q 335 454 339 452 q 322 460 332 456 q 307 466 313 465 q 293 469 301 467 q 277 471 284 471 q 242 454 256 471 q 222 416 229 438 q 217 409 220 410 q 205 407 214 407 q 191 415 192 407 q 195 433 191 422 q 217 479 198 445 q 265 545 235 513 q 307 581 284 564 q 345 606 330 598 q 390 629 360 614 q 459 671 429 650 q 514 722 488 693 q 553 789 540 751 q 564 869 566 826 q 534 939 562 917 q 471 961 507 961 q 391 936 429 961 q 331 876 353 911 q 296 806 309 840 q 285 750 283 772 q 309 724 286 724 q 375 766 349 724 q 400 836 401 809 q 389 867 400 850 l 387 871 q 391 878 387 875 q 399 880 395 880 q 415 865 408 880 q 422 836 422 849 q 412 788 423 817 q 373 731 401 758 q 309 704 345 704 q 254 757 258 704 q 261 801 254 774 q 288 859 269 827 q 331 917 306 890 q 394 961 356 943 q 473 979 431 979 q 585 943 537 979 q 636 839 633 906 q 624 768 638 800 q 576 709 610 737 q 505 659 543 681 q 403 607 467 637 q 379 595 385 597 q 352 579 374 592 q 318 555 330 566 q 287 525 305 544 q 256 486 269 507 q 277 489 258 489 q 383 475 308 489 q 467 465 422 465 q 542 493 512 465 q 583 554 571 521 q 588 567 585 564 q 599 570 591 570 q 614 561 614 570 z "},"":{"ha":498,"x_min":195,"x_max":648,"o":"m 578 595 q 546 503 581 547 q 454 433 511 458 q 335 407 397 407 q 237 438 274 407 q 197 513 199 469 q 197 530 195 519 q 202 551 199 541 q 217 570 205 562 q 245 578 228 578 q 272 570 262 578 q 282 551 281 562 q 269 524 282 538 q 228 511 256 509 q 263 447 232 469 q 335 425 294 425 q 399 438 368 425 q 452 473 430 452 q 494 552 483 505 q 504 621 506 599 q 424 690 501 690 l 396 690 q 385 690 388 690 q 377 691 381 690 q 372 694 374 692 q 371 699 371 696 q 374 711 370 707 q 381 716 377 715 q 396 717 386 717 l 418 717 q 488 728 457 717 q 535 758 518 740 q 564 797 552 777 q 579 837 575 817 q 584 869 583 858 q 585 886 585 881 q 556 944 583 927 q 496 961 530 961 q 370 914 426 961 q 315 817 313 867 q 343 786 319 786 q 384 802 366 786 q 401 838 402 817 q 399 849 401 843 q 395 859 397 856 l 392 863 l 387 871 q 391 878 387 875 q 399 880 395 880 q 414 866 406 880 q 424 839 422 852 q 399 789 425 810 q 345 768 374 768 q 302 783 317 768 q 285 821 286 798 q 347 928 283 876 q 497 979 411 979 q 601 949 558 979 q 646 868 644 919 q 607 769 648 817 q 493 700 566 721 q 578 595 571 670 z "},"":{"ha":709,"x_min":456,"x_max":749,"o":"m 749 928 q 721 884 749 902 l 497 713 q 478 701 484 701 q 463 709 471 701 q 456 725 456 717 q 469 746 456 732 l 667 943 q 710 966 690 966 q 736 956 724 966 q 749 928 749 945 z "},"":{"ha":709,"x_min":32,"x_max":743,"o":"m 743 199 q 738 173 743 196 q 722 117 732 150 q 703 64 712 84 q 658 3 679 20 q 602 -16 633 -16 q 531 8 564 -16 q 489 78 498 33 q 405 6 446 28 q 317 -16 365 -16 q 193 25 240 -16 q 129 -228 130 -222 q 121 -256 124 -246 q 112 -278 118 -267 q 95 -295 105 -290 q 71 -300 85 -300 q 42 -289 52 -300 q 32 -264 32 -278 q 36 -240 32 -260 l 236 557 q 292 612 248 612 q 318 603 307 612 q 329 576 329 593 l 309 489 l 245 239 q 229 131 229 172 q 233 90 229 109 q 247 53 237 71 q 276 26 257 36 q 322 16 295 16 q 387 32 355 16 q 439 73 418 48 q 474 121 460 97 q 493 163 488 144 l 589 545 q 593 560 591 554 q 602 576 595 566 q 618 592 608 587 q 643 597 629 597 q 669 589 657 597 q 681 561 681 580 q 660 473 681 549 q 636 379 656 459 l 595 208 q 567 71 567 90 q 603 16 567 16 q 650 48 629 16 q 696 182 671 81 q 705 208 701 203 q 722 212 709 212 q 743 199 743 212 z "},"":{"ha":848,"x_min":222,"x_max":1045,"o":"m 1043 936 q 1035 920 1040 926 q 1021 911 1029 913 q 1006 909 1012 909 q 990 908 1000 908 l 921 908 l 637 -224 q 618 -263 629 -255 q 599 -269 610 -269 q 578 -254 581 -269 q 582 -224 575 -239 l 865 908 l 768 908 l 485 -224 q 478 -245 481 -239 q 467 -261 476 -252 q 446 -269 458 -269 q 425 -254 427 -269 q 429 -224 422 -239 l 566 319 q 458 335 511 321 q 358 373 406 348 q 279 437 311 399 q 235 526 248 475 q 239 643 222 578 q 324 803 260 729 q 480 920 389 877 q 667 964 571 964 l 1004 964 q 1015 964 1011 964 q 1025 963 1018 964 q 1034 960 1031 962 q 1041 955 1036 958 q 1044 947 1045 952 q 1043 936 1043 943 z "},"":{"ha":1065,"x_min":575,"x_max":726,"o":"m 726 489 q 699 429 726 457 q 636 401 671 401 q 592 418 609 401 q 575 461 575 434 q 603 522 575 495 q 665 549 631 549 q 710 531 693 549 q 726 489 726 513 z "},"":{"ha":639,"x_min":142,"x_max":467,"o":"m 467 -151 q 459 -185 467 -170 q 441 -212 452 -201 q 413 -232 431 -223 q 379 -247 395 -241 q 339 -256 363 -252 q 300 -262 316 -260 q 260 -266 283 -264 q 224 -267 236 -267 q 195 -267 213 -267 l 160 -267 q 142 -252 142 -267 q 149 -238 142 -241 q 176 -236 157 -236 l 191 -236 q 378 -150 378 -236 q 362 -116 378 -132 q 311 -98 347 -101 q 307 -98 311 -98 q 303 -97 304 -98 q 299 -96 302 -97 q 295 -94 296 -96 q 293 -91 294 -93 q 291 -87 292 -90 q 290 -81 290 -84 q 295 -60 290 -78 q 305 -20 300 -41 q 311 5 311 1 q 319 12 313 11 q 346 14 324 14 l 364 14 q 380 14 375 14 q 390 13 385 14 q 398 9 396 12 q 401 4 401 7 l 382 -75 q 445 -103 424 -83 q 467 -151 467 -123 z "},"":{"ha":521,"x_min":222,"x_max":541,"o":"m 522 440 q 521 431 523 435 q 515 427 519 428 q 509 426 511 426 q 503 425 507 425 q 436 427 481 425 q 370 428 391 428 q 304 427 349 428 q 237 425 259 425 q 222 435 224 425 q 229 448 222 446 q 250 450 235 450 l 258 450 q 316 454 297 450 q 340 464 334 458 q 350 486 346 471 l 449 880 q 339 846 394 846 q 322 857 323 846 q 323 864 322 861 q 327 868 324 867 q 331 870 329 869 q 335 871 332 871 q 338 872 337 872 q 368 876 355 873 q 406 887 380 879 q 457 916 431 896 q 510 966 484 937 q 528 979 524 979 q 541 970 538 979 q 538 958 539 961 l 418 484 q 417 476 418 483 q 416 467 416 470 q 421 456 416 458 q 444 453 427 454 q 488 450 471 450 l 496 450 q 516 449 510 450 q 522 440 522 447 z "},"":{"ha":595,"x_min":214,"x_max":721,"o":"m 718 821 q 697 716 721 768 q 635 626 674 665 q 543 563 595 587 q 436 539 490 539 q 313 583 363 539 q 258 700 262 627 q 295 834 255 769 q 401 939 335 899 q 539 979 468 979 q 665 935 616 979 q 718 821 714 890 m 623 484 q 597 468 617 468 l 233 468 q 219 473 224 468 q 215 484 214 477 q 240 497 220 497 l 606 497 q 618 493 614 497 q 623 484 623 490 m 635 859 q 607 930 633 903 q 539 958 582 958 q 466 935 504 958 q 399 869 427 912 q 357 766 374 831 q 342 661 340 700 q 371 586 345 612 q 436 561 398 561 q 517 589 477 561 q 581 659 557 616 q 621 762 605 699 q 635 859 636 824 z "},"":{"ha":780,"x_min":179,"x_max":692,"o":"m 681 326 q 422 9 525 190 q 407 0 418 0 l 404 0 q 395 5 398 0 q 395 17 392 11 q 596 336 477 191 q 554 654 548 485 q 560 666 554 661 q 572 671 566 671 l 575 671 q 586 661 583 671 q 686 345 596 486 q 681 326 692 336 m 468 326 q 210 9 312 190 q 195 0 205 0 l 192 0 q 182 5 186 0 q 182 17 179 11 q 383 336 264 191 q 342 654 336 484 q 348 666 342 661 q 359 671 353 671 l 363 671 q 374 661 372 671 q 473 345 384 485 q 468 326 479 336 z "},"":{"ha":1120,"x_min":222,"x_max":1161,"o":"m 522 440 q 519 429 523 433 q 512 426 515 426 q 504 425 509 425 q 437 427 481 425 q 370 428 392 428 q 304 427 349 428 q 239 425 260 425 q 222 435 224 425 q 229 448 222 446 q 250 450 235 450 l 258 450 q 330 457 314 450 q 351 486 346 464 l 449 880 q 339 846 394 846 q 322 857 322 846 q 323 864 322 861 q 327 868 324 867 q 331 870 329 869 q 335 871 332 871 q 338 872 337 872 q 369 876 356 873 q 407 887 382 879 q 458 916 432 896 q 510 966 485 937 q 526 979 524 979 q 541 970 541 979 q 538 958 539 961 l 418 484 q 415 467 415 475 q 421 456 416 458 q 446 453 427 454 q 488 450 467 450 l 496 450 q 522 440 522 450 m 1017 11 q 983 -5 1017 3 q 925 -12 949 -12 q 904 -11 911 -12 l 873 -134 q 838 -161 868 -161 q 808 -140 810 -161 q 809 -135 808 -140 q 812 -122 810 -130 l 842 1 l 783 21 q 710 31 749 31 q 633 18 652 31 q 602 1 606 1 q 591 7 596 1 q 586 16 586 12 q 601 34 585 24 q 624 45 616 43 q 653 65 635 52 q 712 122 670 79 q 786 212 754 165 q 921 514 874 338 q 927 536 924 529 q 938 549 930 543 q 960 555 946 555 q 979 550 970 555 q 987 533 987 545 q 981 503 985 522 q 955 426 977 484 q 904 313 934 368 q 816 186 874 258 q 685 56 758 114 l 711 56 q 789 47 750 56 q 801 43 796 45 q 850 28 806 40 q 866 95 850 31 q 885 165 883 159 q 899 195 891 189 q 922 201 907 201 q 950 179 950 201 q 947 163 951 176 l 911 14 l 928 14 q 986 22 958 14 l 1002 26 q 1012 21 1007 26 q 1017 11 1017 15 m 1158 921 q 1150 907 1156 913 l 359 12 q 332 0 347 0 q 315 8 320 0 q 311 28 309 16 q 319 43 313 37 l 1111 936 q 1137 949 1122 949 q 1155 941 1149 949 q 1158 921 1161 932 z "},"":{"ha":1120,"x_min":208,"x_max":1071,"o":"m 522 440 q 519 429 523 433 q 512 426 515 426 q 504 425 509 425 q 437 427 481 425 q 370 428 392 428 q 304 427 349 428 q 239 425 260 425 q 222 435 224 425 q 229 448 222 446 q 250 450 235 450 l 258 450 q 330 457 314 450 q 351 486 346 464 l 449 880 q 339 846 394 846 q 322 857 322 846 q 323 864 322 861 q 327 868 324 867 q 331 870 329 869 q 335 871 332 871 q 338 872 337 872 q 369 876 356 873 q 407 887 382 879 q 458 916 432 896 q 510 966 485 937 q 526 979 524 979 q 541 970 541 979 q 538 958 539 961 l 418 484 q 415 467 415 475 q 421 456 416 458 q 446 453 427 454 q 488 450 467 450 l 496 450 q 522 440 522 450 m 1047 136 q 1039 107 1047 130 q 1014 56 1030 85 q 966 4 998 26 q 895 -18 934 -18 q 796 16 854 -18 q 787 20 795 16 q 778 25 780 24 q 769 30 776 26 q 759 34 762 33 q 749 38 755 35 q 739 41 743 40 q 729 44 734 42 q 719 46 724 45 q 708 46 713 46 q 656 -7 672 46 q 651 -16 654 -14 q 639 -18 648 -18 q 623 -9 624 -18 q 627 9 624 -3 q 650 54 631 20 q 699 119 669 88 q 719 139 708 130 q 738 155 730 149 q 759 170 745 161 q 779 182 773 178 q 801 194 785 185 q 822 205 818 203 q 891 247 861 225 q 947 297 921 269 q 985 363 972 326 q 996 444 998 401 q 967 514 994 492 q 904 536 940 536 q 824 511 861 536 q 764 451 786 486 q 729 382 742 416 q 718 326 717 348 q 742 298 720 298 q 808 341 781 298 q 833 411 835 385 q 822 441 833 421 l 821 447 q 823 453 820 450 q 831 456 827 456 q 847 440 840 456 q 854 411 854 424 q 849 377 856 398 q 829 335 842 357 q 793 297 817 313 q 742 281 770 281 q 700 297 711 281 q 688 332 688 313 q 695 376 687 349 q 721 434 703 403 q 764 492 739 465 q 826 537 789 519 q 905 555 863 555 q 1017 518 969 555 q 1069 414 1065 481 q 1060 355 1071 382 q 1033 308 1050 328 q 983 264 1017 287 q 919 224 950 241 q 836 182 888 208 q 688 61 736 138 q 710 64 690 64 q 817 50 742 64 q 899 40 880 40 q 974 68 944 40 q 1015 131 1003 97 q 1020 142 1017 140 q 1032 144 1023 144 q 1047 136 1046 144 m 1057 921 q 1050 907 1057 918 l 258 12 q 232 0 246 0 q 214 8 220 0 q 211 28 208 16 q 220 43 213 36 l 1010 936 q 1036 949 1021 949 q 1055 941 1048 949 q 1057 921 1061 933 z "},"":{"ha":1120,"x_min":260,"x_max":1161,"o":"m 642 595 q 569 464 644 521 q 399 407 494 407 q 300 438 338 407 q 260 513 262 469 q 310 578 260 578 q 336 570 327 578 q 346 551 346 562 q 333 523 346 537 q 292 511 321 509 q 327 447 296 469 q 399 425 357 425 q 463 438 431 425 q 514 473 494 452 q 550 531 536 496 q 566 587 564 567 q 568 621 568 607 q 488 690 566 690 l 460 690 q 448 690 452 690 q 440 691 444 690 q 436 694 437 692 q 435 699 435 696 q 439 714 434 711 q 460 717 444 717 l 482 717 q 637 821 602 717 q 650 886 646 843 q 632 932 648 914 q 599 955 617 949 q 559 961 581 961 q 433 915 488 961 q 379 817 377 868 q 407 786 382 786 q 448 802 429 786 q 465 838 466 817 q 462 849 465 843 q 458 859 460 856 l 456 863 q 453 867 454 865 q 452 871 452 870 q 455 878 452 875 q 463 880 458 880 q 479 866 471 880 q 488 839 486 852 q 464 789 490 810 q 407 768 437 768 q 366 783 381 768 q 349 821 351 798 q 411 928 347 876 q 561 979 475 979 q 665 949 622 979 q 710 868 707 920 q 671 769 712 817 q 555 700 629 721 q 642 595 635 670 m 1017 11 q 983 -5 1017 3 q 925 -12 949 -12 q 904 -11 911 -12 l 873 -134 q 838 -161 868 -161 q 808 -140 810 -161 q 809 -135 808 -140 q 812 -122 810 -130 l 842 1 l 783 21 q 710 31 749 31 q 633 18 652 31 q 602 1 606 1 q 591 7 596 1 q 586 16 586 12 q 601 34 585 24 q 624 45 616 43 q 653 65 635 52 q 712 122 670 79 q 786 212 754 165 q 921 514 874 338 q 927 536 924 529 q 938 549 930 543 q 960 555 946 555 q 979 550 970 555 q 987 533 987 545 q 981 503 985 522 q 955 426 977 484 q 904 313 934 368 q 816 186 874 258 q 685 56 758 114 l 711 56 q 789 47 750 56 q 801 43 796 45 q 850 28 806 40 q 866 95 850 31 q 885 165 883 159 q 899 195 891 189 q 922 201 907 201 q 950 179 950 201 q 947 163 951 176 l 911 14 l 928 14 q 986 22 958 14 l 1002 26 q 1012 21 1007 26 q 1017 11 1017 15 m 1158 921 q 1150 907 1156 913 l 359 12 q 332 0 347 0 q 315 8 320 0 q 311 28 309 16 q 319 43 313 37 l 1111 936 q 1137 949 1122 949 q 1155 941 1149 949 q 1158 921 1161 932 z "},"":{"ha":709,"x_min":118,"x_max":614,"o":"m 614 52 q 601 -8 614 32 q 559 -98 587 -47 q 493 -193 530 -149 q 400 -269 455 -238 q 285 -300 345 -300 q 164 -251 210 -300 q 118 -127 118 -203 q 125 -66 118 -96 q 145 -12 132 -37 q 172 32 159 13 q 206 71 185 51 q 239 101 227 91 q 271 126 251 111 l 379 214 q 426 251 412 239 q 457 277 439 262 q 479 303 474 293 q 489 327 485 314 q 493 357 493 340 q 485 390 493 376 q 458 404 476 404 q 395 377 427 404 q 349 310 363 351 q 341 292 345 296 q 325 289 337 289 q 304 302 304 289 q 316 337 304 315 q 347 380 328 358 q 396 419 366 403 q 458 435 426 435 q 520 406 499 435 q 542 338 542 376 q 534 289 542 313 q 519 251 526 265 q 493 218 511 237 q 470 194 475 199 q 446 174 465 189 l 278 41 q 242 11 255 22 q 209 -27 230 -1 q 177 -82 188 -52 q 167 -147 167 -113 q 201 -237 167 -205 q 285 -269 235 -269 q 440 -198 368 -269 q 551 -17 512 -126 q 511 -3 524 -17 q 498 28 498 10 q 519 75 498 55 q 567 96 540 96 q 599 85 585 96 q 614 52 614 75 m 586 635 q 558 574 586 600 q 497 547 530 547 q 451 566 468 547 q 435 607 435 584 q 462 667 435 640 q 525 694 490 694 q 568 677 551 694 q 586 635 586 661 z "},"":{"ha":1031,"x_min":82,"x_max":961,"o":"m 961 25 q 956 7 961 14 q 946 1 951 1 q 936 0 942 0 q 863 2 912 0 q 790 4 814 4 q 710 2 764 4 q 631 0 656 0 q 610 17 610 0 q 615 35 610 29 q 626 42 621 41 q 642 43 631 43 q 710 55 686 43 q 734 87 734 66 l 720 318 l 403 318 l 302 143 q 283 90 283 106 q 285 77 283 83 q 290 67 287 71 q 297 59 293 63 q 305 53 300 56 q 314 49 310 51 q 323 46 318 47 q 331 44 328 45 q 338 43 334 44 l 342 43 q 346 42 343 43 q 350 42 349 42 q 354 41 351 41 q 357 40 356 41 q 360 38 358 39 q 362 35 361 37 q 363 32 363 34 q 364 26 364 29 q 339 0 364 0 q 275 2 319 0 q 210 4 231 4 q 153 2 191 4 q 98 0 115 0 q 82 17 82 0 q 98 43 83 41 q 138 47 123 44 q 177 61 153 50 q 223 95 201 71 q 267 157 245 119 l 728 970 q 741 989 734 983 q 764 994 748 994 q 784 989 780 994 q 789 960 787 983 l 848 90 q 864 52 850 61 q 928 43 877 43 q 947 42 942 43 q 957 38 952 42 q 961 25 961 34 m 717 361 l 685 815 l 427 361 l 717 361 m 878 1064 q 864 1047 874 1056 q 846 1038 854 1038 q 829 1044 840 1036 l 643 1174 q 628 1213 621 1190 q 652 1245 634 1232 q 690 1258 670 1258 q 721 1243 706 1258 l 869 1082 q 878 1064 878 1072 z "},"":{"ha":1031,"x_min":82,"x_max":1013,"o":"m 961 25 q 956 7 961 14 q 946 1 951 1 q 936 0 942 0 q 863 2 912 0 q 790 4 814 4 q 710 2 764 4 q 631 0 656 0 q 610 17 610 0 q 615 35 610 29 q 626 42 621 41 q 642 43 631 43 q 710 55 686 43 q 734 87 734 66 l 720 318 l 403 318 l 302 143 q 283 90 283 106 q 285 77 283 83 q 290 67 287 71 q 297 59 293 63 q 305 53 300 56 q 314 49 310 51 q 323 46 318 47 q 331 44 328 45 q 338 43 334 44 l 342 43 q 346 42 343 43 q 350 42 349 42 q 354 41 351 41 q 357 40 356 41 q 360 38 358 39 q 362 35 361 37 q 363 32 363 34 q 364 26 364 29 q 339 0 364 0 q 275 2 319 0 q 210 4 231 4 q 153 2 191 4 q 98 0 115 0 q 82 17 82 0 q 98 43 83 41 q 138 47 123 44 q 177 61 153 50 q 223 95 201 71 q 267 157 245 119 l 728 970 q 741 989 734 983 q 764 994 748 994 q 784 989 780 994 q 789 960 787 983 l 848 90 q 864 52 850 61 q 928 43 877 43 q 947 42 942 43 q 957 38 952 42 q 961 25 961 34 m 717 361 l 685 815 l 427 361 l 717 361 m 1010 1213 q 975 1174 1006 1189 l 725 1044 q 704 1038 710 1036 q 691 1047 697 1039 q 686 1064 685 1056 q 703 1082 689 1072 l 932 1243 q 971 1258 954 1258 q 1002 1245 991 1258 q 1010 1213 1013 1232 z "},"":{"ha":1031,"x_min":82,"x_max":975,"o":"m 961 25 q 956 7 961 14 q 946 1 951 1 q 936 0 942 0 q 863 2 912 0 q 790 4 814 4 q 710 2 764 4 q 631 0 656 0 q 610 17 610 0 q 615 35 610 29 q 626 42 621 41 q 642 43 631 43 q 710 55 686 43 q 734 87 734 66 l 720 318 l 403 318 l 302 143 q 283 90 283 106 q 285 77 283 83 q 290 67 287 71 q 297 59 293 63 q 305 53 300 56 q 314 49 310 51 q 323 46 318 47 q 331 44 328 45 q 338 43 334 44 l 342 43 q 346 42 343 43 q 350 42 349 42 q 354 41 351 41 q 357 40 356 41 q 360 38 358 39 q 362 35 361 37 q 363 32 363 34 q 364 26 364 29 q 339 0 364 0 q 275 2 319 0 q 210 4 231 4 q 153 2 191 4 q 98 0 115 0 q 82 17 82 0 q 98 43 83 41 q 138 47 123 44 q 177 61 153 50 q 223 95 201 71 q 267 157 245 119 l 728 970 q 741 989 734 983 q 764 994 748 994 q 784 989 780 994 q 789 960 787 983 l 848 90 q 864 52 850 61 q 928 43 877 43 q 947 42 942 43 q 957 38 952 42 q 961 25 961 34 m 717 361 l 685 815 l 427 361 l 717 361 m 966 1048 q 965 1030 975 1041 q 946 1023 956 1019 l 790 1100 l 596 1023 q 582 1024 587 1020 q 578 1036 576 1029 q 587 1048 579 1044 l 803 1185 q 819 1185 812 1190 l 966 1048 z "},"":{"ha":1031,"x_min":82,"x_max":1014,"o":"m 961 25 q 956 7 961 14 q 946 1 951 1 q 936 0 942 0 q 863 2 912 0 q 790 4 814 4 q 710 2 764 4 q 631 0 656 0 q 610 17 610 0 q 615 35 610 29 q 626 42 621 41 q 642 43 631 43 q 710 55 686 43 q 734 87 734 66 l 720 318 l 403 318 l 302 143 q 283 90 283 106 q 285 77 283 83 q 290 67 287 71 q 297 59 293 63 q 305 53 300 56 q 314 49 310 51 q 323 46 318 47 q 331 44 328 45 q 338 43 334 44 l 342 43 q 346 42 343 43 q 350 42 349 42 q 354 41 351 41 q 357 40 356 41 q 360 38 358 39 q 362 35 361 37 q 363 32 363 34 q 364 26 364 29 q 339 0 364 0 q 275 2 319 0 q 210 4 231 4 q 153 2 191 4 q 98 0 115 0 q 82 17 82 0 q 98 43 83 41 q 138 47 123 44 q 177 61 153 50 q 223 95 201 71 q 267 157 245 119 l 728 970 q 741 989 734 983 q 764 994 748 994 q 784 989 780 994 q 789 960 787 983 l 848 90 q 864 52 850 61 q 928 43 877 43 q 947 42 942 43 q 957 38 952 42 q 961 25 961 34 m 717 361 l 685 815 l 427 361 l 717 361 m 1014 1147 q 983 1110 1014 1140 q 909 1051 953 1080 q 836 1022 865 1022 q 804 1031 819 1022 q 783 1050 789 1041 q 765 1076 776 1059 q 745 1104 754 1095 q 721 1114 735 1114 q 672 1094 703 1114 q 619 1054 641 1074 l 597 1034 q 579 1023 585 1023 q 564 1038 564 1023 q 582 1063 564 1044 q 619 1097 601 1082 l 637 1112 q 741 1162 703 1162 q 772 1154 758 1162 q 794 1134 787 1145 q 815 1103 802 1124 q 856 1071 833 1071 q 927 1105 882 1071 q 981 1152 971 1139 q 999 1161 990 1161 q 1009 1157 1005 1161 q 1014 1147 1014 1154 z "},"":{"ha":1031,"x_min":82,"x_max":1002,"o":"m 961 25 q 956 7 961 14 q 946 1 951 1 q 936 0 942 0 q 863 2 912 0 q 790 4 814 4 q 710 2 764 4 q 631 0 656 0 q 610 17 610 0 q 615 35 610 29 q 626 42 621 41 q 642 43 631 43 q 710 55 686 43 q 734 87 734 66 l 720 318 l 403 318 l 302 143 q 283 90 283 106 q 285 77 283 83 q 290 67 287 71 q 297 59 293 63 q 305 53 300 56 q 314 49 310 51 q 323 46 318 47 q 331 44 328 45 q 338 43 334 44 l 342 43 q 346 42 343 43 q 350 42 349 42 q 354 41 351 41 q 357 40 356 41 q 360 38 358 39 q 362 35 361 37 q 363 32 363 34 q 364 26 364 29 q 339 0 364 0 q 275 2 319 0 q 210 4 231 4 q 153 2 191 4 q 98 0 115 0 q 82 17 82 0 q 98 43 83 41 q 138 47 123 44 q 177 61 153 50 q 223 95 201 71 q 267 157 245 119 l 728 970 q 741 989 734 983 q 764 994 748 994 q 784 989 780 994 q 789 960 787 983 l 848 90 q 864 52 850 61 q 928 43 877 43 q 947 42 942 43 q 957 38 952 42 q 961 25 961 34 m 717 361 l 685 815 l 427 361 l 717 361 m 711 1101 q 686 1047 711 1072 q 632 1022 661 1022 q 590 1038 606 1022 q 575 1076 575 1054 q 601 1131 575 1106 q 656 1156 626 1156 q 697 1139 682 1156 q 711 1101 711 1123 m 1002 1101 q 977 1047 1002 1072 q 922 1022 951 1022 q 881 1038 896 1022 q 865 1076 865 1054 q 891 1131 865 1106 q 946 1156 916 1156 q 987 1139 972 1156 q 1002 1101 1002 1123 z "},"":{"ha":1031,"x_min":82,"x_max":961,"o":"m 961 25 q 956 7 961 14 q 946 1 951 1 q 936 0 942 0 q 863 2 912 0 q 790 4 814 4 q 710 2 764 4 q 631 0 656 0 q 610 17 610 0 q 615 35 610 29 q 626 42 621 41 q 642 43 631 43 q 710 55 686 43 q 734 87 734 66 l 720 318 l 403 318 l 302 143 q 283 90 283 106 q 285 77 283 83 q 290 67 287 71 q 297 59 293 63 q 305 53 300 56 q 314 49 310 51 q 323 46 318 47 q 331 44 328 45 q 338 43 334 44 l 342 43 q 346 42 343 43 q 350 42 349 42 q 354 41 351 41 q 357 40 356 41 q 360 38 358 39 q 362 35 361 37 q 363 32 363 34 q 364 26 364 29 q 339 0 364 0 q 275 2 319 0 q 210 4 231 4 q 153 2 191 4 q 98 0 115 0 q 82 17 82 0 q 98 43 83 41 q 138 47 123 44 q 177 61 153 50 q 223 95 201 71 q 267 157 245 119 l 728 970 q 741 989 734 983 q 764 994 748 994 q 784 989 780 994 q 789 960 787 983 l 848 90 q 864 52 850 61 q 928 43 877 43 q 947 42 942 43 q 957 38 952 42 q 961 25 961 34 m 717 361 l 685 815 l 427 361 l 717 361 m 876 1147 q 815 1197 876 1197 q 767 1185 787 1197 q 737 1157 746 1174 q 722 1124 728 1141 q 716 1096 717 1107 l 715 1084 q 777 1036 715 1036 q 825 1048 804 1036 q 854 1076 845 1059 q 869 1108 864 1092 q 876 1136 875 1124 l 876 1147 m 929 1146 q 878 1041 929 1088 q 765 994 827 994 q 693 1019 724 994 q 663 1089 663 1044 q 713 1194 663 1148 q 825 1239 764 1239 q 902 1211 876 1239 q 929 1146 929 1182 z "},"":{"ha":1226,"x_min":82,"x_max":1320,"o":"m 1239 343 q 1234 326 1235 329 l 1109 22 q 1097 3 1102 6 q 1071 0 1091 0 l 510 0 q 490 1 496 0 q 479 5 484 1 q 475 17 475 9 q 477 32 475 26 q 486 40 479 38 q 495 42 492 42 q 507 43 499 43 q 558 48 542 43 q 581 62 574 53 q 593 96 587 72 l 677 435 l 475 435 l 302 139 q 285 89 285 107 q 302 55 285 65 q 342 43 320 44 q 346 42 343 43 q 350 42 349 42 q 354 41 351 41 q 357 40 356 41 q 360 38 358 39 q 362 35 361 37 q 363 32 363 34 q 364 26 364 29 q 359 8 364 14 q 350 1 354 1 q 339 0 345 0 q 275 2 319 0 q 210 4 231 4 q 153 2 191 4 q 98 0 115 0 q 82 18 82 0 q 86 35 82 29 q 95 41 91 40 q 110 43 100 42 q 195 71 159 47 q 268 157 231 94 l 701 904 q 661 905 690 905 l 633 905 q 613 906 619 905 q 603 910 608 907 q 597 922 597 914 q 603 941 597 935 q 615 948 608 947 q 636 949 621 949 l 1283 949 q 1313 944 1306 949 q 1317 914 1320 939 l 1284 668 q 1279 642 1282 648 q 1261 636 1275 636 q 1239 653 1239 636 l 1242 671 l 1250 766 q 1208 880 1257 850 q 1082 905 1171 905 l 957 905 q 909 899 920 905 q 889 856 898 892 l 796 478 l 901 478 q 1012 505 982 478 q 1061 611 1042 532 q 1071 635 1067 631 q 1088 640 1075 640 q 1108 625 1108 640 q 1105 607 1108 615 l 1029 300 q 1020 277 1025 281 q 1003 272 1015 272 q 982 289 982 272 q 985 302 982 293 q 997 378 997 363 q 991 409 997 398 q 963 427 985 420 q 899 435 941 435 l 785 435 l 697 87 q 694 74 697 87 q 692 57 692 62 q 693 48 692 51 q 705 44 695 46 q 734 43 714 43 l 861 43 q 949 50 911 43 q 1017 73 987 56 q 1068 109 1047 90 q 1111 162 1090 128 q 1145 227 1131 197 q 1181 307 1160 257 q 1203 354 1198 351 q 1218 358 1207 358 q 1239 343 1239 358 m 782 850 q 785 873 785 858 q 746 901 785 901 l 500 478 l 688 478 l 782 850 z "},"":{"ha":994,"x_min":208,"x_max":1128,"o":"m 1125 946 l 1040 608 q 1032 587 1036 591 q 1015 583 1027 583 q 994 597 994 583 q 996 612 994 598 q 1000 646 998 626 q 1002 682 1002 667 q 991 773 1002 730 q 959 854 981 817 q 897 913 937 891 q 804 936 857 936 q 632 886 720 936 q 475 745 543 837 q 365 509 401 643 q 329 288 329 374 q 350 162 329 216 q 405 75 370 107 q 481 28 440 43 q 568 12 523 12 q 643 23 604 12 q 724 59 682 34 q 804 121 766 84 q 874 213 842 157 q 928 336 907 269 q 950 347 932 347 q 971 334 971 347 q 954 270 971 312 q 900 177 937 229 q 815 79 863 125 q 696 1 766 33 q 549 -31 625 -31 l 534 -31 l 524 -75 q 587 -103 566 -83 q 608 -151 608 -123 q 601 -185 608 -170 q 583 -212 594 -201 q 554 -232 572 -223 q 520 -247 536 -241 q 481 -256 505 -252 q 441 -262 458 -260 q 401 -266 425 -264 q 366 -267 378 -267 q 336 -267 355 -267 l 301 -267 q 283 -252 283 -267 q 291 -238 283 -241 q 318 -236 298 -236 l 332 -236 q 519 -150 519 -236 q 504 -116 519 -132 q 453 -98 489 -101 q 449 -98 452 -98 q 445 -97 446 -98 q 441 -96 444 -97 q 437 -94 438 -96 q 435 -91 436 -93 q 433 -87 433 -90 q 432 -81 432 -84 q 434 -68 432 -79 q 441 -43 437 -58 q 447 -17 445 -27 q 274 110 339 15 q 208 340 208 204 q 260 577 208 460 q 393 783 311 695 q 581 925 475 870 q 793 979 688 979 q 1003 861 929 979 l 1090 964 q 1101 975 1096 970 q 1109 979 1107 979 l 1112 979 q 1122 976 1118 979 q 1127 968 1126 972 l 1128 965 q 1125 946 1128 957 z "},"":{"ha":941,"x_min":86,"x_max":1034,"o":"m 954 343 q 949 326 950 329 l 825 22 q 812 3 818 7 q 786 0 807 0 l 121 0 q 101 1 107 0 q 91 5 96 1 q 86 17 86 9 q 92 35 86 29 q 103 42 97 41 q 123 43 109 43 q 193 48 171 43 q 223 64 215 54 q 237 102 231 75 l 424 846 l 429 878 q 427 890 429 886 q 405 898 424 894 q 349 901 387 901 q 318 904 326 901 q 311 920 311 907 q 316 937 311 932 q 328 944 321 943 q 349 945 334 945 l 997 945 q 1027 939 1021 945 q 1031 908 1034 933 l 999 663 q 993 637 997 643 q 975 632 989 632 q 954 648 954 632 q 957 672 954 659 q 964 761 964 728 q 926 870 964 838 q 779 901 888 901 l 606 901 q 558 895 569 901 q 539 854 547 888 l 454 513 l 567 513 q 680 539 649 513 q 732 642 711 565 q 744 672 739 669 q 758 675 748 675 q 781 659 781 675 q 777 640 778 644 l 700 335 q 691 312 696 317 q 675 307 687 307 q 653 323 653 307 l 656 339 q 668 410 668 384 q 662 442 668 431 q 632 461 656 454 q 564 469 609 469 l 443 469 l 347 87 q 345 74 347 87 q 342 57 342 62 q 343 48 342 51 q 355 44 345 46 q 385 43 364 43 l 554 43 q 629 46 595 43 q 691 60 663 50 q 741 81 719 70 q 782 112 762 92 q 816 151 802 132 q 846 200 830 169 q 874 257 863 231 q 904 325 886 283 q 917 353 913 349 q 933 358 922 358 q 954 343 954 358 m 833 1064 q 820 1047 830 1056 q 802 1038 810 1038 q 785 1044 795 1036 l 599 1174 q 583 1213 576 1190 q 607 1245 589 1232 q 646 1258 625 1258 q 676 1243 661 1258 l 825 1082 q 833 1064 833 1072 z "},"":{"ha":941,"x_min":86,"x_max":1034,"o":"m 954 343 q 949 326 950 329 l 825 22 q 812 3 818 7 q 786 0 807 0 l 121 0 q 101 1 107 0 q 91 5 96 1 q 86 17 86 9 q 92 35 86 29 q 103 42 97 41 q 123 43 109 43 q 193 48 171 43 q 223 64 215 54 q 237 102 231 75 l 424 846 l 429 878 q 427 890 429 886 q 405 898 424 894 q 349 901 387 901 q 318 904 326 901 q 311 920 311 907 q 316 937 311 932 q 328 944 321 943 q 349 945 334 945 l 997 945 q 1027 939 1021 945 q 1031 908 1034 933 l 999 663 q 993 637 997 643 q 975 632 989 632 q 954 648 954 632 q 957 672 954 659 q 964 761 964 728 q 926 870 964 838 q 779 901 888 901 l 606 901 q 558 895 569 901 q 539 854 547 888 l 454 513 l 567 513 q 680 539 649 513 q 732 642 711 565 q 744 672 739 669 q 758 675 748 675 q 781 659 781 675 q 777 640 778 644 l 700 335 q 691 312 696 317 q 675 307 687 307 q 653 323 653 307 l 656 339 q 668 410 668 384 q 662 442 668 431 q 632 461 656 454 q 564 469 609 469 l 443 469 l 347 87 q 345 74 347 87 q 342 57 342 62 q 343 48 342 51 q 355 44 345 46 q 385 43 364 43 l 554 43 q 629 46 595 43 q 691 60 663 50 q 741 81 719 70 q 782 112 762 92 q 816 151 802 132 q 846 200 830 169 q 874 257 863 231 q 904 325 886 283 q 917 353 913 349 q 933 358 922 358 q 954 343 954 358 m 965 1213 q 930 1174 961 1189 l 681 1044 q 660 1038 666 1036 q 647 1047 652 1039 q 642 1064 641 1056 q 659 1082 644 1072 l 888 1243 q 926 1258 910 1258 q 957 1245 946 1258 q 965 1213 968 1232 z "},"":{"ha":941,"x_min":86,"x_max":1034,"o":"m 954 343 q 949 326 950 329 l 825 22 q 812 3 818 7 q 786 0 807 0 l 121 0 q 101 1 107 0 q 91 5 96 1 q 86 17 86 9 q 92 35 86 29 q 103 42 97 41 q 123 43 109 43 q 193 48 171 43 q 223 64 215 54 q 237 102 231 75 l 424 846 l 429 878 q 427 890 429 886 q 405 898 424 894 q 349 901 387 901 q 318 904 326 901 q 311 920 311 907 q 316 937 311 932 q 328 944 321 943 q 349 945 334 945 l 997 945 q 1027 939 1021 945 q 1031 908 1034 933 l 999 663 q 993 637 997 643 q 975 632 989 632 q 954 648 954 632 q 957 672 954 659 q 964 761 964 728 q 926 870 964 838 q 779 901 888 901 l 606 901 q 558 895 569 901 q 539 854 547 888 l 454 513 l 567 513 q 680 539 649 513 q 732 642 711 565 q 744 672 739 669 q 758 675 748 675 q 781 659 781 675 q 777 640 778 644 l 700 335 q 691 312 696 317 q 675 307 687 307 q 653 323 653 307 l 656 339 q 668 410 668 384 q 662 442 668 431 q 632 461 656 454 q 564 469 609 469 l 443 469 l 347 87 q 345 74 347 87 q 342 57 342 62 q 343 48 342 51 q 355 44 345 46 q 385 43 364 43 l 554 43 q 629 46 595 43 q 691 60 663 50 q 741 81 719 70 q 782 112 762 92 q 816 151 802 132 q 846 200 830 169 q 874 257 863 231 q 904 325 886 283 q 917 353 913 349 q 933 358 922 358 q 954 343 954 358 m 922 1048 q 921 1030 930 1041 q 901 1023 911 1019 l 746 1100 l 551 1023 q 537 1024 543 1020 q 534 1036 532 1029 q 543 1048 535 1044 l 758 1185 q 775 1185 768 1190 l 922 1048 z "},"":{"ha":941,"x_min":86,"x_max":1034,"o":"m 954 343 q 949 326 950 329 l 825 22 q 812 3 818 7 q 786 0 807 0 l 121 0 q 101 1 107 0 q 91 5 96 1 q 86 17 86 9 q 92 35 86 29 q 103 42 97 41 q 123 43 109 43 q 193 48 171 43 q 223 64 215 54 q 237 102 231 75 l 424 846 l 429 878 q 427 890 429 886 q 405 898 424 894 q 349 901 387 901 q 318 904 326 901 q 311 920 311 907 q 316 937 311 932 q 328 944 321 943 q 349 945 334 945 l 997 945 q 1027 939 1021 945 q 1031 908 1034 933 l 999 663 q 993 637 997 643 q 975 632 989 632 q 954 648 954 632 q 957 672 954 659 q 964 761 964 728 q 926 870 964 838 q 779 901 888 901 l 606 901 q 558 895 569 901 q 539 854 547 888 l 454 513 l 567 513 q 680 539 649 513 q 732 642 711 565 q 744 672 739 669 q 758 675 748 675 q 781 659 781 675 q 777 640 778 644 l 700 335 q 691 312 696 317 q 675 307 687 307 q 653 323 653 307 l 656 339 q 668 410 668 384 q 662 442 668 431 q 632 461 656 454 q 564 469 609 469 l 443 469 l 347 87 q 345 74 347 87 q 342 57 342 62 q 343 48 342 51 q 355 44 345 46 q 385 43 364 43 l 554 43 q 629 46 595 43 q 691 60 663 50 q 741 81 719 70 q 782 112 762 92 q 816 151 802 132 q 846 200 830 169 q 874 257 863 231 q 904 325 886 283 q 917 353 913 349 q 933 358 922 358 q 954 343 954 358 m 667 1101 q 642 1047 667 1072 q 587 1022 616 1022 q 546 1038 561 1022 q 530 1076 530 1054 q 556 1131 530 1106 q 611 1156 581 1156 q 652 1139 637 1156 q 667 1101 667 1123 m 957 1101 q 932 1047 957 1072 q 878 1022 907 1022 q 836 1038 851 1022 q 821 1076 821 1054 q 846 1131 821 1106 q 901 1156 871 1156 q 942 1139 928 1156 q 957 1101 957 1123 z "},"":{"ha":536,"x_min":79,"x_max":696,"o":"m 469 26 q 441 0 469 0 q 356 2 414 0 q 269 4 298 4 q 183 2 241 4 q 98 0 126 0 q 79 18 79 0 q 87 39 79 36 q 121 43 96 43 q 209 53 189 43 q 237 100 229 64 l 427 856 q 431 882 431 868 q 428 892 431 888 q 418 898 425 896 q 405 902 411 901 q 387 905 399 904 q 367 905 374 905 q 343 905 359 905 q 313 908 320 905 q 306 924 306 911 q 332 949 306 949 q 418 947 360 949 q 505 945 477 945 q 591 947 534 945 q 676 949 648 949 q 696 932 696 949 q 690 913 696 919 q 678 906 685 907 q 653 905 671 905 q 583 900 605 905 q 552 884 560 895 q 538 848 544 873 l 350 98 l 345 68 q 348 54 345 58 q 370 46 351 50 q 431 43 389 43 q 449 42 444 43 q 460 41 454 42 q 468 36 466 39 q 469 26 469 33 m 629 1064 q 616 1047 626 1056 q 597 1038 606 1038 q 581 1044 591 1036 l 395 1174 q 379 1213 372 1190 q 403 1245 385 1232 q 441 1258 421 1258 q 472 1243 457 1258 l 621 1082 q 629 1064 629 1072 z "},"":{"ha":536,"x_min":79,"x_max":764,"o":"m 469 26 q 441 0 469 0 q 356 2 414 0 q 269 4 298 4 q 183 2 241 4 q 98 0 126 0 q 79 18 79 0 q 87 39 79 36 q 121 43 96 43 q 209 53 189 43 q 237 100 229 64 l 427 856 q 431 882 431 868 q 428 892 431 888 q 418 898 425 896 q 405 902 411 901 q 387 905 399 904 q 367 905 374 905 q 343 905 359 905 q 313 908 320 905 q 306 924 306 911 q 332 949 306 949 q 418 947 360 949 q 505 945 477 945 q 591 947 534 945 q 676 949 648 949 q 696 932 696 949 q 690 913 696 919 q 678 906 685 907 q 653 905 671 905 q 583 900 605 905 q 552 884 560 895 q 538 848 544 873 l 350 98 l 345 68 q 348 54 345 58 q 370 46 351 50 q 431 43 389 43 q 449 42 444 43 q 460 41 454 42 q 468 36 466 39 q 469 26 469 33 m 761 1213 q 726 1174 757 1189 l 476 1044 q 456 1038 462 1036 q 443 1047 448 1039 q 437 1064 437 1056 q 454 1082 440 1072 l 684 1243 q 722 1258 706 1258 q 753 1245 742 1258 q 761 1213 764 1232 z "},"":{"ha":536,"x_min":79,"x_max":726,"o":"m 469 26 q 441 0 469 0 q 356 2 414 0 q 269 4 298 4 q 183 2 241 4 q 98 0 126 0 q 79 18 79 0 q 87 39 79 36 q 121 43 96 43 q 209 53 189 43 q 237 100 229 64 l 427 856 q 431 882 431 868 q 428 892 431 888 q 418 898 425 896 q 405 902 411 901 q 387 905 399 904 q 367 905 374 905 q 343 905 359 905 q 313 908 320 905 q 306 924 306 911 q 332 949 306 949 q 418 947 360 949 q 505 945 477 945 q 591 947 534 945 q 676 949 648 949 q 696 932 696 949 q 690 913 696 919 q 678 906 685 907 q 653 905 671 905 q 583 900 605 905 q 552 884 560 895 q 538 848 544 873 l 350 98 l 345 68 q 348 54 345 58 q 370 46 351 50 q 431 43 389 43 q 449 42 444 43 q 460 41 454 42 q 468 36 466 39 q 469 26 469 33 m 718 1048 q 717 1030 726 1041 q 697 1023 707 1019 l 542 1100 l 347 1023 q 333 1024 338 1020 q 330 1036 328 1029 q 339 1048 331 1044 l 554 1185 q 571 1185 564 1190 l 718 1048 z "},"":{"ha":536,"x_min":79,"x_max":753,"o":"m 469 26 q 441 0 469 0 q 356 2 414 0 q 269 4 298 4 q 183 2 241 4 q 98 0 126 0 q 79 18 79 0 q 87 39 79 36 q 121 43 96 43 q 209 53 189 43 q 237 100 229 64 l 427 856 q 431 882 431 868 q 428 892 431 888 q 418 898 425 896 q 405 902 411 901 q 387 905 399 904 q 367 905 374 905 q 343 905 359 905 q 313 908 320 905 q 306 924 306 911 q 332 949 306 949 q 418 947 360 949 q 505 945 477 945 q 591 947 534 945 q 676 949 648 949 q 696 932 696 949 q 690 913 696 919 q 678 906 685 907 q 653 905 671 905 q 583 900 605 905 q 552 884 560 895 q 538 848 544 873 l 350 98 l 345 68 q 348 54 345 58 q 370 46 351 50 q 431 43 389 43 q 449 42 444 43 q 460 41 454 42 q 468 36 466 39 q 469 26 469 33 m 463 1101 q 437 1047 463 1072 q 383 1022 412 1022 q 341 1038 357 1022 q 326 1076 326 1054 q 352 1131 326 1106 q 407 1156 377 1156 q 448 1139 433 1156 q 463 1101 463 1123 m 753 1101 q 728 1047 753 1072 q 673 1022 703 1022 q 632 1038 647 1022 q 616 1076 616 1054 q 642 1131 616 1106 q 697 1156 667 1156 q 738 1139 724 1156 q 753 1101 753 1123 z "},"":{"ha":1048,"x_min":87,"x_max":1076,"o":"m 1076 608 q 1047 426 1076 517 q 966 259 1017 334 q 848 124 914 183 q 704 33 782 66 q 549 0 626 0 l 122 0 q 103 1 109 0 q 92 5 97 1 q 87 17 87 9 q 93 35 87 29 q 104 42 98 41 q 125 43 111 43 q 194 48 172 43 q 224 64 216 54 q 239 102 233 75 l 326 454 l 196 454 q 182 460 187 454 q 180 475 178 466 q 190 489 182 483 q 205 496 197 496 l 338 496 l 427 856 q 432 882 432 876 q 412 901 432 897 q 351 905 393 905 q 329 906 336 905 q 318 910 323 907 q 314 922 314 914 q 319 941 314 935 q 331 948 325 947 q 351 949 337 949 l 785 949 q 997 854 918 949 q 1076 608 1076 759 m 961 661 q 949 756 961 714 q 916 826 937 798 q 866 871 895 853 q 806 898 837 890 q 739 905 774 905 l 604 905 q 556 898 568 905 q 536 856 545 891 l 446 496 l 648 496 q 661 489 656 496 q 664 475 666 483 q 654 460 662 466 q 637 454 646 454 l 436 454 l 345 87 q 342 74 345 87 q 339 57 339 62 q 341 48 339 51 q 352 44 342 46 q 382 43 361 43 l 525 43 q 677 80 605 43 q 803 180 749 118 q 877 301 844 229 q 927 444 909 374 q 952 570 944 513 q 961 661 961 626 z "},"":{"ha":1031,"x_min":86,"x_max":1183,"o":"m 1183 930 q 1179 913 1183 920 q 1170 906 1174 907 q 1162 905 1166 905 q 1125 902 1141 905 q 1087 891 1110 900 q 1047 863 1063 883 q 1022 811 1030 842 l 828 28 q 818 4 823 9 q 800 0 813 0 q 782 4 786 0 q 772 24 778 7 l 473 852 l 294 138 q 289 103 289 115 q 291 85 289 92 q 300 67 293 77 q 325 50 307 56 q 371 43 343 43 q 386 42 381 43 q 394 37 391 41 q 397 25 397 33 q 392 7 397 14 q 383 1 387 1 q 372 0 378 0 q 305 2 351 0 q 236 4 258 4 q 170 2 214 4 q 104 0 125 0 q 86 17 86 0 q 91 35 86 28 q 100 42 96 41 q 113 43 105 43 q 200 66 166 45 q 248 140 234 87 l 431 876 l 435 895 q 350 905 435 905 q 328 906 334 905 q 317 910 321 907 q 313 922 313 914 q 318 941 313 935 q 330 948 323 947 q 350 949 336 949 l 524 949 q 551 945 545 949 q 562 925 556 942 l 822 203 l 975 812 q 981 846 981 834 q 963 888 981 872 q 897 905 946 903 q 872 922 872 905 q 897 949 872 949 q 964 947 918 949 q 1032 945 1010 945 q 1099 947 1055 945 q 1165 949 1144 949 q 1183 930 1183 949 m 1014 1147 q 983 1110 1014 1140 q 909 1051 953 1080 q 836 1022 865 1022 q 804 1031 819 1022 q 783 1050 789 1041 q 765 1076 776 1059 q 745 1104 754 1095 q 721 1114 735 1114 q 672 1094 703 1114 q 619 1054 641 1074 l 597 1034 q 579 1023 585 1023 q 564 1038 564 1023 q 582 1063 564 1044 q 619 1097 601 1082 l 637 1112 q 741 1162 703 1162 q 772 1154 758 1162 q 794 1134 787 1145 q 815 1103 802 1124 q 856 1071 833 1071 q 927 1105 882 1071 q 981 1152 971 1139 q 999 1161 990 1161 q 1009 1157 1005 1161 q 1014 1147 1014 1154 z "},"":{"ha":1065,"x_min":205,"x_max":1095,"o":"m 1095 616 q 1062 421 1095 519 q 974 243 1030 323 q 846 101 918 163 q 691 4 774 39 q 525 -31 607 -31 q 294 70 383 -31 q 205 328 205 170 q 255 565 205 446 q 385 775 305 684 q 569 922 464 865 q 778 979 673 979 q 901 954 844 979 q 1002 884 959 929 q 1070 769 1045 838 q 1095 616 1095 700 m 977 675 q 917 876 977 806 q 768 945 857 945 q 592 879 680 945 q 447 713 504 814 q 388 585 413 653 q 352 458 363 517 q 335 356 340 399 q 330 285 330 314 q 386 82 330 159 q 534 5 441 5 q 701 67 615 5 q 852 241 787 129 q 942 458 907 334 q 977 675 977 581 m 895 1064 q 881 1047 891 1056 q 863 1038 871 1038 q 846 1044 856 1036 l 660 1174 q 644 1213 637 1190 q 668 1245 650 1232 q 707 1258 686 1258 q 737 1243 722 1258 l 886 1082 q 895 1064 895 1072 z "},"":{"ha":1065,"x_min":205,"x_max":1095,"o":"m 1095 616 q 1062 421 1095 519 q 974 243 1030 323 q 846 101 918 163 q 691 4 774 39 q 525 -31 607 -31 q 294 70 383 -31 q 205 328 205 170 q 255 565 205 446 q 385 775 305 684 q 569 922 464 865 q 778 979 673 979 q 901 954 844 979 q 1002 884 959 929 q 1070 769 1045 838 q 1095 616 1095 700 m 977 675 q 917 876 977 806 q 768 945 857 945 q 592 879 680 945 q 447 713 504 814 q 388 585 413 653 q 352 458 363 517 q 335 356 340 399 q 330 285 330 314 q 386 82 330 159 q 534 5 441 5 q 701 67 615 5 q 852 241 787 129 q 942 458 907 334 q 977 675 977 581 m 1026 1213 q 991 1174 1022 1189 l 742 1044 q 721 1038 727 1036 q 708 1047 713 1039 q 703 1064 702 1056 q 720 1082 705 1072 l 949 1243 q 987 1258 971 1258 q 1018 1245 1007 1258 q 1026 1213 1029 1232 z "},"":{"ha":1065,"x_min":205,"x_max":1095,"o":"m 1095 616 q 1062 421 1095 519 q 974 243 1030 323 q 846 101 918 163 q 691 4 774 39 q 525 -31 607 -31 q 294 70 383 -31 q 205 328 205 170 q 255 565 205 446 q 385 775 305 684 q 569 922 464 865 q 778 979 673 979 q 901 954 844 979 q 1002 884 959 929 q 1070 769 1045 838 q 1095 616 1095 700 m 977 675 q 917 876 977 806 q 768 945 857 945 q 592 879 680 945 q 447 713 504 814 q 388 585 413 653 q 352 458 363 517 q 335 356 340 399 q 330 285 330 314 q 386 82 330 159 q 534 5 441 5 q 701 67 615 5 q 852 241 787 129 q 942 458 907 334 q 977 675 977 581 m 983 1048 q 982 1030 991 1041 q 962 1023 972 1019 l 807 1100 l 612 1023 q 598 1024 604 1020 q 595 1036 593 1029 q 604 1048 596 1044 l 819 1185 q 836 1185 829 1190 l 983 1048 z "},"":{"ha":1065,"x_min":205,"x_max":1095,"o":"m 1095 616 q 1062 421 1095 519 q 974 243 1030 323 q 846 101 918 163 q 691 4 774 39 q 525 -31 607 -31 q 294 70 383 -31 q 205 328 205 170 q 255 565 205 446 q 385 775 305 684 q 569 922 464 865 q 778 979 673 979 q 901 954 844 979 q 1002 884 959 929 q 1070 769 1045 838 q 1095 616 1095 700 m 977 675 q 917 876 977 806 q 768 945 857 945 q 592 879 680 945 q 447 713 504 814 q 388 585 413 653 q 352 458 363 517 q 335 356 340 399 q 330 285 330 314 q 386 82 330 159 q 534 5 441 5 q 701 67 615 5 q 852 241 787 129 q 942 458 907 334 q 977 675 977 581 m 1031 1147 q 1000 1110 1031 1140 q 926 1051 970 1080 q 852 1022 882 1022 q 820 1031 835 1022 q 799 1050 806 1041 q 782 1076 793 1059 q 761 1104 771 1095 q 737 1114 751 1114 q 688 1094 719 1114 q 635 1054 657 1074 l 614 1034 q 596 1023 601 1023 q 581 1038 581 1023 q 599 1063 581 1044 q 636 1097 617 1082 l 654 1112 q 757 1162 720 1162 q 798 1148 782 1162 q 832 1103 813 1134 q 872 1071 850 1071 q 943 1105 899 1071 q 997 1152 987 1139 q 1015 1161 1006 1161 q 1026 1157 1021 1161 q 1031 1147 1031 1154 z "},"":{"ha":1065,"x_min":205,"x_max":1095,"o":"m 1095 616 q 1062 421 1095 519 q 974 243 1030 323 q 846 101 918 163 q 691 4 774 39 q 525 -31 607 -31 q 294 70 383 -31 q 205 328 205 170 q 255 565 205 446 q 385 775 305 684 q 569 922 464 865 q 778 979 673 979 q 901 954 844 979 q 1002 884 959 929 q 1070 769 1045 838 q 1095 616 1095 700 m 977 675 q 917 876 977 806 q 768 945 857 945 q 592 879 680 945 q 447 713 504 814 q 388 585 413 653 q 352 458 363 517 q 335 356 340 399 q 330 285 330 314 q 386 82 330 159 q 534 5 441 5 q 701 67 615 5 q 852 241 787 129 q 942 458 907 334 q 977 675 977 581 m 728 1101 q 703 1047 728 1072 q 648 1022 677 1022 q 607 1038 622 1022 q 591 1076 591 1054 q 617 1131 591 1106 q 672 1156 642 1156 q 713 1139 699 1156 q 728 1101 728 1123 m 1018 1101 q 993 1047 1018 1072 q 939 1022 968 1022 q 897 1038 912 1022 q 882 1076 882 1054 q 907 1131 882 1106 q 962 1156 932 1156 q 1003 1139 989 1156 q 1018 1101 1018 1123 z "},"":{"ha":1065,"x_min":221,"x_max":1018,"o":"m 852 52 q 806 47 829 33 l 791 65 l 610 309 l 306 64 q 291 53 295 56 q 277 45 287 50 q 259 41 267 40 q 244 47 252 42 q 264 94 221 62 l 581 347 l 386 604 q 387 644 367 627 q 433 648 413 662 q 447 631 438 645 l 631 387 l 933 631 q 975 653 962 652 q 994 647 985 654 q 975 600 1018 632 l 660 349 l 854 92 q 861 79 859 83 q 862 67 863 75 q 852 52 861 59 z "},"":{"ha":1065,"x_min":161,"x_max":1141,"o":"m 1095 616 q 1062 421 1095 519 q 974 243 1030 323 q 846 101 918 163 q 691 4 774 39 q 525 -31 607 -31 q 307 56 399 -31 q 258 -1 280 24 q 223 -40 236 -26 q 210 -56 211 -54 q 186 -80 191 -76 q 178 -83 182 -83 q 167 -79 173 -83 q 161 -66 161 -74 q 191 -28 161 -60 l 285 82 q 205 328 205 180 q 255 565 205 446 q 385 775 305 684 q 569 922 464 865 q 778 979 673 979 q 908 952 853 979 q 994 892 963 924 l 1104 1019 q 1125 1032 1114 1032 q 1136 1027 1130 1032 q 1141 1015 1141 1023 q 1128 993 1141 1010 l 1017 865 q 1070 768 1046 829 q 1095 616 1095 707 m 953 846 q 770 949 891 949 q 605 898 689 949 q 458 760 521 847 q 370 579 406 684 q 320 397 333 474 q 307 269 307 320 q 330 135 307 196 l 953 846 m 994 676 q 971 812 994 753 l 349 102 q 425 27 376 55 q 533 0 473 0 q 698 50 614 0 q 842 183 781 99 q 915 318 883 241 q 963 464 947 394 q 986 588 979 534 q 994 676 994 642 z "},"":{"ha":1031,"x_min":281,"x_max":1183,"o":"m 1183 930 q 1179 913 1183 920 q 1170 906 1174 907 q 1162 905 1166 905 q 1125 902 1141 905 q 1087 891 1110 900 q 1047 863 1063 883 q 1022 811 1030 842 l 896 302 q 847 186 882 245 q 765 79 812 127 q 654 0 717 31 q 528 -31 591 -31 q 353 40 425 -31 q 281 231 281 111 q 292 319 281 275 l 425 856 q 431 882 431 876 q 411 901 431 897 q 350 905 391 905 q 328 906 334 905 q 317 910 321 907 q 313 922 313 914 q 318 941 313 935 q 328 948 323 947 q 339 949 332 949 q 422 947 366 949 q 505 945 477 945 q 588 947 532 945 q 669 949 643 949 q 689 930 689 949 q 681 909 689 913 q 647 905 672 905 q 565 895 583 905 q 538 850 546 885 l 399 292 q 385 186 385 227 q 428 55 385 98 q 533 12 472 12 q 664 51 598 12 q 782 160 730 90 q 856 318 834 231 l 979 812 q 985 846 985 834 q 967 888 985 872 q 901 905 950 903 q 876 922 876 905 q 901 949 876 949 q 967 947 922 949 q 1035 945 1013 945 q 1101 947 1057 945 q 1165 949 1145 949 q 1183 930 1183 949 m 909 1064 q 896 1047 906 1056 q 878 1038 886 1038 q 861 1044 871 1036 l 675 1174 q 660 1213 653 1190 q 684 1245 666 1232 q 722 1258 702 1258 q 753 1243 738 1258 l 901 1082 q 909 1064 909 1072 z "},"":{"ha":1031,"x_min":281,"x_max":1183,"o":"m 1183 930 q 1179 913 1183 920 q 1170 906 1174 907 q 1162 905 1166 905 q 1125 902 1141 905 q 1087 891 1110 900 q 1047 863 1063 883 q 1022 811 1030 842 l 896 302 q 847 186 882 245 q 765 79 812 127 q 654 0 717 31 q 528 -31 591 -31 q 353 40 425 -31 q 281 231 281 111 q 292 319 281 275 l 425 856 q 431 882 431 876 q 411 901 431 897 q 350 905 391 905 q 328 906 334 905 q 317 910 321 907 q 313 922 313 914 q 318 941 313 935 q 328 948 323 947 q 339 949 332 949 q 422 947 366 949 q 505 945 477 945 q 588 947 532 945 q 669 949 643 949 q 689 930 689 949 q 681 909 689 913 q 647 905 672 905 q 565 895 583 905 q 538 850 546 885 l 399 292 q 385 186 385 227 q 428 55 385 98 q 533 12 472 12 q 664 51 598 12 q 782 160 730 90 q 856 318 834 231 l 979 812 q 985 846 985 834 q 967 888 985 872 q 901 905 950 903 q 876 922 876 905 q 901 949 876 949 q 967 947 922 949 q 1035 945 1013 945 q 1101 947 1057 945 q 1165 949 1145 949 q 1183 930 1183 949 m 1042 1213 q 1007 1174 1038 1189 l 757 1044 q 736 1038 742 1036 q 723 1047 728 1039 q 718 1064 718 1056 q 734 1082 721 1072 l 964 1243 q 1003 1258 986 1258 q 1034 1245 1023 1258 q 1042 1213 1044 1232 z "},"":{"ha":1031,"x_min":281,"x_max":1183,"o":"m 1183 930 q 1179 913 1183 920 q 1170 906 1174 907 q 1162 905 1166 905 q 1125 902 1141 905 q 1087 891 1110 900 q 1047 863 1063 883 q 1022 811 1030 842 l 896 302 q 847 186 882 245 q 765 79 812 127 q 654 0 717 31 q 528 -31 591 -31 q 353 40 425 -31 q 281 231 281 111 q 292 319 281 275 l 425 856 q 431 882 431 876 q 411 901 431 897 q 350 905 391 905 q 328 906 334 905 q 317 910 321 907 q 313 922 313 914 q 318 941 313 935 q 328 948 323 947 q 339 949 332 949 q 422 947 366 949 q 505 945 477 945 q 588 947 532 945 q 669 949 643 949 q 689 930 689 949 q 681 909 689 913 q 647 905 672 905 q 565 895 583 905 q 538 850 546 885 l 399 292 q 385 186 385 227 q 428 55 385 98 q 533 12 472 12 q 664 51 598 12 q 782 160 730 90 q 856 318 834 231 l 979 812 q 985 846 985 834 q 967 888 985 872 q 901 905 950 903 q 876 922 876 905 q 901 949 876 949 q 967 947 922 949 q 1035 945 1013 945 q 1101 947 1057 945 q 1165 949 1145 949 q 1183 930 1183 949 m 999 1048 q 998 1030 1007 1041 q 978 1023 988 1019 l 822 1100 l 628 1023 q 614 1024 619 1020 q 610 1036 608 1029 q 619 1048 611 1044 l 835 1185 q 851 1185 844 1190 l 999 1048 z "},"":{"ha":1031,"x_min":281,"x_max":1183,"o":"m 1183 930 q 1179 913 1183 920 q 1170 906 1174 907 q 1162 905 1166 905 q 1125 902 1141 905 q 1087 891 1110 900 q 1047 863 1063 883 q 1022 811 1030 842 l 896 302 q 847 186 882 245 q 765 79 812 127 q 654 0 717 31 q 528 -31 591 -31 q 353 40 425 -31 q 281 231 281 111 q 292 319 281 275 l 425 856 q 431 882 431 876 q 411 901 431 897 q 350 905 391 905 q 328 906 334 905 q 317 910 321 907 q 313 922 313 914 q 318 941 313 935 q 328 948 323 947 q 339 949 332 949 q 422 947 366 949 q 505 945 477 945 q 588 947 532 945 q 669 949 643 949 q 689 930 689 949 q 681 909 689 913 q 647 905 672 905 q 565 895 583 905 q 538 850 546 885 l 399 292 q 385 186 385 227 q 428 55 385 98 q 533 12 472 12 q 664 51 598 12 q 782 160 730 90 q 856 318 834 231 l 979 812 q 985 846 985 834 q 967 888 985 872 q 901 905 950 903 q 876 922 876 905 q 901 949 876 949 q 967 947 922 949 q 1035 945 1013 945 q 1101 947 1057 945 q 1165 949 1145 949 q 1183 930 1183 949 m 743 1101 q 718 1047 743 1072 q 664 1022 693 1022 q 622 1038 637 1022 q 607 1076 607 1054 q 632 1131 607 1106 q 688 1156 658 1156 q 729 1139 714 1156 q 743 1101 743 1123 m 1034 1101 q 1008 1047 1034 1072 q 954 1022 983 1022 q 912 1038 928 1022 q 897 1076 897 1054 q 923 1131 897 1106 q 978 1156 948 1156 q 1019 1139 1004 1156 q 1034 1101 1034 1123 z "},"":{"ha":1031,"x_min":281,"x_max":1214,"o":"m 1214 933 q 1209 915 1214 921 q 1201 907 1204 908 q 1187 905 1197 907 q 1094 876 1137 901 q 1003 791 1050 850 l 675 393 q 672 390 673 391 q 670 387 671 389 q 668 384 669 385 q 666 381 667 383 q 665 377 665 378 q 664 373 665 376 q 662 369 663 370 q 661 362 662 367 q 659 355 659 358 l 615 184 q 589 66 589 73 q 608 47 589 51 q 669 43 628 43 q 687 42 683 43 q 697 41 691 42 q 705 36 703 39 q 707 26 707 33 q 701 8 707 14 q 692 1 696 1 q 681 0 688 0 q 598 2 654 0 q 515 4 543 4 q 435 2 489 4 q 354 0 380 0 q 335 17 335 0 q 337 32 335 26 q 345 40 339 38 q 355 42 351 42 q 370 43 359 43 q 413 44 399 43 q 443 48 428 44 q 463 55 457 52 q 475 70 468 58 q 484 92 481 82 q 492 125 486 101 q 555 379 555 374 q 550 400 555 387 l 403 864 q 378 897 395 888 q 314 905 361 905 q 296 906 302 905 q 286 910 290 907 q 281 922 281 914 q 286 941 281 935 q 296 948 292 947 q 307 949 300 949 q 379 947 330 949 q 452 945 428 945 q 533 947 479 945 q 614 949 587 949 q 633 932 633 949 q 631 917 633 922 q 624 908 629 911 q 614 906 618 906 q 603 905 610 905 q 525 872 525 905 q 530 854 525 868 l 663 437 l 966 808 q 971 814 966 809 q 980 826 975 820 q 990 841 985 833 q 998 858 995 850 q 1002 873 1002 867 q 958 905 1002 903 q 937 922 937 905 q 942 941 937 935 q 952 948 947 947 q 962 949 956 949 q 1026 947 983 949 q 1092 945 1070 945 q 1145 947 1109 945 q 1197 949 1181 949 q 1209 945 1204 949 q 1214 937 1213 941 l 1214 933 m 1010 1213 q 975 1174 1006 1189 l 725 1044 q 704 1038 710 1036 q 691 1047 697 1039 q 686 1064 685 1056 q 703 1082 689 1072 l 932 1243 q 971 1258 954 1258 q 1002 1245 991 1258 q 1010 1213 1013 1232 z "},"":{"ha":941,"x_min":79,"x_max":960,"o":"m 960 524 q 906 374 960 445 q 768 261 852 302 q 597 220 684 220 l 380 220 l 350 98 l 345 68 q 348 54 345 58 q 370 46 351 50 q 431 43 389 43 q 449 42 444 43 q 460 41 454 42 q 468 36 466 39 q 469 26 469 33 q 441 0 469 0 q 356 2 414 0 q 269 4 298 4 q 183 2 241 4 q 98 0 126 0 q 79 18 79 0 q 87 39 79 36 q 121 43 96 43 q 209 53 189 43 q 237 100 229 64 l 427 856 q 431 882 431 868 q 428 892 431 888 q 418 898 425 896 q 405 902 411 901 q 387 905 399 904 q 367 905 374 905 q 343 905 359 905 q 313 908 320 905 q 306 924 306 911 q 332 949 306 949 q 418 947 360 949 q 505 945 477 945 q 591 947 534 945 q 676 949 648 949 q 696 932 696 949 q 690 913 696 919 q 678 906 685 907 q 653 905 671 905 q 583 900 605 905 q 552 884 560 895 q 538 848 544 873 l 509 729 l 714 729 q 892 671 825 729 q 960 524 960 613 m 838 566 q 792 660 838 629 q 669 690 747 690 l 550 690 q 502 683 513 690 q 482 640 491 676 l 387 260 l 562 260 q 764 340 691 260 q 818 455 798 380 q 838 566 838 531 z "},"":{"ha":745,"x_min":-28,"x_max":803,"o":"m 726 229 q 693 120 726 176 q 602 24 661 64 q 479 -16 544 -16 q 385 11 427 -16 q 343 87 343 37 q 349 119 343 106 q 361 138 354 132 q 376 148 369 144 q 389 152 384 152 l 395 153 q 421 142 411 153 q 432 117 432 132 q 430 105 431 112 q 417 85 429 98 q 389 68 406 71 q 409 38 395 50 q 437 22 422 26 q 461 17 453 18 q 478 16 470 16 q 531 35 507 16 q 571 82 556 54 q 598 141 587 110 q 613 194 609 172 q 618 225 618 216 q 582 311 618 267 q 547 422 547 357 q 566 511 547 478 q 631 589 584 543 q 692 712 669 627 q 715 833 715 798 q 689 917 715 886 q 612 949 663 949 q 556 943 581 949 q 514 928 532 937 q 482 903 496 920 q 459 872 468 886 q 443 833 451 858 q 431 790 435 808 q 421 742 427 772 l 286 52 q 271 -14 280 19 q 249 -87 262 -47 q 217 -161 235 -127 q 176 -223 199 -195 q 124 -268 154 -252 q 62 -285 95 -285 q -1 -262 26 -285 q -28 -196 -28 -239 q -6 -136 -28 -155 q 41 -117 16 -117 q 75 -129 60 -117 q 89 -161 89 -140 q 87 -176 89 -168 q 79 -197 85 -184 q 58 -218 73 -209 q 21 -229 43 -227 q 25 -236 22 -232 q 39 -247 28 -240 q 62 -254 50 -254 q 105 -235 86 -254 q 140 -176 125 -216 q 168 -87 156 -136 q 195 35 180 -39 l 296 555 l 210 555 q 191 556 197 555 q 180 560 185 557 q 175 571 175 564 q 183 594 175 590 q 212 599 192 599 l 304 599 l 336 761 q 355 823 345 797 q 386 881 365 850 q 435 932 407 912 q 508 966 463 952 q 612 979 554 979 q 750 936 697 979 q 803 821 803 892 q 681 574 803 726 q 646 531 656 544 q 625 498 635 517 q 615 465 615 479 q 664 374 615 429 q 692 336 682 351 q 714 290 702 321 q 726 229 726 259 z "},"":{"ha":709,"x_min":150,"x_max":743,"o":"m 743 199 q 701 62 726 115 q 660 5 683 26 q 600 -16 636 -16 q 528 9 561 -16 q 485 82 496 34 q 401 9 445 33 q 318 -16 357 -16 q 196 46 242 -16 q 150 200 150 109 q 197 396 150 299 q 318 553 244 492 q 468 614 393 614 q 583 532 547 614 q 587 544 585 538 q 594 561 589 549 q 612 579 600 572 q 639 586 623 586 q 664 578 652 586 q 676 550 676 570 q 671 521 676 541 l 576 143 q 567 72 567 104 q 568 54 567 61 q 571 37 568 47 q 582 21 574 26 q 603 16 590 16 q 634 30 620 16 q 660 70 649 43 q 679 121 671 96 q 696 180 687 145 q 706 208 702 203 q 722 212 709 212 q 743 199 743 212 m 494 172 l 559 435 l 564 453 q 537 542 564 501 q 468 583 511 583 q 383 539 427 583 q 313 429 339 494 q 268 284 292 381 q 244 139 244 188 q 247 102 244 121 q 258 62 250 83 q 281 28 265 41 q 321 16 298 16 q 396 46 356 16 q 463 112 437 76 q 494 172 488 148 m 616 725 q 602 709 612 717 q 583 701 591 701 q 570 713 577 701 l 431 884 q 425 928 413 901 q 452 956 434 945 q 484 966 469 966 q 499 963 493 966 q 508 955 506 959 q 515 943 511 951 l 614 746 q 616 725 621 732 z "},"":{"ha":709,"x_min":150,"x_max":749,"o":"m 743 199 q 701 62 726 115 q 660 5 683 26 q 600 -16 636 -16 q 528 9 561 -16 q 485 82 496 34 q 401 9 445 33 q 318 -16 357 -16 q 196 46 242 -16 q 150 200 150 109 q 197 396 150 299 q 318 553 244 492 q 468 614 393 614 q 583 532 547 614 q 587 544 585 538 q 594 561 589 549 q 612 579 600 572 q 639 586 623 586 q 664 578 652 586 q 676 550 676 570 q 671 521 676 541 l 576 143 q 567 72 567 104 q 568 54 567 61 q 571 37 568 47 q 582 21 574 26 q 603 16 590 16 q 634 30 620 16 q 660 70 649 43 q 679 121 671 96 q 696 180 687 145 q 706 208 702 203 q 722 212 709 212 q 743 199 743 212 m 494 172 l 559 435 l 564 453 q 537 542 564 501 q 468 583 511 583 q 383 539 427 583 q 313 429 339 494 q 268 284 292 381 q 244 139 244 188 q 247 102 244 121 q 258 62 250 83 q 281 28 265 41 q 321 16 298 16 q 396 46 356 16 q 463 112 437 76 q 494 172 488 148 m 749 928 q 721 884 749 902 l 497 713 q 478 701 484 701 q 463 709 471 701 q 456 725 456 717 q 469 746 456 732 l 667 943 q 710 966 690 966 q 736 956 724 966 q 749 928 749 945 z "},"":{"ha":709,"x_min":150,"x_max":743,"o":"m 743 199 q 701 62 726 115 q 660 5 683 26 q 600 -16 636 -16 q 528 9 561 -16 q 485 82 496 34 q 401 9 445 33 q 318 -16 357 -16 q 196 46 242 -16 q 150 200 150 109 q 197 396 150 299 q 318 553 244 492 q 468 614 393 614 q 583 532 547 614 q 587 544 585 538 q 594 561 589 549 q 612 579 600 572 q 639 586 623 586 q 664 578 652 586 q 676 550 676 570 q 671 521 676 541 l 576 143 q 567 72 567 104 q 568 54 567 61 q 571 37 568 47 q 582 21 574 26 q 603 16 590 16 q 634 30 620 16 q 660 70 649 43 q 679 121 671 96 q 696 180 687 145 q 706 208 702 203 q 722 212 709 212 q 743 199 743 212 m 494 172 l 559 435 l 564 453 q 537 542 564 501 q 468 583 511 583 q 383 539 427 583 q 313 429 339 494 q 268 284 292 381 q 244 139 244 188 q 247 102 244 121 q 258 62 250 83 q 281 28 265 41 q 321 16 298 16 q 396 46 356 16 q 463 112 437 76 q 494 172 488 148 m 732 745 q 727 724 739 734 q 707 722 715 714 l 571 860 l 366 722 q 346 724 353 714 q 350 745 338 734 l 581 945 q 592 949 586 949 q 602 945 598 949 l 732 745 z "},"":{"ha":709,"x_min":150,"x_max":789,"o":"m 743 199 q 701 62 726 115 q 660 5 683 26 q 600 -16 636 -16 q 528 9 561 -16 q 485 82 496 34 q 401 9 445 33 q 318 -16 357 -16 q 196 46 242 -16 q 150 200 150 109 q 197 396 150 299 q 318 553 244 492 q 468 614 393 614 q 583 532 547 614 q 587 544 585 538 q 594 561 589 549 q 612 579 600 572 q 639 586 623 586 q 664 578 652 586 q 676 550 676 570 q 671 521 676 541 l 576 143 q 567 72 567 104 q 568 54 567 61 q 571 37 568 47 q 582 21 574 26 q 603 16 590 16 q 634 30 620 16 q 660 70 649 43 q 679 121 671 96 q 696 180 687 145 q 706 208 702 203 q 722 212 709 212 q 743 199 743 212 m 494 172 l 559 435 l 564 453 q 537 542 564 501 q 468 583 511 583 q 383 539 427 583 q 313 429 339 494 q 268 284 292 381 q 244 139 244 188 q 247 102 244 121 q 258 62 250 83 q 281 28 265 41 q 321 16 298 16 q 396 46 356 16 q 463 112 437 76 q 494 172 488 148 m 789 889 q 758 852 789 882 q 684 793 728 822 q 611 764 640 764 q 579 773 593 764 q 558 791 564 783 q 541 818 551 800 q 520 846 530 837 q 496 856 510 856 q 447 836 477 856 q 394 795 416 815 l 372 775 q 354 765 359 765 q 339 779 339 765 q 357 805 339 786 q 394 840 376 824 l 412 854 q 515 904 477 904 q 547 895 533 904 q 569 876 562 886 q 590 844 577 865 q 631 812 608 812 q 702 846 657 812 q 755 893 746 880 q 774 903 765 903 q 784 899 780 903 q 789 889 789 895 z "},"":{"ha":709,"x_min":150,"x_max":754,"o":"m 743 199 q 701 62 726 115 q 660 5 683 26 q 600 -16 636 -16 q 528 9 561 -16 q 485 82 496 34 q 401 9 445 33 q 318 -16 357 -16 q 196 46 242 -16 q 150 200 150 109 q 197 396 150 299 q 318 553 244 492 q 468 614 393 614 q 583 532 547 614 q 587 544 585 538 q 594 561 589 549 q 612 579 600 572 q 639 586 623 586 q 664 578 652 586 q 676 550 676 570 q 671 521 676 541 l 576 143 q 567 72 567 104 q 568 54 567 61 q 571 37 568 47 q 582 21 574 26 q 603 16 590 16 q 634 30 620 16 q 660 70 649 43 q 679 121 671 96 q 696 180 687 145 q 706 208 702 203 q 722 212 709 212 q 743 199 743 212 m 494 172 l 559 435 l 564 453 q 537 542 564 501 q 468 583 511 583 q 383 539 427 583 q 313 429 339 494 q 268 284 292 381 q 244 139 244 188 q 247 102 244 121 q 258 62 250 83 q 281 28 265 41 q 321 16 298 16 q 396 46 356 16 q 463 112 437 76 q 494 172 488 148 m 509 847 q 484 793 509 817 q 429 768 458 768 q 388 784 403 768 q 372 822 372 800 q 398 877 372 852 q 453 901 423 901 q 494 885 479 901 q 509 847 509 869 m 754 847 q 729 793 754 817 q 675 768 704 768 q 633 784 648 768 q 618 822 618 800 q 643 877 618 852 q 699 901 669 901 q 740 885 725 901 q 754 847 754 869 z "},"":{"ha":709,"x_min":150,"x_max":743,"o":"m 743 199 q 701 62 726 115 q 660 5 683 26 q 600 -16 636 -16 q 528 9 561 -16 q 485 82 496 34 q 401 9 445 33 q 318 -16 357 -16 q 196 46 242 -16 q 150 200 150 109 q 197 396 150 299 q 318 553 244 492 q 468 614 393 614 q 583 532 547 614 q 587 544 585 538 q 594 561 589 549 q 612 579 600 572 q 639 586 623 586 q 664 578 652 586 q 676 550 676 570 q 671 521 676 541 l 576 143 q 567 72 567 104 q 568 54 567 61 q 571 37 568 47 q 582 21 574 26 q 603 16 590 16 q 634 30 620 16 q 660 70 649 43 q 679 121 671 96 q 696 180 687 145 q 706 208 702 203 q 722 212 709 212 q 743 199 743 212 m 494 172 l 559 435 l 564 453 q 537 542 564 501 q 468 583 511 583 q 383 539 427 583 q 313 429 339 494 q 268 284 292 381 q 244 139 244 188 q 247 102 244 121 q 258 62 250 83 q 281 28 265 41 q 321 16 298 16 q 396 46 356 16 q 463 112 437 76 q 494 172 488 148 m 650 888 q 589 937 650 937 q 540 926 561 937 q 510 898 519 914 q 496 865 501 882 q 490 837 490 848 l 489 825 q 550 777 489 777 q 598 788 578 777 q 628 816 618 800 q 643 848 637 832 q 649 876 648 865 l 650 888 m 703 886 q 652 781 703 828 q 539 734 601 734 q 467 759 498 734 q 436 829 436 784 q 488 934 437 889 q 599 979 538 979 q 676 951 649 979 q 703 886 703 922 z "},"":{"ha":994,"x_min":127,"x_max":999,"o":"m 971 144 q 959 120 971 138 q 923 79 947 102 q 869 35 899 56 q 797 -1 839 14 q 711 -16 754 -16 q 653 -5 680 -16 q 607 21 626 5 q 577 52 589 37 q 557 83 565 67 q 532 1 541 18 q 497 -16 523 -16 q 475 -8 486 -16 q 464 17 464 -1 q 476 74 464 25 l 475 75 q 398 8 435 32 q 315 -16 361 -16 q 183 27 238 -16 q 127 139 127 70 q 139 203 127 168 q 182 289 150 239 q 265 387 215 339 q 403 486 315 435 q 603 576 491 537 q 617 601 606 592 q 634 612 627 610 q 647 614 641 614 q 670 606 659 614 q 681 582 681 599 q 672 542 681 577 q 860 614 762 614 q 960 580 921 614 q 999 496 999 547 q 996 471 999 484 q 984 434 994 457 q 951 388 975 410 q 892 351 928 366 q 689 321 817 321 l 616 321 q 597 184 597 240 q 603 128 597 155 q 622 74 609 100 q 657 32 634 47 q 713 16 681 16 q 757 22 734 16 q 810 42 781 28 q 871 84 839 56 q 930 153 903 113 q 949 167 943 167 q 964 158 956 167 q 971 144 971 150 m 946 498 q 923 559 946 534 q 859 583 900 583 q 831 581 846 583 q 785 565 815 578 q 728 529 755 551 q 673 460 702 506 q 625 351 644 414 l 667 351 q 723 353 696 351 q 784 360 750 355 q 845 375 818 365 q 896 401 872 386 q 933 442 920 417 q 946 498 946 467 m 509 201 l 593 541 q 430 444 503 502 q 316 326 358 387 q 251 208 273 265 q 229 102 229 150 q 245 49 229 70 q 281 22 262 28 q 319 16 300 16 q 406 54 361 16 q 476 135 450 93 q 509 201 502 176 z "},"":{"ha":639,"x_min":107,"x_max":653,"o":"m 650 144 q 637 120 650 138 q 598 79 624 102 q 538 35 572 56 q 458 0 505 14 q 361 -16 410 -15 l 347 -75 q 411 -103 389 -83 q 432 -151 432 -123 q 425 -185 432 -170 q 407 -212 418 -201 q 378 -232 396 -223 q 344 -247 360 -241 q 305 -256 328 -252 q 265 -262 281 -260 q 225 -266 249 -264 q 190 -267 201 -267 q 160 -267 178 -267 l 125 -267 q 107 -252 107 -267 q 115 -238 107 -241 q 142 -236 122 -236 l 155 -236 q 343 -150 343 -236 q 328 -116 343 -132 q 277 -98 313 -101 q 273 -98 276 -98 q 268 -97 269 -98 q 264 -96 267 -97 q 261 -94 262 -96 q 258 -91 260 -93 q 256 -87 257 -90 q 256 -81 256 -84 q 275 1 256 -75 q 185 81 218 26 q 153 214 153 136 q 183 361 153 288 q 263 490 214 435 q 377 579 313 545 q 504 614 441 614 q 611 580 570 614 q 653 494 653 546 q 632 434 653 456 q 582 411 611 411 q 547 424 559 411 q 534 456 534 437 q 535 463 534 458 q 539 477 535 467 q 550 496 543 488 q 570 513 556 505 q 604 524 585 522 q 583 556 597 543 q 552 575 569 570 q 525 582 535 580 q 505 583 515 583 q 409 547 458 583 q 323 444 360 511 q 273 304 296 395 q 250 158 250 214 q 278 55 250 94 q 359 16 305 16 q 385 17 371 16 q 428 26 399 18 q 484 46 457 33 q 546 87 511 60 q 610 151 581 115 q 628 167 622 167 q 643 159 635 167 q 650 144 650 151 z "},"":{"ha":639,"x_min":158,"x_max":650,"o":"m 650 144 q 637 120 650 138 q 597 79 624 102 q 537 35 571 56 q 455 -1 503 14 q 357 -16 407 -16 q 247 20 294 -16 q 179 109 201 55 q 158 228 158 163 q 180 362 158 298 q 237 470 201 425 q 318 548 273 515 q 411 597 363 581 q 503 614 458 614 q 605 579 567 614 q 643 496 643 545 q 642 481 643 489 q 636 454 642 473 q 620 418 630 435 q 587 383 609 402 q 533 351 564 364 q 332 321 456 321 l 278 321 q 254 168 254 227 q 258 121 254 144 q 273 72 262 98 q 305 31 283 47 q 359 16 328 16 q 385 17 371 16 q 428 26 399 18 q 484 46 457 33 q 546 87 511 60 q 610 151 581 115 q 628 167 622 167 q 643 159 635 167 q 650 144 650 151 m 590 498 q 567 559 590 535 q 503 583 543 583 q 489 583 496 583 q 464 577 481 582 q 430 564 447 572 q 392 538 414 555 q 353 497 371 521 q 316 436 334 473 q 286 351 298 398 l 315 351 q 346 352 332 351 q 389 355 359 352 q 443 362 420 357 q 496 379 467 368 q 544 405 525 390 q 577 444 564 420 q 590 498 590 468 m 581 725 q 566 709 576 717 q 547 701 555 701 q 533 713 541 701 l 395 884 q 389 928 376 902 q 415 956 397 945 q 447 966 433 966 q 463 963 456 966 q 472 955 469 959 q 479 943 475 951 l 578 746 q 581 725 585 732 z "},"":{"ha":639,"x_min":158,"x_max":713,"o":"m 650 144 q 637 120 650 138 q 597 79 624 102 q 537 35 571 56 q 455 -1 503 14 q 357 -16 407 -16 q 247 20 294 -16 q 179 109 201 55 q 158 228 158 163 q 180 362 158 298 q 237 470 201 425 q 318 548 273 515 q 411 597 363 581 q 503 614 458 614 q 605 579 567 614 q 643 496 643 545 q 642 481 643 489 q 636 454 642 473 q 620 418 630 435 q 587 383 609 402 q 533 351 564 364 q 332 321 456 321 l 278 321 q 254 168 254 227 q 258 121 254 144 q 273 72 262 98 q 305 31 283 47 q 359 16 328 16 q 385 17 371 16 q 428 26 399 18 q 484 46 457 33 q 546 87 511 60 q 610 151 581 115 q 628 167 622 167 q 643 159 635 167 q 650 144 650 151 m 590 498 q 567 559 590 535 q 503 583 543 583 q 489 583 496 583 q 464 577 481 582 q 430 564 447 572 q 392 538 414 555 q 353 497 371 521 q 316 436 334 473 q 286 351 298 398 l 315 351 q 346 352 332 351 q 389 355 359 352 q 443 362 420 357 q 496 379 467 368 q 544 405 525 390 q 577 444 564 420 q 590 498 590 468 m 713 928 q 685 884 713 902 l 461 713 q 441 701 448 701 q 427 709 434 701 q 419 725 419 717 q 433 746 419 732 l 631 943 q 673 966 654 966 q 700 956 688 966 q 713 928 713 945 z "},"":{"ha":639,"x_min":158,"x_max":703,"o":"m 650 144 q 637 120 650 138 q 597 79 624 102 q 537 35 571 56 q 455 -1 503 14 q 357 -16 407 -16 q 247 20 294 -16 q 179 109 201 55 q 158 228 158 163 q 180 362 158 298 q 237 470 201 425 q 318 548 273 515 q 411 597 363 581 q 503 614 458 614 q 605 579 567 614 q 643 496 643 545 q 642 481 643 489 q 636 454 642 473 q 620 418 630 435 q 587 383 609 402 q 533 351 564 364 q 332 321 456 321 l 278 321 q 254 168 254 227 q 258 121 254 144 q 273 72 262 98 q 305 31 283 47 q 359 16 328 16 q 385 17 371 16 q 428 26 399 18 q 484 46 457 33 q 546 87 511 60 q 610 151 581 115 q 628 167 622 167 q 643 159 635 167 q 650 144 650 151 m 590 498 q 567 559 590 535 q 503 583 543 583 q 489 583 496 583 q 464 577 481 582 q 430 564 447 572 q 392 538 414 555 q 353 497 371 521 q 316 436 334 473 q 286 351 298 398 l 315 351 q 346 352 332 351 q 389 355 359 352 q 443 362 420 357 q 496 379 467 368 q 544 405 525 390 q 577 444 564 420 q 590 498 590 468 m 696 745 q 691 724 703 734 q 671 722 679 714 l 534 860 l 329 722 q 309 724 316 714 q 314 745 302 734 l 545 945 q 556 949 550 949 q 566 945 563 949 l 696 745 z "},"":{"ha":639,"x_min":158,"x_max":718,"o":"m 650 144 q 637 120 650 138 q 597 79 624 102 q 537 35 571 56 q 455 -1 503 14 q 357 -16 407 -16 q 247 20 294 -16 q 179 109 201 55 q 158 228 158 163 q 180 362 158 298 q 237 470 201 425 q 318 548 273 515 q 411 597 363 581 q 503 614 458 614 q 605 579 567 614 q 643 496 643 545 q 642 481 643 489 q 636 454 642 473 q 620 418 630 435 q 587 383 609 402 q 533 351 564 364 q 332 321 456 321 l 278 321 q 254 168 254 227 q 258 121 254 144 q 273 72 262 98 q 305 31 283 47 q 359 16 328 16 q 385 17 371 16 q 428 26 399 18 q 484 46 457 33 q 546 87 511 60 q 610 151 581 115 q 628 167 622 167 q 643 159 635 167 q 650 144 650 151 m 590 498 q 567 559 590 535 q 503 583 543 583 q 489 583 496 583 q 464 577 481 582 q 430 564 447 572 q 392 538 414 555 q 353 497 371 521 q 316 436 334 473 q 286 351 298 398 l 315 351 q 346 352 332 351 q 389 355 359 352 q 443 362 420 357 q 496 379 467 368 q 544 405 525 390 q 577 444 564 420 q 590 498 590 468 m 472 847 q 447 793 472 817 q 393 768 422 768 q 352 784 367 768 q 336 822 336 800 q 361 877 336 852 q 416 901 387 901 q 457 885 443 901 q 472 847 472 869 m 718 847 q 693 793 718 817 q 639 768 668 768 q 597 784 612 768 q 582 822 582 800 q 607 877 582 852 q 663 901 633 901 q 704 885 689 901 q 718 847 718 869 z "},"":{"ha":426,"x_min":115,"x_max":479,"o":"m 460 199 q 454 174 460 195 q 435 121 449 154 q 402 58 421 88 q 352 6 383 28 q 283 -16 320 -16 q 205 18 233 -16 q 178 96 178 51 q 182 132 178 115 q 203 192 187 149 l 254 329 l 296 444 q 321 545 321 514 q 290 583 321 583 q 161 408 208 583 q 154 390 157 393 q 136 386 150 386 q 115 400 115 386 q 121 425 115 404 q 141 478 127 446 q 174 541 155 511 q 224 592 193 570 q 293 614 256 614 q 367 585 336 614 q 397 503 397 556 q 380 425 397 475 l 292 187 q 285 169 290 184 q 278 149 279 153 q 272 132 277 145 q 267 114 268 119 q 262 99 265 109 q 259 83 260 89 q 257 69 258 77 q 256 54 256 61 q 259 33 256 41 q 267 21 262 24 q 277 17 273 18 q 286 16 281 16 q 415 189 368 16 q 422 209 419 205 q 439 212 425 212 q 460 199 460 212 m 475 725 q 460 709 471 717 q 441 701 449 701 q 428 713 435 701 l 289 884 q 283 928 271 901 q 310 956 292 945 q 342 966 328 966 q 358 963 351 966 q 367 955 364 959 q 374 943 369 951 l 472 746 q 475 725 479 732 z "},"":{"ha":426,"x_min":115,"x_max":607,"o":"m 460 199 q 454 174 460 195 q 435 121 449 154 q 402 58 421 88 q 352 6 383 28 q 283 -16 320 -16 q 205 18 233 -16 q 178 96 178 51 q 182 132 178 115 q 203 192 187 149 l 254 329 l 296 444 q 321 545 321 514 q 290 583 321 583 q 161 408 208 583 q 154 390 157 393 q 136 386 150 386 q 115 400 115 386 q 121 425 115 404 q 141 478 127 446 q 174 541 155 511 q 224 592 193 570 q 293 614 256 614 q 367 585 336 614 q 397 503 397 556 q 380 425 397 475 l 292 187 q 285 169 290 184 q 278 149 279 153 q 272 132 277 145 q 267 114 268 119 q 262 99 265 109 q 259 83 260 89 q 257 69 258 77 q 256 54 256 61 q 259 33 256 41 q 267 21 262 24 q 277 17 273 18 q 286 16 281 16 q 415 189 368 16 q 422 209 419 205 q 439 212 425 212 q 460 199 460 212 m 607 928 q 579 884 607 902 l 355 713 q 336 701 342 701 q 321 709 329 701 q 314 725 314 717 q 328 746 314 732 l 525 943 q 568 966 548 966 q 595 956 583 966 q 607 928 607 945 z "},"":{"ha":426,"x_min":115,"x_max":597,"o":"m 460 199 q 454 174 460 195 q 435 121 449 154 q 402 58 421 88 q 352 6 383 28 q 283 -16 320 -16 q 205 18 233 -16 q 178 96 178 51 q 182 132 178 115 q 203 192 187 149 l 254 329 l 296 444 q 321 545 321 514 q 290 583 321 583 q 161 408 208 583 q 154 390 157 393 q 136 386 150 386 q 115 400 115 386 q 121 425 115 404 q 141 478 127 446 q 174 541 155 511 q 224 592 193 570 q 293 614 256 614 q 367 585 336 614 q 397 503 397 556 q 380 425 397 475 l 292 187 q 285 169 290 184 q 278 149 279 153 q 272 132 277 145 q 267 114 268 119 q 262 99 265 109 q 259 83 260 89 q 257 69 258 77 q 256 54 256 61 q 259 33 256 41 q 267 21 262 24 q 277 17 273 18 q 286 16 281 16 q 415 189 368 16 q 422 209 419 205 q 439 212 425 212 q 460 199 460 212 m 590 745 q 585 724 597 734 q 566 722 574 714 l 429 860 l 224 722 q 204 724 211 714 q 208 745 197 734 l 439 945 q 450 949 444 949 q 460 945 457 949 l 590 745 z "},"":{"ha":426,"x_min":115,"x_max":612,"o":"m 460 199 q 454 174 460 195 q 435 121 449 154 q 402 58 421 88 q 352 6 383 28 q 283 -16 320 -16 q 205 18 233 -16 q 178 96 178 51 q 182 132 178 115 q 203 192 187 149 l 254 329 l 296 444 q 321 545 321 514 q 290 583 321 583 q 161 408 208 583 q 154 390 157 393 q 136 386 150 386 q 115 400 115 386 q 121 425 115 404 q 141 478 127 446 q 174 541 155 511 q 224 592 193 570 q 293 614 256 614 q 367 585 336 614 q 397 503 397 556 q 380 425 397 475 l 292 187 q 285 169 290 184 q 278 149 279 153 q 272 132 277 145 q 267 114 268 119 q 262 99 265 109 q 259 83 260 89 q 257 69 258 77 q 256 54 256 61 q 259 33 256 41 q 267 21 262 24 q 277 17 273 18 q 286 16 281 16 q 415 189 368 16 q 422 209 419 205 q 439 212 425 212 q 460 199 460 212 m 367 847 q 342 793 367 817 q 288 768 317 768 q 246 784 261 768 q 231 822 231 800 q 256 877 231 852 q 311 901 281 901 q 352 885 338 901 q 367 847 367 869 m 612 847 q 587 793 612 817 q 533 768 562 768 q 491 784 507 768 q 476 822 476 800 q 502 877 476 852 q 557 901 527 901 q 598 885 583 901 q 612 847 612 869 z "},"":{"ha":709,"x_min":153,"x_max":884,"o":"m 882 970 q 869 953 880 960 l 741 872 q 765 720 765 817 q 696 296 765 576 q 596 109 669 189 q 481 18 545 52 q 355 -16 418 -16 q 210 46 267 -16 q 153 214 153 109 q 183 361 153 288 q 263 490 214 435 q 377 579 313 545 q 504 614 441 614 q 663 534 606 614 q 679 835 703 734 l 567 765 q 554 761 561 761 q 541 767 545 761 q 538 782 536 774 q 550 799 543 793 l 667 871 q 554 937 633 937 q 542 944 546 937 q 539 958 537 950 q 548 973 541 967 q 564 979 555 979 q 722 905 675 979 l 852 987 q 867 990 861 990 q 879 984 875 990 q 882 970 884 979 m 610 440 q 581 543 610 503 q 503 583 552 583 q 414 551 460 583 q 330 457 368 518 q 274 309 298 404 q 250 158 250 214 q 281 52 250 87 q 355 16 311 16 q 454 55 405 16 q 534 154 503 94 q 588 301 566 212 q 610 440 610 391 z "},"":{"ha":780,"x_min":115,"x_max":825,"o":"m 814 199 q 808 174 814 195 q 788 121 802 153 q 755 58 774 88 q 705 6 736 28 q 637 -16 673 -16 q 561 16 589 -16 q 532 96 532 48 q 536 132 532 117 q 554 184 540 147 q 635 492 635 412 q 571 583 635 583 q 383 446 465 583 q 361 403 366 417 q 342 334 356 389 q 331 289 338 319 q 319 243 323 258 l 264 21 q 243 -6 257 3 q 214 -16 229 -16 q 185 -4 195 -16 q 175 21 175 7 q 179 40 175 28 l 283 457 q 293 528 293 496 q 257 583 293 583 q 205 541 227 583 q 163 418 184 499 q 154 390 158 395 q 136 386 150 386 q 115 400 115 386 q 160 541 134 485 q 202 595 179 576 q 260 614 225 614 q 337 584 305 614 q 376 504 370 554 q 393 526 384 515 q 421 554 402 537 q 461 583 440 570 q 512 605 482 595 q 575 614 543 614 q 627 607 603 614 q 672 585 650 600 q 707 539 694 569 q 720 469 720 510 q 635 160 720 385 q 629 144 633 156 q 623 125 625 132 q 618 109 621 119 q 614 90 615 98 q 611 73 612 83 q 610 56 610 64 q 611 36 610 43 q 620 22 612 28 q 640 16 627 16 q 770 189 720 16 q 777 209 774 206 q 793 212 780 212 q 814 199 814 212 m 825 889 q 795 852 825 882 q 720 793 764 822 q 647 764 676 764 q 615 773 629 764 q 594 791 600 783 q 576 818 587 800 q 556 846 566 837 q 532 856 546 856 q 483 836 513 856 q 430 795 452 815 l 408 775 q 390 765 395 765 q 375 779 375 765 q 394 805 375 786 q 431 840 412 824 l 449 854 q 551 904 513 904 q 592 890 576 904 q 627 844 608 876 q 667 812 645 812 q 738 846 693 812 q 791 893 782 880 q 810 903 801 903 q 821 899 816 903 q 825 889 825 895 z "},"":{"ha":709,"x_min":153,"x_max":707,"o":"m 650 550 q 679 518 650 550 q 707 386 707 486 q 655 193 707 286 q 522 42 604 99 q 355 -16 440 -16 q 210 46 267 -16 q 153 214 153 109 q 183 361 153 288 q 263 490 214 435 q 377 579 313 545 q 504 614 441 614 q 650 550 594 614 m 610 440 q 581 543 610 503 q 503 583 552 583 q 414 551 460 583 q 330 457 368 518 q 274 309 298 404 q 250 158 250 214 q 281 52 250 87 q 355 16 311 16 q 454 55 405 16 q 534 154 503 94 q 588 301 566 212 q 610 440 610 391 m 616 725 q 602 709 612 717 q 583 701 591 701 q 570 713 577 701 l 431 884 q 425 928 413 901 q 452 956 434 945 q 484 966 469 966 q 499 963 493 966 q 508 955 506 959 q 515 943 511 951 l 614 746 q 616 725 621 732 z "},"":{"ha":709,"x_min":153,"x_max":749,"o":"m 650 550 q 679 518 650 550 q 707 386 707 486 q 655 193 707 286 q 522 42 604 99 q 355 -16 440 -16 q 210 46 267 -16 q 153 214 153 109 q 183 361 153 288 q 263 490 214 435 q 377 579 313 545 q 504 614 441 614 q 650 550 594 614 m 610 440 q 581 543 610 503 q 503 583 552 583 q 414 551 460 583 q 330 457 368 518 q 274 309 298 404 q 250 158 250 214 q 281 52 250 87 q 355 16 311 16 q 454 55 405 16 q 534 154 503 94 q 588 301 566 212 q 610 440 610 391 m 749 928 q 721 884 749 902 l 497 713 q 478 701 484 701 q 463 709 471 701 q 456 725 456 717 q 469 746 456 732 l 667 943 q 710 966 690 966 q 736 956 724 966 q 749 928 749 945 z "},"":{"ha":709,"x_min":153,"x_max":739,"o":"m 650 550 q 679 518 650 550 q 707 386 707 486 q 655 193 707 286 q 522 42 604 99 q 355 -16 440 -16 q 210 46 267 -16 q 153 214 153 109 q 183 361 153 288 q 263 490 214 435 q 377 579 313 545 q 504 614 441 614 q 650 550 594 614 m 610 440 q 581 543 610 503 q 503 583 552 583 q 414 551 460 583 q 330 457 368 518 q 274 309 298 404 q 250 158 250 214 q 281 52 250 87 q 355 16 311 16 q 454 55 405 16 q 534 154 503 94 q 588 301 566 212 q 610 440 610 391 m 732 745 q 727 724 739 734 q 707 722 715 714 l 571 860 l 366 722 q 346 724 353 714 q 350 745 338 734 l 581 945 q 592 949 586 949 q 602 945 598 949 l 732 745 z "},"":{"ha":709,"x_min":153,"x_max":789,"o":"m 650 550 q 679 518 650 550 q 707 386 707 486 q 655 193 707 286 q 522 42 604 99 q 355 -16 440 -16 q 210 46 267 -16 q 153 214 153 109 q 183 361 153 288 q 263 490 214 435 q 377 579 313 545 q 504 614 441 614 q 650 550 594 614 m 610 440 q 581 543 610 503 q 503 583 552 583 q 414 551 460 583 q 330 457 368 518 q 274 309 298 404 q 250 158 250 214 q 281 52 250 87 q 355 16 311 16 q 454 55 405 16 q 534 154 503 94 q 588 301 566 212 q 610 440 610 391 m 789 889 q 758 852 789 882 q 684 793 728 822 q 611 764 640 764 q 579 773 593 764 q 558 791 564 783 q 541 818 551 800 q 520 846 530 837 q 496 856 510 856 q 447 836 477 856 q 394 795 416 815 l 372 775 q 354 765 359 765 q 339 779 339 765 q 357 805 339 786 q 394 840 376 824 l 412 854 q 515 904 477 904 q 547 895 533 904 q 569 876 562 886 q 590 844 577 865 q 631 812 608 812 q 702 846 657 812 q 755 893 746 880 q 774 903 765 903 q 784 899 780 903 q 789 889 789 895 z "},"":{"ha":709,"x_min":153,"x_max":754,"o":"m 650 550 q 679 518 650 550 q 707 386 707 486 q 655 193 707 286 q 522 42 604 99 q 355 -16 440 -16 q 210 46 267 -16 q 153 214 153 109 q 183 361 153 288 q 263 490 214 435 q 377 579 313 545 q 504 614 441 614 q 650 550 594 614 m 610 440 q 581 543 610 503 q 503 583 552 583 q 414 551 460 583 q 330 457 368 518 q 274 309 298 404 q 250 158 250 214 q 281 52 250 87 q 355 16 311 16 q 454 55 405 16 q 534 154 503 94 q 588 301 566 212 q 610 440 610 391 m 509 847 q 484 793 509 817 q 429 768 458 768 q 388 784 403 768 q 372 822 372 800 q 398 877 372 852 q 453 901 423 901 q 494 885 479 901 q 509 847 509 869 m 754 847 q 729 793 754 817 q 675 768 704 768 q 633 784 648 768 q 618 822 618 800 q 643 877 618 852 q 699 901 669 901 q 740 885 725 901 q 754 847 754 869 z "},"":{"ha":1065,"x_min":193,"x_max":1044,"o":"m 1037 367 q 1040 363 1037 367 q 1044 347 1044 360 q 1037 328 1044 334 q 1021 320 1029 321 q 999 319 1013 319 l 240 319 q 224 320 230 319 q 210 323 218 321 q 197 331 201 325 q 193 347 193 337 q 202 367 193 360 q 218 374 210 373 q 240 375 226 375 l 999 375 q 1021 374 1013 375 q 1037 367 1029 373 m 750 579 q 722 519 750 547 q 660 492 694 492 q 616 508 633 492 q 599 551 599 524 q 627 612 599 585 q 689 639 655 639 q 733 621 717 639 q 750 579 750 604 m 640 143 q 612 83 640 111 q 550 56 585 56 q 506 72 523 56 q 489 115 489 88 q 517 176 489 149 q 579 203 545 203 q 624 185 607 203 q 640 143 640 168 z "},"":{"ha":709,"x_min":94,"x_max":764,"o":"m 697 390 q 647 194 697 289 q 516 41 596 98 q 354 -17 437 -17 q 241 20 290 -17 q 180 -65 206 -28 q 142 -118 154 -102 q 118 -144 123 -140 q 110 -149 114 -149 q 99 -145 104 -149 q 94 -135 94 -141 q 106 -115 94 -128 l 220 40 q 161 208 161 105 q 210 400 161 306 q 339 555 259 495 q 505 615 420 615 q 618 579 568 615 l 730 733 q 750 747 742 747 q 760 743 755 747 q 764 733 764 739 q 753 713 764 728 l 640 558 q 697 390 697 494 m 587 541 q 504 585 559 585 q 415 556 458 585 q 342 482 372 528 q 289 381 311 437 q 254 271 266 326 q 243 168 243 215 q 254 89 243 121 l 587 541 m 616 432 q 604 510 616 477 l 271 58 q 355 14 302 14 q 464 57 413 14 q 548 166 515 101 q 598 302 580 231 q 616 432 616 373 z "},"":{"ha":745,"x_min":115,"x_max":779,"o":"m 779 199 q 737 62 762 115 q 695 5 719 26 q 636 -16 672 -16 q 610 -13 623 -16 q 581 -2 597 -10 q 549 23 564 5 q 525 68 534 41 q 371 -16 458 -16 q 261 23 307 -16 q 215 146 215 62 q 234 259 215 194 q 288 418 253 324 q 321 543 321 509 q 313 575 321 568 q 290 583 304 583 q 247 569 267 583 q 213 535 227 554 q 188 488 200 515 q 171 444 176 460 q 161 408 166 427 q 154 390 157 393 q 136 386 150 386 q 115 400 115 386 q 121 426 115 405 q 141 479 127 446 q 175 541 155 511 q 225 592 194 571 q 293 614 257 614 q 369 583 338 614 q 399 501 399 552 q 380 427 399 476 q 343 321 356 360 q 315 221 330 281 q 300 122 300 161 q 303 85 300 102 q 314 52 306 68 q 337 25 321 35 q 375 16 353 16 q 503 96 448 16 q 522 142 515 114 l 624 547 q 677 599 637 599 q 707 587 696 599 q 717 562 717 576 q 713 543 717 555 l 612 143 q 603 72 603 104 q 604 54 603 61 q 607 37 604 47 q 618 21 610 26 q 639 16 626 16 q 670 30 656 16 q 696 70 685 43 q 715 121 707 96 q 732 180 723 145 q 742 208 738 203 q 758 212 745 212 q 779 199 779 212 m 635 725 q 620 709 631 717 q 602 701 609 701 q 587 713 595 701 l 449 884 q 443 928 431 902 q 469 956 452 945 q 501 966 487 966 q 517 963 511 966 q 526 955 524 959 q 533 943 528 951 l 632 746 q 635 725 640 732 z "},"":{"ha":745,"x_min":115,"x_max":779,"o":"m 779 199 q 737 62 762 115 q 695 5 719 26 q 636 -16 672 -16 q 610 -13 623 -16 q 581 -2 597 -10 q 549 23 564 5 q 525 68 534 41 q 371 -16 458 -16 q 261 23 307 -16 q 215 146 215 62 q 234 259 215 194 q 288 418 253 324 q 321 543 321 509 q 313 575 321 568 q 290 583 304 583 q 247 569 267 583 q 213 535 227 554 q 188 488 200 515 q 171 444 176 460 q 161 408 166 427 q 154 390 157 393 q 136 386 150 386 q 115 400 115 386 q 121 426 115 405 q 141 479 127 446 q 175 541 155 511 q 225 592 194 571 q 293 614 257 614 q 369 583 338 614 q 399 501 399 552 q 380 427 399 476 q 343 321 356 360 q 315 221 330 281 q 300 122 300 161 q 303 85 300 102 q 314 52 306 68 q 337 25 321 35 q 375 16 353 16 q 503 96 448 16 q 522 142 515 114 l 624 547 q 677 599 637 599 q 707 587 696 599 q 717 562 717 576 q 713 543 717 555 l 612 143 q 603 72 603 104 q 604 54 603 61 q 607 37 604 47 q 618 21 610 26 q 639 16 626 16 q 670 30 656 16 q 696 70 685 43 q 715 121 707 96 q 732 180 723 145 q 742 208 738 203 q 758 212 745 212 q 779 199 779 212 m 766 928 q 739 884 766 902 l 515 713 q 496 701 503 701 q 481 709 488 701 q 473 725 473 717 q 488 746 473 732 l 685 943 q 728 966 708 966 q 754 956 742 966 q 766 928 766 945 z "},"":{"ha":745,"x_min":115,"x_max":779,"o":"m 779 199 q 737 62 762 115 q 695 5 719 26 q 636 -16 672 -16 q 610 -13 623 -16 q 581 -2 597 -10 q 549 23 564 5 q 525 68 534 41 q 371 -16 458 -16 q 261 23 307 -16 q 215 146 215 62 q 234 259 215 194 q 288 418 253 324 q 321 543 321 509 q 313 575 321 568 q 290 583 304 583 q 247 569 267 583 q 213 535 227 554 q 188 488 200 515 q 171 444 176 460 q 161 408 166 427 q 154 390 157 393 q 136 386 150 386 q 115 400 115 386 q 121 426 115 405 q 141 479 127 446 q 175 541 155 511 q 225 592 194 571 q 293 614 257 614 q 369 583 338 614 q 399 501 399 552 q 380 427 399 476 q 343 321 356 360 q 315 221 330 281 q 300 122 300 161 q 303 85 300 102 q 314 52 306 68 q 337 25 321 35 q 375 16 353 16 q 503 96 448 16 q 522 142 515 114 l 624 547 q 677 599 637 599 q 707 587 696 599 q 717 562 717 576 q 713 543 717 555 l 612 143 q 603 72 603 104 q 604 54 603 61 q 607 37 604 47 q 618 21 610 26 q 639 16 626 16 q 670 30 656 16 q 696 70 685 43 q 715 121 707 96 q 732 180 723 145 q 742 208 738 203 q 758 212 745 212 q 779 199 779 212 m 750 745 q 745 724 757 734 q 725 722 733 714 l 589 860 l 383 722 q 363 724 370 714 q 368 745 357 734 l 599 945 q 610 949 604 949 q 619 945 616 949 l 750 745 z "},"":{"ha":745,"x_min":115,"x_max":779,"o":"m 779 199 q 737 62 762 115 q 695 5 719 26 q 636 -16 672 -16 q 610 -13 623 -16 q 581 -2 597 -10 q 549 23 564 5 q 525 68 534 41 q 371 -16 458 -16 q 261 23 307 -16 q 215 146 215 62 q 234 259 215 194 q 288 418 253 324 q 321 543 321 509 q 313 575 321 568 q 290 583 304 583 q 247 569 267 583 q 213 535 227 554 q 188 488 200 515 q 171 444 176 460 q 161 408 166 427 q 154 390 157 393 q 136 386 150 386 q 115 400 115 386 q 121 426 115 405 q 141 479 127 446 q 175 541 155 511 q 225 592 194 571 q 293 614 257 614 q 369 583 338 614 q 399 501 399 552 q 380 427 399 476 q 343 321 356 360 q 315 221 330 281 q 300 122 300 161 q 303 85 300 102 q 314 52 306 68 q 337 25 321 35 q 375 16 353 16 q 503 96 448 16 q 522 142 515 114 l 624 547 q 677 599 637 599 q 707 587 696 599 q 717 562 717 576 q 713 543 717 555 l 612 143 q 603 72 603 104 q 604 54 603 61 q 607 37 604 47 q 618 21 610 26 q 639 16 626 16 q 670 30 656 16 q 696 70 685 43 q 715 121 707 96 q 732 180 723 145 q 742 208 738 203 q 758 212 745 212 q 779 199 779 212 m 526 847 q 501 793 526 817 q 447 768 476 768 q 405 784 420 768 q 390 822 390 800 q 415 877 390 852 q 471 901 441 901 q 512 885 497 901 q 526 847 526 869 m 772 847 q 747 793 772 817 q 693 768 722 768 q 651 784 667 768 q 636 822 636 800 q 662 877 636 852 q 717 901 687 901 q 758 885 743 901 q 772 847 772 869 z "},"":{"ha":675,"x_min":115,"x_max":730,"o":"m 576 -4 q 515 -138 559 -74 q 405 -243 471 -201 q 271 -285 340 -285 q 175 -252 212 -285 q 138 -165 138 -219 q 143 -126 138 -143 q 157 -101 149 -110 q 176 -87 165 -93 q 194 -81 187 -82 q 208 -79 201 -79 q 242 -91 228 -79 q 256 -123 256 -102 q 240 -165 256 -144 q 196 -191 225 -186 l 184 -195 q 187 -203 184 -197 q 196 -218 189 -210 q 211 -235 202 -227 q 236 -249 220 -243 q 271 -254 252 -254 q 328 -240 299 -254 q 389 -196 357 -227 q 449 -105 420 -165 q 496 36 477 -45 q 371 -16 444 -16 q 261 23 307 -16 q 215 146 215 62 q 234 259 215 194 q 288 418 253 324 q 321 543 321 509 q 313 575 321 568 q 290 583 304 583 q 247 569 267 583 q 213 535 227 554 q 188 488 200 515 q 171 444 176 460 q 161 408 166 427 q 154 390 157 393 q 136 386 150 386 q 115 400 115 386 q 121 426 115 405 q 141 479 127 446 q 175 541 155 511 q 225 592 194 571 q 293 614 257 614 q 369 583 338 614 q 399 501 399 552 q 380 427 399 476 q 343 321 356 360 q 315 221 330 281 q 300 122 300 161 q 303 85 300 102 q 314 52 306 68 q 337 25 321 35 q 375 16 353 16 q 471 58 430 16 q 522 139 513 100 l 624 547 q 677 599 637 599 q 707 587 696 599 q 717 562 717 576 q 715 553 717 560 q 713 543 713 547 l 576 -4 m 730 928 q 703 884 730 902 l 479 713 q 460 701 467 701 q 445 709 452 701 q 437 725 437 717 q 452 746 437 732 l 648 943 q 692 966 671 966 q 718 956 706 966 q 730 928 730 945 z "},"":{"ha":639,"x_min":-52,"x_max":637,"o":"m 637 397 q 596 201 637 296 q 480 45 554 106 q 321 -16 406 -16 q 244 11 274 -16 q 204 65 215 37 l 154 -138 q 139 -204 139 -199 q 140 -212 139 -210 q 144 -218 140 -214 q 154 -223 147 -221 q 175 -225 161 -224 q 210 -227 189 -227 q 228 -227 222 -227 q 238 -231 233 -227 q 243 -243 243 -235 q 237 -261 243 -255 q 228 -269 232 -268 q 216 -269 223 -269 q 150 -267 195 -269 q 82 -265 104 -265 q 23 -267 62 -265 q -35 -269 -16 -269 q -47 -264 -42 -269 q -52 -253 -52 -260 q -46 -234 -52 -241 q -36 -227 -41 -228 q -22 -227 -31 -227 q 33 -217 19 -225 q 54 -178 46 -209 l 313 859 q 317 882 317 878 q 314 894 317 890 q 295 902 311 899 q 248 905 279 905 q 230 906 235 905 q 219 910 224 907 q 214 921 214 913 q 219 940 214 933 q 229 948 224 947 q 245 950 235 949 l 383 961 q 406 964 391 964 q 425 947 425 964 q 421 929 422 933 l 323 541 q 471 614 401 614 q 588 558 539 614 q 637 397 637 502 m 467 147 q 520 312 496 211 q 545 460 545 414 q 541 498 545 479 q 530 538 538 517 q 506 571 522 558 q 468 583 490 583 q 360 526 416 583 q 294 427 304 469 l 229 164 q 225 144 225 148 q 227 127 225 139 q 235 95 229 115 q 251 58 241 75 q 279 28 261 41 q 319 16 297 16 q 369 31 344 16 q 414 69 394 46 q 446 112 433 92 q 467 147 458 131 z "},"":{"ha":675,"x_min":115,"x_max":736,"o":"m 576 -4 q 515 -138 559 -74 q 405 -243 471 -201 q 271 -285 340 -285 q 175 -252 212 -285 q 138 -165 138 -219 q 143 -126 138 -143 q 157 -101 149 -110 q 176 -87 165 -93 q 194 -81 187 -82 q 208 -79 201 -79 q 242 -91 228 -79 q 256 -123 256 -102 q 240 -165 256 -144 q 196 -191 225 -186 l 184 -195 q 187 -203 184 -197 q 196 -218 189 -210 q 211 -235 202 -227 q 236 -249 220 -243 q 271 -254 252 -254 q 328 -240 299 -254 q 389 -196 357 -227 q 449 -105 420 -165 q 496 36 477 -45 q 371 -16 444 -16 q 261 23 307 -16 q 215 146 215 62 q 234 259 215 194 q 288 418 253 324 q 321 543 321 509 q 313 575 321 568 q 290 583 304 583 q 247 569 267 583 q 213 535 227 554 q 188 488 200 515 q 171 444 176 460 q 161 408 166 427 q 154 390 157 393 q 136 386 150 386 q 115 400 115 386 q 121 426 115 405 q 141 479 127 446 q 175 541 155 511 q 225 592 194 571 q 293 614 257 614 q 369 583 338 614 q 399 501 399 552 q 380 427 399 476 q 343 321 356 360 q 315 221 330 281 q 300 122 300 161 q 303 85 300 102 q 314 52 306 68 q 337 25 321 35 q 375 16 353 16 q 471 58 430 16 q 522 139 513 100 l 624 547 q 677 599 637 599 q 707 587 696 599 q 717 562 717 576 q 715 553 717 560 q 713 543 713 547 l 576 -4 m 490 847 q 465 793 490 817 q 411 768 440 768 q 369 784 385 768 q 354 822 354 800 q 379 877 354 852 q 435 901 405 901 q 476 885 461 901 q 490 847 490 869 m 736 847 q 711 793 736 817 q 657 768 686 768 q 615 784 631 768 q 600 822 600 800 q 626 877 600 852 q 681 901 651 901 q 722 885 707 901 q 736 847 736 869 z "},"":{"ha":1368,"x_min":225,"x_max":1461,"o":"m 1381 343 q 1375 326 1377 329 l 1251 22 q 1238 3 1244 6 q 1213 0 1233 0 l 751 0 q 636 -17 708 0 q 542 -31 577 -31 q 315 69 405 -31 q 225 328 225 168 q 275 566 225 446 q 405 776 326 686 q 588 923 484 866 q 794 979 692 979 q 880 965 829 979 q 989 949 947 949 l 1425 949 q 1454 944 1448 949 q 1458 914 1461 939 l 1426 668 q 1420 642 1424 648 q 1402 636 1417 636 q 1381 653 1381 636 l 1383 671 l 1392 761 l 1392 764 q 1392 772 1392 768 q 1392 782 1392 776 q 1392 794 1392 788 q 1390 809 1391 801 q 1387 824 1388 817 q 1381 840 1385 831 q 1374 854 1378 848 q 1364 868 1370 861 q 1350 879 1358 874 q 1218 905 1312 905 l 1075 905 q 1027 899 1038 905 q 1007 856 1016 892 l 922 514 l 1057 514 q 1133 520 1103 514 q 1181 545 1162 527 q 1211 586 1200 563 q 1232 650 1221 609 q 1236 666 1235 662 q 1242 673 1238 671 q 1255 676 1246 676 q 1278 660 1278 676 q 1274 642 1278 654 l 1197 335 q 1189 313 1193 317 q 1173 309 1185 309 q 1150 325 1150 309 l 1154 345 q 1165 408 1165 383 q 1143 456 1165 441 q 1053 471 1122 471 l 911 471 l 815 87 q 812 74 815 87 q 810 57 810 62 q 811 48 810 51 q 823 44 813 46 q 852 43 832 43 l 996 43 q 1085 50 1046 43 q 1155 73 1124 56 q 1208 108 1185 89 q 1251 161 1230 127 q 1287 226 1272 194 q 1322 307 1302 258 q 1344 354 1340 351 q 1360 358 1348 358 q 1381 343 1381 358 m 875 726 q 893 859 893 798 q 892 881 893 872 q 886 904 892 889 q 871 927 881 918 q 840 942 861 935 q 789 949 819 949 q 686 924 739 949 q 585 857 633 900 q 494 753 537 814 q 419 622 451 692 q 370 470 388 552 q 351 306 351 388 q 406 85 351 170 q 553 0 460 0 q 629 13 598 0 q 683 60 660 26 q 722 138 706 94 q 757 257 737 181 l 875 726 z "},"":{"ha":994,"x_min":150,"x_max":999,"o":"m 971 144 q 959 120 971 138 q 923 79 947 102 q 869 35 899 56 q 797 -1 839 14 q 711 -16 754 -16 q 610 17 656 -16 q 536 122 564 49 q 428 18 487 52 q 319 -17 370 -17 q 195 46 241 -17 q 150 199 150 109 q 196 394 150 297 q 317 553 242 491 q 471 615 392 615 q 618 493 577 615 q 632 509 622 498 q 666 538 642 519 q 717 573 690 557 q 783 602 744 589 q 860 614 822 614 q 960 580 921 614 q 999 496 999 547 q 996 472 999 486 q 985 436 994 458 q 954 392 976 414 q 900 357 932 370 q 688 321 821 321 l 623 321 q 602 179 602 235 q 607 124 602 151 q 625 72 612 98 q 660 31 637 47 q 713 16 682 16 q 757 22 734 16 q 810 42 781 28 q 871 84 839 56 q 930 153 903 113 q 949 167 943 167 q 964 158 956 167 q 971 144 971 150 m 946 498 q 923 559 946 534 q 859 583 900 583 q 820 578 841 583 q 771 557 800 572 q 719 517 743 541 q 670 449 694 492 q 631 351 646 406 l 668 351 q 725 353 698 351 q 786 360 752 355 q 846 376 819 366 q 897 402 873 387 q 933 443 920 418 q 946 498 946 467 m 527 297 q 539 345 527 297 q 551 452 551 393 q 531 547 551 510 q 469 585 511 585 q 381 538 423 585 q 313 429 339 492 q 268 284 292 380 q 244 138 244 187 q 247 104 244 121 q 256 64 250 87 q 280 28 263 42 q 321 14 296 14 q 372 28 347 14 q 418 67 398 43 q 451 108 439 91 q 472 142 463 125 q 527 297 503 200 z "},"":{"ha":1031,"x_min":281,"x_max":1214,"o":"m 1214 933 q 1209 915 1214 921 q 1201 907 1204 908 q 1187 905 1197 907 q 1094 876 1137 901 q 1003 791 1050 850 l 675 393 q 672 390 673 391 q 670 387 671 389 q 668 384 669 385 q 666 381 667 383 q 665 377 665 378 q 664 373 665 376 q 662 369 663 370 q 661 362 662 367 q 659 355 659 358 l 615 184 q 589 66 589 73 q 608 47 589 51 q 669 43 628 43 q 687 42 683 43 q 697 41 691 42 q 705 36 703 39 q 707 26 707 33 q 701 8 707 14 q 692 1 696 1 q 681 0 688 0 q 598 2 654 0 q 515 4 543 4 q 435 2 489 4 q 354 0 380 0 q 335 17 335 0 q 337 32 335 26 q 345 40 339 38 q 355 42 351 42 q 370 43 359 43 q 413 44 399 43 q 443 48 428 44 q 463 55 457 52 q 475 70 468 58 q 484 92 481 82 q 492 125 486 101 q 555 379 555 374 q 550 400 555 387 l 403 864 q 378 897 395 888 q 314 905 361 905 q 296 906 302 905 q 286 910 290 907 q 281 922 281 914 q 286 941 281 935 q 296 948 292 947 q 307 949 300 949 q 379 947 330 949 q 452 945 428 945 q 533 947 479 945 q 614 949 587 949 q 633 932 633 949 q 631 917 633 922 q 624 908 629 911 q 614 906 618 906 q 603 905 610 905 q 525 872 525 905 q 530 854 525 868 l 663 437 l 966 808 q 971 814 966 809 q 980 826 975 820 q 990 841 985 833 q 998 858 995 850 q 1002 873 1002 867 q 958 905 1002 903 q 937 922 937 905 q 942 941 937 935 q 952 948 947 947 q 962 949 956 949 q 1026 947 983 949 q 1092 945 1070 945 q 1145 947 1109 945 q 1197 949 1181 949 q 1209 945 1204 949 q 1214 937 1213 941 l 1214 933 m 711 1101 q 686 1047 711 1072 q 632 1022 661 1022 q 590 1038 606 1022 q 575 1076 575 1054 q 601 1131 575 1106 q 656 1156 626 1156 q 697 1139 682 1156 q 711 1101 711 1123 m 1002 1101 q 977 1047 1002 1072 q 922 1022 951 1022 q 881 1038 896 1022 q 865 1076 865 1054 q 891 1131 865 1106 q 946 1156 916 1156 q 987 1139 972 1156 q 1002 1101 1002 1123 z "},"":{"ha":709,"x_min":338,"x_max":739,"o":"m 732 745 q 727 724 739 734 q 707 722 715 714 l 571 860 l 366 722 q 346 724 353 714 q 350 745 338 734 l 581 945 q 592 949 586 949 q 602 945 598 949 l 732 745 z "},"":{"ha":709,"x_min":339,"x_max":789,"o":"m 789 889 q 758 852 789 882 q 684 793 728 822 q 611 764 640 764 q 579 773 593 764 q 558 791 564 783 q 541 818 551 800 q 520 846 530 837 q 496 856 510 856 q 447 836 477 856 q 394 795 416 815 l 372 775 q 354 765 359 765 q 339 779 339 765 q 357 805 339 786 q 394 840 376 824 l 412 854 q 515 904 477 904 q 547 895 533 904 q 569 876 562 886 q 590 844 577 865 q 631 812 608 812 q 702 846 657 812 q 755 893 746 880 q 774 903 765 903 q 784 899 780 903 q 789 889 789 895 z "},"":{"ha":629,"x_min":0,"x_max":0,"o":""},"":{"ha":1258,"x_min":0,"x_max":0,"o":""},"":{"ha":629,"x_min":0,"x_max":0,"o":""},"":{"ha":1258,"x_min":0,"x_max":0,"o":""},"":{"ha":419,"x_min":0,"x_max":0,"o":""},"":{"ha":314,"x_min":0,"x_max":0,"o":""},"":{"ha":210,"x_min":0,"x_max":0,"o":""},"":{"ha":210,"x_min":0,"x_max":0,"o":""},"":{"ha":157,"x_min":0,"x_max":0,"o":""},"":{"ha":252,"x_min":0,"x_max":0,"o":""},"":{"ha":70,"x_min":0,"x_max":0,"o":""},"":{"ha":497,"x_min":119,"x_max":471,"o":"m 460 277 q 451 262 457 264 q 422 260 444 260 l 155 260 q 126 262 134 260 q 119 278 119 265 q 129 319 119 291 q 138 335 133 333 q 165 338 144 338 l 436 338 q 455 337 450 338 q 466 333 461 336 q 471 321 471 329 q 460 277 471 309 z "},"":{"ha":497,"x_min":119,"x_max":471,"o":"m 460 277 q 451 262 457 264 q 422 260 444 260 l 155 260 q 126 262 134 260 q 119 278 119 265 q 129 319 119 291 q 138 335 133 333 q 165 338 144 338 l 436 338 q 455 337 450 338 q 466 333 461 336 q 471 321 471 329 q 460 277 471 309 z "},"":{"ha":497,"x_min":119,"x_max":471,"o":"m 460 277 q 451 262 457 264 q 422 260 444 260 l 155 260 q 126 262 134 260 q 119 278 119 265 q 129 319 119 291 q 138 335 133 333 q 165 338 144 338 l 436 338 q 455 337 450 338 q 466 333 461 336 q 471 321 471 329 q 460 277 471 309 z "},"":{"ha":709,"x_min":129,"x_max":765,"o":"m 765 370 q 757 356 765 359 q 730 354 749 354 l 164 354 q 145 355 151 354 q 134 359 139 355 q 129 370 129 362 q 131 378 129 375 q 139 383 133 382 q 149 384 145 384 q 164 385 153 385 l 730 385 q 745 384 741 385 q 755 383 749 384 q 763 378 761 382 q 765 370 765 375 z "},"":{"ha":1419,"x_min":165,"x_max":1439,"o":"m 1439 370 q 1431 356 1439 359 q 1404 354 1423 354 l 200 354 q 181 355 187 354 q 171 359 176 355 q 165 370 165 362 q 173 382 165 380 q 200 385 180 385 l 1404 385 q 1419 384 1415 385 q 1429 383 1423 384 q 1437 378 1435 382 q 1439 370 1439 375 z "},"":{"ha":426,"x_min":288,"x_max":500,"o":"m 444 636 q 419 575 444 604 q 354 547 393 547 q 319 556 333 547 q 298 581 304 566 q 290 608 292 595 q 288 635 288 621 q 315 754 288 691 q 377 860 342 817 q 444 933 412 904 q 486 962 475 962 q 496 958 492 962 q 500 949 500 953 q 497 941 500 945 q 481 925 494 937 q 374 803 415 871 q 321 668 333 734 q 383 694 347 694 q 427 681 409 694 q 444 636 444 667 z "},"":{"ha":426,"x_min":306,"x_max":518,"o":"m 518 876 q 491 757 518 820 q 429 651 464 694 q 362 578 393 607 q 319 549 330 549 q 310 553 313 549 q 306 562 306 558 q 309 570 306 566 q 325 586 311 574 q 432 708 391 640 q 485 843 473 777 q 422 817 458 817 q 379 830 397 817 q 361 875 361 844 q 387 936 361 907 q 452 964 412 964 q 487 955 473 964 q 507 930 501 945 q 516 903 513 916 q 518 876 518 890 z "},"":{"ha":426,"x_min":90,"x_max":302,"o":"m 302 57 q 275 -62 302 1 q 213 -169 248 -125 q 147 -241 178 -212 q 104 -271 115 -271 q 94 -266 98 -271 q 90 -257 90 -261 q 93 -250 90 -253 q 110 -233 96 -246 q 216 -111 176 -180 q 269 24 257 -43 q 207 -3 243 -3 q 163 11 181 -3 q 146 56 146 25 q 171 116 146 88 q 236 144 197 144 q 271 135 257 144 q 292 111 286 126 q 300 83 298 96 q 302 57 302 71 z "},"":{"ha":680,"x_min":288,"x_max":754,"o":"m 444 636 q 419 575 444 604 q 354 547 393 547 q 319 556 333 547 q 298 581 304 566 q 290 608 292 595 q 288 635 288 621 q 315 754 288 691 q 377 860 342 817 q 444 933 412 904 q 486 962 475 962 q 496 958 492 962 q 500 949 500 953 q 497 941 500 945 q 481 925 494 937 q 374 803 415 871 q 321 668 333 734 q 383 694 347 694 q 427 681 409 694 q 444 636 444 667 m 699 636 q 673 575 699 604 q 608 547 648 547 q 573 556 587 547 q 553 581 559 566 q 544 608 547 595 q 542 635 542 621 q 569 754 542 691 q 631 860 596 817 q 698 933 667 904 q 741 962 730 962 q 750 958 747 962 q 754 949 754 953 q 751 941 754 945 q 734 925 749 938 q 628 803 669 871 q 575 668 587 734 q 637 694 602 694 q 681 681 663 694 q 699 636 699 667 z "},"":{"ha":680,"x_min":302,"x_max":770,"o":"m 515 876 q 488 757 515 820 q 426 651 461 694 q 359 578 391 607 q 317 549 328 549 q 307 553 311 549 q 302 562 302 558 q 305 570 302 566 q 322 586 308 573 q 429 708 388 640 q 482 843 470 777 q 419 817 456 817 q 376 830 393 817 q 358 875 358 844 q 384 936 358 907 q 449 964 410 964 q 484 955 470 964 q 505 930 498 945 q 513 903 511 916 q 515 876 515 890 m 770 876 q 743 757 770 820 q 680 651 715 694 q 613 578 645 607 q 571 549 582 549 q 561 553 565 549 q 557 562 557 558 q 559 570 557 566 q 576 586 562 573 q 683 708 642 640 q 736 843 724 777 q 673 817 709 817 q 630 830 648 817 q 612 875 612 844 q 638 936 612 907 q 703 964 663 964 q 738 955 724 964 q 759 930 753 945 q 767 903 765 916 q 770 876 770 890 z "},"":{"ha":680,"x_min":98,"x_max":566,"o":"m 311 57 q 284 -62 311 1 q 222 -169 257 -125 q 155 -241 186 -212 q 113 -271 123 -271 q 102 -266 106 -271 q 98 -257 98 -261 q 101 -250 98 -253 q 118 -233 104 -246 q 225 -111 184 -179 q 278 24 266 -43 q 215 -3 252 -3 q 172 11 189 -3 q 154 56 154 25 q 179 116 154 88 q 244 144 205 144 q 280 135 265 144 q 300 111 294 126 q 309 83 307 96 q 311 57 311 71 m 566 57 q 538 -62 566 1 q 476 -169 511 -125 q 409 -241 441 -212 q 367 -271 378 -271 q 357 -266 361 -271 q 353 -257 353 -261 q 355 -250 353 -253 q 372 -233 358 -246 q 479 -111 438 -180 q 532 24 519 -43 q 469 -3 505 -3 q 426 11 444 -3 q 408 56 408 25 q 434 116 408 88 q 498 144 459 144 q 534 135 519 144 q 555 111 549 126 q 563 83 561 96 q 566 57 566 71 z "},"":{"ha":1065,"x_min":399,"x_max":825,"o":"m 825 358 q 790 243 825 300 q 695 150 755 186 q 571 113 635 113 q 447 159 494 113 q 399 281 399 205 q 478 451 399 376 q 653 526 558 526 q 779 476 732 526 q 825 358 825 427 z "},"":{"ha":949,"x_min":155,"x_max":832,"o":"m 307 87 q 279 28 307 56 q 216 0 251 0 q 172 16 189 0 q 155 60 155 33 q 183 120 155 94 q 245 147 212 147 q 290 130 273 147 q 307 87 307 112 m 570 87 q 542 28 570 56 q 479 0 514 0 q 435 17 452 0 q 418 60 418 33 q 446 120 418 94 q 509 147 475 147 q 553 130 536 147 q 570 87 570 112 m 832 87 q 804 28 832 56 q 742 0 777 0 q 698 16 715 0 q 681 60 681 33 q 709 120 681 94 q 771 147 737 147 q 815 130 799 147 q 832 87 832 112 z "},"":{"ha":252,"x_min":0,"x_max":0,"o":""},"":{"ha":497,"x_min":226,"x_max":522,"o":"m 359 17 q 354 5 359 11 q 342 0 348 0 l 339 0 q 331 3 335 0 q 328 9 328 5 q 228 326 317 186 q 227 336 226 330 q 233 345 229 342 q 492 661 389 481 q 507 671 496 671 l 510 671 q 519 666 516 671 q 519 654 522 661 q 318 336 437 481 q 359 17 366 188 z "},"":{"ha":497,"x_min":143,"x_max":444,"o":"m 432 326 q 174 9 276 190 q 158 0 169 0 l 155 0 q 146 5 149 0 q 146 17 143 11 q 347 336 228 191 q 306 654 300 484 q 312 666 306 661 q 323 671 317 671 l 326 671 q 338 661 335 671 q 437 345 348 485 q 432 326 444 336 z "},"":{"ha":314,"x_min":0,"x_max":0,"o":""},"":{"ha":800,"x_min":165,"x_max":972,"o":"m 725 -17 q 719 -27 724 -23 q 708 -31 713 -31 l 704 -31 q 694 -25 696 -31 l 661 31 q 501 -31 583 -31 q 367 10 425 -31 q 278 119 309 51 q 243 376 226 229 l 176 376 q 168 382 170 376 q 168 393 165 387 l 175 407 q 191 418 179 418 l 249 418 q 260 475 251 433 q 267 498 260 477 q 277 532 273 520 l 215 532 q 206 537 209 532 q 207 549 203 543 l 214 562 q 229 574 218 574 l 292 574 q 456 831 349 720 q 599 939 521 899 q 754 979 677 979 q 884 918 836 979 l 945 975 q 956 979 949 979 l 960 979 q 969 975 966 979 q 971 965 972 971 l 917 750 q 911 740 916 744 q 900 736 905 736 l 886 736 q 877 740 880 736 q 875 749 873 743 q 855 882 887 827 q 755 937 823 937 q 641 901 698 937 q 536 807 583 865 q 418 574 463 715 l 787 574 q 798 568 794 574 q 798 555 801 562 l 790 542 q 774 532 783 532 l 406 532 l 390 475 l 378 418 l 708 418 q 718 412 714 418 q 717 400 721 406 l 710 386 q 694 376 705 376 l 370 376 q 371 142 342 233 q 427 47 388 84 q 524 11 466 11 q 651 66 591 11 q 737 200 710 122 q 754 212 742 212 l 768 212 q 779 199 781 212 l 725 -17 z "},"":{"ha":1343,"x_min":241,"x_max":1479,"o":"m 742 779 q 737 764 740 768 q 726 761 734 761 q 714 772 714 761 q 717 785 714 777 q 725 860 725 835 q 704 911 725 899 q 618 924 683 924 q 575 922 582 924 q 568 920 570 922 q 562 912 566 919 q 555 895 559 906 l 444 446 l 441 431 q 447 418 441 421 q 468 412 452 414 l 486 412 q 510 411 503 411 l 522 411 q 533 411 530 411 q 540 408 537 410 q 543 401 543 406 q 540 390 543 393 q 534 385 537 386 q 526 385 531 385 q 461 386 505 385 q 396 387 418 387 q 331 386 374 387 q 267 385 287 385 q 252 395 252 385 q 255 407 252 403 q 262 411 259 410 q 275 411 266 411 l 289 411 q 356 418 342 411 q 376 449 371 425 l 489 896 q 492 914 492 907 q 491 919 492 918 q 486 922 490 921 q 472 924 481 924 l 444 924 q 334 900 363 924 q 275 789 304 876 q 264 764 268 768 q 254 761 261 761 q 241 771 241 761 q 245 785 241 774 l 296 935 q 302 947 298 945 q 319 949 307 949 l 747 949 q 768 939 768 949 q 766 928 768 934 l 742 779 m 1479 943 q 1474 930 1479 932 q 1454 928 1469 928 q 1404 922 1415 928 q 1388 895 1393 916 l 1275 444 l 1272 425 q 1274 418 1272 420 q 1287 413 1276 416 q 1321 411 1299 411 q 1335 411 1331 411 q 1340 408 1338 410 q 1343 400 1343 406 q 1340 389 1343 393 q 1334 385 1337 385 q 1328 385 1332 385 q 1279 386 1312 385 q 1231 387 1246 387 q 1183 386 1215 387 q 1136 385 1151 385 q 1124 395 1124 385 q 1127 407 1124 403 q 1135 411 1131 410 q 1146 411 1138 411 q 1198 417 1187 411 q 1215 446 1210 424 l 1332 918 l 1021 400 q 1000 385 1012 385 q 989 389 991 385 q 986 406 987 393 l 936 909 l 935 909 l 823 468 l 821 447 q 822 436 821 441 q 827 425 823 431 q 842 415 831 419 q 869 411 852 412 q 886 400 886 411 q 871 385 886 385 q 829 386 857 385 q 789 387 802 387 q 749 386 775 387 q 710 385 722 385 q 699 395 699 385 q 715 411 699 411 q 768 425 747 412 q 796 469 788 437 l 903 899 q 905 914 905 909 q 894 925 905 923 q 857 928 882 928 q 844 928 848 928 q 838 931 840 928 q 835 939 835 933 q 838 949 835 946 q 845 954 842 953 q 857 954 849 954 l 968 954 q 987 952 983 954 q 991 936 991 949 l 1038 468 l 1321 939 q 1333 952 1328 950 q 1352 954 1337 954 l 1458 954 q 1470 954 1466 954 q 1476 951 1474 954 q 1479 943 1479 949 z "},"":{"ha":611,"x_min":0,"x_max":611,"o":"m 0 611 l 611 611 l 611 0 l 0 0 l 0 611 z "},"":{"ha":780,"x_min":-35,"x_max":828,"o":"m 814 199 q 772 62 798 115 q 671 -16 734 -16 q 587 20 621 -16 q 554 110 554 55 q 561 157 554 130 l 661 555 l 383 555 l 300 119 q 278 19 290 64 q 252 -75 267 -26 q 220 -159 237 -123 q 181 -224 202 -195 q 133 -269 159 -254 q 75 -285 106 -285 q -1 -261 33 -285 q -35 -193 -35 -238 q -14 -138 -35 -159 q 35 -117 7 -117 q 68 -129 54 -117 q 82 -161 82 -140 q 66 -204 82 -184 q 21 -229 50 -224 q 43 -247 29 -240 q 66 -254 56 -253 l 75 -254 q 98 -249 87 -254 q 116 -233 108 -244 q 129 -214 123 -222 q 140 -189 134 -205 q 147 -166 145 -172 q 153 -144 149 -160 l 199 60 l 294 555 l 208 555 q 189 556 195 555 q 178 561 183 557 q 174 572 174 564 q 179 591 174 585 q 191 598 184 597 q 212 599 197 599 l 302 599 l 328 729 q 367 851 341 802 q 433 928 393 900 q 519 967 472 956 q 629 979 566 979 q 651 979 642 979 q 683 977 661 979 q 722 971 705 975 q 760 960 739 968 q 795 941 781 952 q 819 913 809 930 q 828 875 828 897 q 806 818 828 838 q 758 798 785 798 q 722 811 734 798 q 710 842 710 825 q 710 848 710 844 q 714 862 711 852 q 723 881 718 872 q 742 898 729 889 q 771 909 754 906 q 632 949 732 949 q 547 937 583 949 q 491 911 511 926 q 455 862 471 896 q 433 803 439 827 q 416 728 427 779 l 392 599 l 724 599 q 743 598 738 599 q 753 594 749 597 q 757 583 757 591 q 753 566 754 574 l 647 143 q 637 72 637 104 q 638 54 637 61 q 642 37 639 47 q 653 21 645 26 q 673 16 661 16 q 705 30 690 16 q 731 70 720 43 q 750 121 742 96 q 766 180 758 145 q 776 208 772 203 q 793 212 780 212 q 814 199 814 212 z "}}}
